<svg width="18" height="20" viewBox="0 0 18 20" fill="none" xmlns="http://www.w3.org/2000/svg">
<path fill-rule="evenodd" clip-rule="evenodd" d="M2.00003 6C2.00003 2.68629 4.6863 0 8 0H10C13.3137 0 16 2.68629 16 6V13.5858L17.7071 15.2929C17.9931 15.5789 18.0787 16.009 17.9239 16.3827C17.7691 16.7564 17.4045 17 17 17H1.00003C0.59557 17 0.23093 16.7564 0.0761504 16.3827C-0.0786296 16.009 0.00692052 15.5789 0.292921 15.2929L2.00003 13.5858V13C2.00003 12.4477 2.44774 12 3 12C3.5523 12 4 12.4477 4 13V14C4 14.2652 3.8947 14.5196 3.7071 14.7071L3.4142 15H14.5858L14.2929 14.7071C14.1054 14.5196 14 14.2652 14 14V6C14 3.79086 12.2092 2 10 2H8C5.7909 2 4 3.79086 4 6V7C4 7.5523 3.5523 8 3 8C2.44774 8 2.00003 7.5523 2.00003 7V6ZM4 10C4 10.5523 3.5523 11 3 11C2.44774 11 2.00003 10.5523 2.00003 10C2.00003 9.4477 2.44774 9 3 9C3.5523 9 4 9.4477 4 10ZM9 20C9.5523 20 10 19.5523 10 19C10 18.4477 9.5523 18 9 18C8.4477 18 8 18.4477 8 19C8 19.5523 8.4477 20 9 20Z" fill="#6A7283"/>
</svg>
