<svg width="20" height="20" viewBox="0 0 20 20" fill="none" xmlns="http://www.w3.org/2000/svg">
<path d="M10.5955 6.10529C9.25983 5.7594 7.89667 6.56177 7.55078 7.89746C7.48175 8.16498 7.64264 8.43781 7.91016 8.50684C8.17767 8.57587 8.4505 8.41498 8.51953 8.14746C8.64624 7.65424 9.01465 7.25903 9.49774 7.09796C10.2835 6.836 11.1328 7.26068 11.3947 8.04639C11.6567 8.83215 11.2321 9.68146 10.4463 9.94336C9.84265 10.1677 9.4483 10.7508 9.46484 11.3945V12.023C9.46497 12.299 9.68884 12.5226 9.96484 12.5225H9.96539C10.2414 12.5223 10.465 12.2985 10.4648 12.0225V11.3945C10.4513 11.1797 10.5723 10.9789 10.7686 10.8906C11.5674 10.6208 12.1763 9.96625 12.3877 9.14996C12.7336 7.81433 11.9312 6.45117 10.5955 6.10529ZM9.96466 13.3974C9.61945 13.3974 9.33966 13.6772 9.33966 14.0224C9.33966 14.3676 9.61945 14.6474 9.96466 14.6474C10.3098 14.6474 10.5897 14.3676 10.5897 14.0224C10.5897 13.6772 10.3098 13.3974 9.96466 13.3974ZM10 0C4.47717 0 0 4.47717 0 10C0 15.5228 4.47717 20 10 20C15.5201 19.9935 19.9935 15.5201 20 10C20 4.47717 15.5228 0 10 0ZM10 19C5.02942 19 1 14.9706 1 10C1 5.02942 5.02942 1 10 1C14.9683 1.00543 18.9946 5.03168 19 10C19 14.9706 14.9706 19 10 19Z" fill="#6A7283"/>
</svg>
