<svg width="30" height="30" viewBox="0 0 30 30" fill="none" xmlns="http://www.w3.org/2000/svg">
<g clip-path="url(#clip0)">
<path d="M19.5747 14.9221L19.2198 14.4448C19.0606 14.2306 19.003 13.9568 19.0658 13.6975C19.2104 13.0995 19.3891 11.9213 18.851 10.8626C18.733 10.6305 18.646 10.383 18.603 10.1262C18.3034 8.33746 19.2059 5.927 19.2232 5.87227C19.5394 4.87286 19.6649 4.47407 18.9009 4.10657C18.0694 3.70657 17.3306 4.1686 16.8993 4.95254C16.8407 5.05895 15.9727 6.66942 15.7738 8.76215C14.4883 7.03325 11.4313 2.92168 10.4152 1.55512C10.0358 1.04485 9.32626 0.887659 8.78388 1.21961C8.16189 1.60035 8.01271 2.42192 8.43794 2.99387C8.43486 2.98973 7.79474 2.12879 7.81306 2.15344C7.4149 1.61789 6.65783 1.47653 6.1122 1.86075C5.54791 2.25817 5.42509 3.03981 5.83439 3.59028C6.56392 4.57149 6.39623 4.3459 6.47572 4.45282C6.05502 3.887 5.23837 3.78918 4.69447 4.25782C4.20607 4.67864 4.1438 5.41461 4.52849 5.932L5.7131 7.52528C5.28791 6.95336 4.45818 6.85961 3.91443 7.34555C3.44033 7.76922 3.38654 8.49403 3.76591 9.0043C3.9608 9.26637 9.29666 16.443 9.59318 16.8418C10.2035 17.6626 11.0373 18.219 11.9477 18.4895C12.8043 18.7439 13.1538 19.4201 13.2539 19.5259L13.2951 19.5813C13.6378 20.0423 14.2894 20.1382 14.7504 19.7954L19.3622 16.3665C19.8197 16.0263 19.9148 15.3796 19.5747 14.9221Z" fill="#F4D44E"/>
<path d="M15.3997 3.32479C14.896 2.2637 14.1842 1.30628 13.3127 0.51784C13.1909 0.407683 13.1815 0.219637 13.2917 0.0978788C13.4019 -0.0239181 13.5899 -0.0333321 13.7117 0.0768632C14.6405 0.91698 15.3995 1.93764 15.937 3.06975C16.0074 3.21811 15.9442 3.39546 15.7959 3.46593C15.6482 3.536 15.4705 3.47378 15.3997 3.32479Z" fill="black"/>
<path d="M13.7352 3.78967C13.3841 3.12174 12.9292 2.50967 12.3898 1.98026C12.2726 1.86518 12.2709 1.67698 12.3859 1.55975C12.501 1.44253 12.6892 1.44085 12.8064 1.55585C13.3888 2.1276 13.8812 2.7894 14.2615 3.51299C14.338 3.65831 14.2821 3.83811 14.1367 3.91452C13.991 3.99108 13.8114 3.93475 13.7352 3.78967Z" fill="black"/>
<path d="M2.47675 13.078C1.54788 12.2377 0.789056 11.2174 0.251478 10.0851C0.18101 9.93677 0.244213 9.75942 0.392533 9.68895C0.540853 9.61852 0.718236 9.68173 0.788666 9.83005C1.29249 10.8912 2.00402 11.8484 2.87566 12.637C2.99745 12.7471 3.00687 12.9352 2.89667 13.0569C2.78691 13.1784 2.59886 13.1885 2.47675 13.078Z" fill="black"/>
<path d="M3.38393 11.5999C2.80128 11.028 2.30913 10.3663 1.92874 9.64278C1.85233 9.49743 1.90823 9.31767 2.05358 9.24122C2.19893 9.16485 2.3787 9.22071 2.45514 9.36603C2.80639 10.0342 3.2612 10.6461 3.8005 11.1755C3.91768 11.2905 3.91944 11.4788 3.8044 11.596C3.68956 11.7131 3.5012 11.715 3.38393 11.5999Z" fill="black"/>
<path d="M5.88395 3.66049C6.33419 4.266 9.90107 9.06334 9.78044 8.90108C9.97705 9.16549 10.3566 9.20768 10.6065 8.99295C10.8337 8.79768 10.8712 8.45998 10.6924 8.21955L7.51489 3.94596C7.51353 3.94416 7.51228 3.94245 7.51114 3.94088L7.50681 3.93502C7.50509 3.93272 7.50357 3.93065 7.50224 3.92885L7.49896 3.92448C7.49896 3.92448 7.49892 3.9244 7.49888 3.9244L6.88376 3.09713C6.55579 2.656 6.56977 2.06651 6.8786 1.64518C5.90372 1.58186 5.15969 2.686 5.88395 3.66049Z" fill="#E8C842"/>
<path d="M8.01922 10.6306C8.23016 10.9143 8.64165 10.9496 8.8979 10.7061C9.09727 10.5166 9.12375 10.2081 8.95965 9.9874C8.54379 9.4281 5.89489 5.8654 5.5779 5.43907C5.24766 4.99497 5.24712 4.38993 5.56243 3.96126C4.52321 3.90016 3.89563 5.08458 4.5252 5.93134C6.10505 8.05599 6.37528 8.41958 8.01922 10.6306Z" fill="#E8C842"/>
<path d="M14.3463 19.0883L14.3051 19.0329C14.205 18.927 13.8555 18.2509 12.9989 17.9964C12.0885 17.7259 11.2547 17.1695 10.6444 16.3488C10.3478 15.9499 5.01195 8.77333 4.8171 8.51126C4.48746 8.06786 4.48507 7.46259 4.80113 7.03348C3.765 6.97302 3.13175 8.15259 3.76441 9.00352C3.95929 9.26559 9.29519 16.4422 9.59167 16.841C10.202 17.6618 11.0358 18.2182 11.9462 18.4887C12.8028 18.7432 13.1523 19.4193 13.2524 19.5252L13.2936 19.5806C13.6364 20.0415 14.2879 20.1374 14.7489 19.7947L15.1362 19.5068C14.8343 19.4935 14.5407 19.3497 14.3463 19.0883Z" fill="#E8C842"/>
<path d="M9.48948 2.50145C9.48948 2.50145 9.48889 2.50063 9.48948 2.50145C9.161 2.05965 9.17557 1.46902 9.48577 1.04758C9.27128 1.0334 9.05268 1.07574 8.85284 1.18031L8.85276 1.18016C8.74905 1.23441 8.6551 1.30246 8.57471 1.37895C8.5746 1.37906 8.57444 1.37918 8.57428 1.37934H8.57432C8.14882 1.78395 8.06956 2.44223 8.39784 2.9382L8.43678 2.99375L11.9558 7.72664C12.1612 8.00301 12.5623 8.03711 12.8115 7.79934C13.0414 7.57996 13.07 7.22297 12.878 6.96981L9.48948 2.50145ZM9.15194 2.04746L9.13339 2.02254C9.13956 2.03078 9.14573 2.03914 9.15194 2.04746Z" fill="#E8C842"/>
<path d="M16.899 4.95142C16.8624 5.01783 16.5108 5.67064 16.2031 6.66045L16.2028 6.66017C16.0175 7.25623 15.8482 7.97455 15.7734 8.76103C16.0996 9.19451 16.7892 8.98365 16.8172 8.44189L16.8261 8.26877C17.025 6.17599 17.8931 4.56556 17.9516 4.45916C18.0549 4.27146 18.176 4.10248 18.3116 3.95912C17.727 3.95049 17.2251 4.35885 16.899 4.95142Z" fill="#E8C842"/>
</g>
<defs>
<clipPath id="clip0">
<rect width="20" height="20" fill="white"/>
</clipPath>
</defs>
</svg>
