<svg width="32" height="32" viewBox="0 0 32 32" fill="none" xmlns="http://www.w3.org/2000/svg">
<path d="M18.2335 3.75557L20.1879 4.27997L20.4031 6.61317L21.9279 7.49317L24.0563 6.51277L25.4871 7.94357L24.5067 10.072L25.3867 11.5968L27.7199 11.812L28.2435 13.7664L26.3311 15.12V16.88L28.2443 18.2332L27.7199 20.188L25.3867 20.4032L24.5067 21.928L25.4871 24.0564L24.0563 25.4872L21.9279 24.5068L20.4031 25.3868L20.1879 27.72L18.2335 28.2436L16.8799 26.3312H15.1199L13.7667 28.2444L11.8119 27.72L11.5967 25.3868L10.0719 24.5068L7.94354 25.4872L6.51275 24.0564L7.49314 21.928L6.61315 20.4032L4.27995 20.188L3.75555 18.2336L5.66875 16.88V15.12L3.75555 13.7664L4.27995 11.812L6.61315 11.5968L7.49314 10.072L6.51275 7.94357L7.94354 6.51277L10.0719 7.49317L11.5967 6.61317L11.8119 4.27997L13.7663 3.75637L15.1199 5.66877H16.8799L18.2331 3.75557H18.2335ZM18.2331 2.95557C18.1052 2.95556 17.9791 2.98625 17.8654 3.04506C17.7517 3.10387 17.6538 3.1891 17.5799 3.29357L16.4659 4.86877H15.5335L14.4195 3.29357C14.3252 3.16018 14.1922 3.05888 14.0385 3.00332C13.8848 2.94775 13.7178 2.94058 13.5599 2.98277L12.5831 3.24477L11.6059 3.50637C11.448 3.54869 11.3068 3.63839 11.2014 3.76341C11.096 3.88842 11.0314 4.04274 11.0163 4.20557L10.8391 6.12557L10.4343 6.35997L10.0303 6.59317L8.27994 5.78597C8.1315 5.71743 7.96561 5.69603 7.80463 5.72463C7.64364 5.75324 7.49529 5.83049 7.37955 5.94597L6.53275 6.79277L5.94915 7.37637C5.83366 7.49212 5.75641 7.64047 5.7278 7.80146C5.6992 7.96244 5.72061 8.12833 5.78915 8.27677L6.59635 10.0292L6.12675 10.84L4.20675 11.0172C4.04391 11.0322 3.88959 11.0968 3.76458 11.2022C3.63957 11.3076 3.54986 11.4488 3.50755 11.6068L3.34755 12.2068L2.98275 13.56C2.94038 13.718 2.94746 13.8851 3.00303 14.039C3.0586 14.1928 3.15999 14.3259 3.29355 14.4204L4.86875 15.5344V16.4672L3.29355 17.5804C3.16015 17.6748 3.05885 17.8077 3.00329 17.9614C2.94773 18.1151 2.94056 18.2821 2.98275 18.44L3.14275 19.04L3.50555 20.3944C3.54786 20.5523 3.63757 20.6935 3.76258 20.7989C3.88759 20.9044 4.04191 20.9689 4.20475 20.984L6.12475 21.1612L6.59115 21.9692L5.78395 23.7216C5.71541 23.87 5.694 24.0359 5.7226 24.1969C5.75121 24.3579 5.82846 24.5062 5.94395 24.622L6.52755 25.2056L7.37434 26.0524C7.49009 26.1679 7.63844 26.2451 7.79943 26.2737C7.96041 26.3023 8.1263 26.2809 8.27474 26.2124L10.0271 25.4052L10.4311 25.6384L10.8351 25.8716L11.0123 27.7916C11.0274 27.9544 11.092 28.1087 11.1974 28.2337C11.3028 28.3588 11.444 28.4485 11.6019 28.4908L12.8555 28.8268L13.5599 29.0172C13.7179 29.0595 13.8851 29.0525 14.0389 28.9969C14.1928 28.9413 14.3259 28.8399 14.4203 28.7064L15.5343 27.1312H16.4671L17.5811 28.7064C17.6755 28.8396 17.8083 28.9408 17.9618 28.9964C18.1153 29.0519 18.2822 29.0592 18.4399 29.0172L19.0799 28.846L20.3951 28.4936C20.5531 28.4513 20.6943 28.3616 20.7997 28.2365C20.9051 28.1115 20.9697 27.9572 20.9847 27.7944L21.1619 25.8744L21.5659 25.6412L21.9699 25.408L23.7223 26.2152C23.8708 26.2837 24.0367 26.3051 24.1977 26.2765C24.3586 26.2479 24.507 26.1707 24.6227 26.0552L25.4695 25.2084L26.0531 24.6248C26.1686 24.509 26.2459 24.3607 26.2745 24.1997C26.3031 24.0387 26.2817 23.8728 26.2131 23.7244L25.4059 21.972L25.5371 21.7452L25.8731 21.16L27.7931 20.9828C27.956 20.9677 28.1103 20.9032 28.2353 20.7977C28.3603 20.6923 28.45 20.5511 28.4923 20.3932L28.8563 19.04L29.0163 18.44C29.0587 18.282 29.0516 18.1148 28.9961 17.961C28.9405 17.8071 28.8391 17.674 28.7055 17.5796L27.1303 16.4656V15.5336L28.7055 14.4196C28.8391 14.3253 28.9405 14.1924 28.9962 14.0387C29.052 13.885 29.0592 13.7179 29.0171 13.56L28.6543 12.2056L28.4943 11.6056C28.452 11.4476 28.3623 11.3064 28.2373 11.201C28.1123 11.0956 27.958 11.031 27.7951 11.016L25.8751 10.8388L25.4087 10.0308L26.2139 8.27997C26.2825 8.13153 26.3039 7.96564 26.2753 7.80466C26.2467 7.64367 26.1694 7.49532 26.0539 7.37957L24.6235 5.94917C24.5078 5.83369 24.3594 5.75644 24.1985 5.72783C24.0375 5.69923 23.8716 5.72063 23.7231 5.78917L21.9707 6.59637L21.5655 6.35997L21.1599 6.12677L20.9827 4.20677C20.9677 4.04394 20.9031 3.88962 20.7977 3.76461C20.6923 3.63959 20.5511 3.54989 20.3931 3.50757L19.4163 3.24597L18.4399 2.98277C18.3724 2.96469 18.3027 2.95554 18.2327 2.95557H18.2331Z" fill="#283C7C"/>
<path d="M15.9999 24.2036C11.4763 24.2036 7.79633 20.5236 7.79633 16C7.79633 11.4764 11.4763 7.79637 15.9999 7.79637C20.5235 7.79637 24.2035 11.4764 24.2035 16C24.2035 20.5236 20.5235 24.2036 15.9999 24.2036ZM15.9999 8.59637C11.9175 8.59637 8.59633 11.9164 8.59633 16C8.59633 20.0836 11.9163 23.4036 15.9999 23.4036C20.0835 23.4036 23.4035 20.0836 23.4035 16C23.4035 11.9164 20.0823 8.59637 15.9999 8.59637Z" fill="#283C7C"/>
<path d="M14.4495 16.4172C14.4495 16.414 14.4475 16.4108 14.4467 16.4076L13.6559 13.9676C13.6523 13.9567 13.6479 13.9461 13.6427 13.936V13.9332C13.6268 13.9016 13.6036 13.8741 13.5751 13.8532C13.5444 13.831 13.5084 13.8172 13.4707 13.8132H13.4639H13.4571C13.4135 13.8104 13.37 13.8204 13.3319 13.842C13.3262 13.845 13.3207 13.8485 13.3155 13.8524L13.3119 13.8548C13.3075 13.8584 13.3027 13.8616 13.2987 13.8656L13.2939 13.8692L13.2799 13.88L13.2751 13.8852C13.2718 13.8887 13.2687 13.8924 13.2659 13.8964C13.264 13.8983 13.2622 13.9004 13.2607 13.9028L13.2531 13.9136L13.2479 13.922L13.2423 13.932C13.2423 13.9356 13.2387 13.9396 13.2367 13.9436L13.2331 13.9512C13.2311 13.9564 13.2291 13.962 13.2275 13.9672V13.9708V13.9736C13.2277 13.9743 13.2277 13.9752 13.2275 13.976L11.9411 18.12L12.3727 18.2536L12.8527 16.7068H14.0695L14.5719 18.2564L14.7871 18.1868L15.0023 18.1172L14.4495 16.4172ZM12.9915 16.2544L13.4459 14.7872L13.9199 16.2544H12.9915Z" fill="#283C7C"/>
<path d="M17.8159 14.0528C17.1887 13.5468 16.0923 13.7768 16.0463 13.7868C15.9958 13.7976 15.9505 13.8254 15.918 13.8656C15.8856 13.9058 15.8679 13.9559 15.8679 14.0076V18.274H16.3199V16.44C16.3475 16.44 16.3771 16.44 16.4079 16.44C16.7895 16.44 17.4047 16.3764 17.8167 16.0148C18.0967 15.7696 18.2363 15.4344 18.2363 15.0176C18.2363 14.6008 18.0947 14.28 17.8159 14.0528ZM17.5199 15.6772C17.1867 15.9712 16.6211 15.9972 16.3199 15.9888V14.2C16.6531 14.16 17.2171 14.1516 17.5319 14.4052C17.7015 14.5424 17.7843 14.744 17.7843 15.0212C17.7843 15.3048 17.6975 15.52 17.5199 15.6772Z" fill="#283C7C"/>
<path d="M19.2727 13.8128C19.2127 13.8128 19.1553 13.8366 19.1129 13.879C19.0705 13.9214 19.0467 13.9789 19.0467 14.0388V18.1868H19.4987V14.04C19.4988 14.0102 19.4931 13.9807 19.4818 13.9531C19.4705 13.9256 19.4539 13.9005 19.4329 13.8794C19.4119 13.8583 19.3869 13.8415 19.3594 13.8301C19.3319 13.8187 19.3025 13.8128 19.2727 13.8128Z" fill="#283C7C"/>
</svg>
