<svg width="30" height="30" viewBox="0 0 30 30" fill="none" xmlns="http://www.w3.org/2000/svg">
<path d="M28.3788 15C28.3788 13.8439 28.2315 12.7003 27.9403 11.5921L29.6337 10.3463L26.347 4.65363L24.4185 5.49855C22.7698 3.86156 20.7509 2.69502 18.5187 2.08957L18.2866 0H11.7132L11.4811 2.08957C9.24891 2.69502 7.23006 3.86156 5.58135 5.49855L3.65291 4.65363L0.366211 10.3463L2.05957 11.5921C1.76836 12.7003 1.62105 13.8439 1.62105 15C1.62105 16.1561 1.76842 17.2997 2.05957 18.4079L0.366211 19.6536L3.65291 25.3463L5.58135 24.5014C7.23012 26.1384 9.24896 27.305 11.4811 27.9104L11.7132 30H18.2866L18.5188 27.9104C20.751 27.305 22.7698 26.1384 24.4185 24.5014L26.347 25.3463L29.6337 19.6536L27.9403 18.4079C28.2315 17.2997 28.3788 16.1561 28.3788 15ZM17.523 26.3457L16.9089 26.4816L16.7133 28.2422H13.2866L13.091 26.4816L12.4768 26.3457C10.1484 25.8304 8.05992 24.6237 6.43734 22.8561L6.01254 22.3934L4.38855 23.1049L2.67521 20.1373L4.10051 19.0888L3.91207 18.4895C3.55828 17.3641 3.37887 16.19 3.37887 15C3.37887 13.8099 3.55828 12.6359 3.91207 11.5105L4.10051 10.9112L2.67521 9.86273L4.38855 6.89514L6.01254 7.60664L6.43734 7.14387C8.05992 5.37633 10.1484 4.16965 12.4768 3.65432L13.091 3.51838L13.2866 1.75781H16.7133L16.9089 3.51838L17.523 3.65432C19.8515 4.16971 21.94 5.37639 23.5625 7.14387L23.9873 7.60664L25.6113 6.89514L27.3247 9.86273L25.8994 10.9112L26.0878 11.5105C26.4416 12.6359 26.621 13.81 26.621 15C26.621 16.19 26.4417 17.3641 26.0878 18.4895L25.8994 19.0888L27.3247 20.1373L25.6113 23.1049L23.9873 22.3934L23.5625 22.8561C21.94 24.6237 19.8516 25.8304 17.523 26.3457Z" fill="#283C7C"/>
<path d="M11.5105 12.9879L10.2547 11.7581L7.04004 15.0404L10.3225 18.255L11.5523 16.9991L9.52582 15.0145L11.5105 12.9879Z" fill="#283C7C"/>
<path d="M18.4891 12.9879L20.4738 15.0145L18.4473 16.9991L19.6771 18.255L22.9596 15.0404L19.7449 11.7581L18.4891 12.9879Z" fill="#283C7C"/>
<path d="M12.8965 20.7524L15.3964 8.87199L17.1173 9.23411L14.6174 21.1146L12.8965 20.7524Z" fill="#283C7C"/>
</svg>
