<svg width="10" height="10" viewBox="0 0 10 10" fill="none" xmlns="http://www.w3.org/2000/svg">
<g clip-path="url(#clip0)">
<path d="M6.77548 2.92253L6.36076 2.50779L2.91279 5.95566C2.48615 6.38228 2.48615 7.07646 2.91279 7.50312C3.11921 7.70959 3.394 7.82326 3.68654 7.82326C3.97908 7.82326 4.25386 7.70957 4.46031 7.50312L9.09095 2.87238C9.74718 2.21609 9.74718 1.14832 9.09095 0.492065C8.4347 -0.164185 7.36691 -0.164185 6.71066 0.492065L1.08042 6.1223C0.194546 7.00818 0.194546 8.4496 1.08042 9.3355C1.52337 9.77843 2.10521 9.9999 2.68705 9.9999C3.26888 9.9999 3.85072 9.77845 4.29363 9.3355L8.74105 4.88808L8.32632 4.47333L3.8789 8.92076C3.22169 9.57792 2.15234 9.57792 1.49517 8.92076C0.837983 8.26355 0.837983 7.19421 1.49517 6.53703L7.12537 0.906831C7.55292 0.479292 8.24865 0.479292 8.6762 0.906831C9.10376 1.33439 9.10374 2.03009 8.6762 2.45767L4.04552 7.08841C3.94986 7.18408 3.82236 7.23677 3.68652 7.23677C3.55068 7.23677 3.42316 7.18408 3.32753 7.08841C3.12958 6.89044 3.12958 6.56834 3.32753 6.37039L6.77548 2.92253Z" fill="black"/>
</g>
<defs>
<clipPath id="clip0">
<rect width="10" height="10" fill="white"/>
</clipPath>
</defs>
</svg>
