<svg width="32" height="32" viewBox="0 0 32 32" fill="none" xmlns="http://www.w3.org/2000/svg">
<path d="M14.452 6.25C14.173 6.24992 13.9003 6.33257 13.6683 6.4875C13.4363 6.64243 13.2555 6.86267 13.1487 7.12038C13.0419 7.37809 13.0139 7.66169 13.0683 7.9353C13.1226 8.20892 13.2569 8.46027 13.4542 8.65755C13.6514 8.85484 13.9027 8.98921 14.1763 9.04366C14.4499 9.09811 14.7335 9.07021 14.9912 8.96347C15.249 8.85673 15.4693 8.67596 15.6242 8.44401C15.7792 8.21206 15.862 7.93936 15.862 7.66039C15.8617 7.2865 15.713 6.92801 15.4487 6.66359C15.1843 6.39917 14.8259 6.25042 14.452 6.25ZM14.452 8.27039C14.3312 8.27047 14.2132 8.23473 14.1127 8.16769C14.0123 8.10065 13.934 8.00532 13.8877 7.89377C13.8415 7.78222 13.8294 7.65945 13.8529 7.54101C13.8764 7.42257 13.9346 7.31377 14.02 7.22838C14.1054 7.14299 14.2142 7.08485 14.3326 7.06131C14.451 7.03777 14.5738 7.04989 14.6854 7.09614C14.7969 7.14239 14.8922 7.22069 14.9593 7.32113C15.0263 7.42157 15.0621 7.53964 15.062 7.66039C15.0618 7.82211 14.9974 7.97714 14.8831 8.09149C14.7687 8.20585 14.6137 8.27018 14.452 8.27039Z" fill="#283C7C"/>
<path d="M26.2029 22.0176H21.1229C21.0168 22.0176 20.9151 22.0597 20.8401 22.1348C20.765 22.2098 20.7229 22.3115 20.7229 22.4176C20.7229 22.5237 20.765 22.6254 20.8401 22.7004C20.9151 22.7755 21.0168 22.8176 21.1229 22.8176H26.2029C26.309 22.8176 26.4107 22.7755 26.4857 22.7004C26.5608 22.6254 26.6029 22.5237 26.6029 22.4176C26.6029 22.3115 26.5608 22.2098 26.4857 22.1348C26.4107 22.0597 26.309 22.0176 26.2029 22.0176Z" fill="#283C7C"/>
<path d="M26.2029 24.16H21.1229C21.0168 24.16 20.9151 24.2021 20.8401 24.2772C20.765 24.3522 20.7229 24.4539 20.7229 24.56C20.7229 24.6661 20.765 24.7678 20.8401 24.8428C20.9151 24.9178 21.0168 24.96 21.1229 24.96H26.2029C26.309 24.96 26.4107 24.9178 26.4857 24.8428C26.5608 24.7678 26.6029 24.6661 26.6029 24.56C26.6029 24.4539 26.5608 24.3522 26.4857 24.2772C26.4107 24.2021 26.309 24.16 26.2029 24.16Z" fill="#283C7C"/>
<path d="M26.2029 17.8221H21.1229C21.0168 17.8221 20.9151 17.8642 20.8401 17.9392C20.765 18.0142 20.7229 18.116 20.7229 18.222C20.7229 18.3281 20.765 18.4299 20.8401 18.5049C20.9151 18.5799 21.0168 18.622 21.1229 18.622H26.2029C26.309 18.622 26.4107 18.5799 26.4857 18.5049C26.5608 18.4299 26.6029 18.3281 26.6029 18.222C26.6029 18.116 26.5608 18.0142 26.4857 17.9392C26.4107 17.8642 26.309 17.8221 26.2029 17.8221Z" fill="#283C7C"/>
<path d="M26.2029 20.0612H21.1229C21.0168 20.0612 20.9151 20.1034 20.8401 20.1784C20.765 20.2534 20.7229 20.3551 20.7229 20.4612C20.7229 20.5673 20.765 20.669 20.8401 20.744C20.9151 20.819 21.0168 20.8612 21.1229 20.8612H26.2029C26.309 20.8612 26.4107 20.819 26.4857 20.744C26.5608 20.669 26.6029 20.5673 26.6029 20.4612C26.6029 20.3551 26.5608 20.2534 26.4857 20.1784C26.4107 20.1034 26.309 20.0612 26.2029 20.0612Z" fill="#283C7C"/>
<path d="M27.1333 15.5668H22.6801V11.4332C22.68 11.4106 22.6778 11.3882 22.6737 11.366H24.6033C24.8027 11.3659 24.9963 11.2989 25.153 11.1757C25.3097 11.0524 25.4205 10.8801 25.4675 10.6863C25.5146 10.4926 25.4952 10.2887 25.4124 10.1072C25.3297 9.92584 25.1884 9.77749 25.0113 9.68599L14.8613 4.44599C14.7351 4.38095 14.5952 4.34702 14.4533 4.34702C14.3113 4.34702 14.1714 4.38095 14.0453 4.44599L3.89528 9.68599C3.71813 9.77749 3.57686 9.92584 3.49412 10.1072C3.41139 10.2887 3.39199 10.4926 3.43905 10.6863C3.4861 10.8801 3.59687 11.0524 3.7536 11.1757C3.91032 11.2989 4.1039 11.3659 4.30328 11.366H6.23288C6.22873 11.3882 6.22659 11.4106 6.22648 11.4332V20.902C6.22657 20.9247 6.22871 20.9473 6.23288 20.9696H5.58888C5.4828 20.9696 5.38105 21.0117 5.30604 21.0868C5.23102 21.1618 5.18888 21.2635 5.18888 21.3696V22.2772H3.81168C3.7056 22.2772 3.60385 22.3193 3.52884 22.3944C3.45382 22.4694 3.41168 22.5711 3.41168 22.6772V23.9848C3.41168 24.0909 3.45382 24.1926 3.52884 24.2676C3.60385 24.3427 3.7056 24.3848 3.81168 24.3848L18.7361 24.312V26.2C18.7365 26.5858 18.89 26.9557 19.1628 27.2285C19.4356 27.5013 19.8055 27.6548 20.1913 27.6552H27.1313C27.5174 27.6553 27.8878 27.5021 28.1611 27.2292C28.4343 26.9563 28.5881 26.5862 28.5885 26.2V17.022C28.5881 16.6362 28.4346 16.2663 28.1618 15.9935C27.889 15.7207 27.5191 15.5672 27.1333 15.5668ZM21.8801 11.4332V15.5668H21.2529V11.4332C21.2527 11.4107 21.2507 11.3882 21.2469 11.366H21.8869C21.8828 11.3882 21.8805 11.4106 21.8801 11.4332ZM4.21528 10.4976C4.20843 10.4782 4.20935 10.4568 4.21785 10.438C4.22634 10.4193 4.24176 10.4045 4.26088 10.3968L14.4109 5.15679C14.4236 5.15023 14.4378 5.14681 14.4521 5.14681C14.4664 5.14681 14.4805 5.15023 14.4933 5.15679L24.6433 10.3968C24.661 10.406 24.6752 10.4208 24.6836 10.439C24.6919 10.4571 24.694 10.4776 24.6894 10.497C24.6848 10.5165 24.6738 10.5338 24.6582 10.5463C24.6426 10.5588 24.6233 10.5657 24.6033 10.566H4.30208C4.28159 10.5679 4.26114 10.5619 4.24497 10.5492C4.22881 10.5365 4.21817 10.518 4.21528 10.4976ZM17.0089 20.9696H16.3689C16.3731 20.9473 16.3752 20.9247 16.3753 20.902V11.4332C16.3752 11.4106 16.373 11.3882 16.3689 11.366H17.0089C17.0051 11.3882 17.0031 11.4107 17.0029 11.4332V20.902C17.003 20.9247 17.005 20.9473 17.0089 20.9696ZM8.44528 11.366H10.7073C10.7035 11.3882 10.7015 11.4107 10.7013 11.4332V20.902C10.7014 20.9247 10.7034 20.9473 10.7073 20.9696H8.44528C8.44912 20.9473 8.45113 20.9247 8.45128 20.902V11.4332C8.45111 11.4107 8.4491 11.3882 8.44528 11.366ZM11.4953 11.366H12.1333C12.1293 11.3882 12.1273 11.4107 12.1273 11.4332V20.902C12.1272 20.9247 12.1292 20.9473 12.1333 20.9696H11.4953C11.4991 20.9473 11.5011 20.9247 11.5013 20.902V11.4332C11.5011 11.4107 11.4991 11.3882 11.4953 11.366ZM12.9209 11.366H15.5833C15.5795 11.3882 15.5775 11.4107 15.5773 11.4332V20.902C15.5774 20.9247 15.5794 20.9473 15.5833 20.9696H12.9201C12.9243 20.9473 12.9264 20.9247 12.9265 20.902V11.4332C12.9264 11.4106 12.9242 11.3882 12.9201 11.366H12.9209ZM7.01928 11.366H7.65928C7.65546 11.3882 7.65346 11.4107 7.65328 11.4332V20.902C7.65344 20.9247 7.65545 20.9473 7.65928 20.9696H7.01928C7.02332 20.9473 7.02532 20.9247 7.02528 20.902V11.4332C7.02531 11.4107 7.0233 11.3882 7.01928 11.366ZM4.21168 23.5828V23.0772H5.58888C5.69497 23.0772 5.79671 23.0351 5.87172 22.96C5.94674 22.885 5.98888 22.7833 5.98888 22.6772V21.7696H18.7381V23.512L4.21168 23.5828ZM18.7381 17.0228V20.9704H17.7969C17.8007 20.9481 17.8027 20.9255 17.8029 20.9028V11.4332C17.8027 11.4107 17.8007 11.3882 17.7969 11.366H20.4589C20.4551 11.3882 20.4531 11.4107 20.4529 11.4332V15.5668H20.1933C19.8075 15.5672 19.4376 15.7207 19.1648 15.9935C18.892 16.2663 18.7385 16.6362 18.7381 17.022V17.0228ZM27.7885 26.2C27.7883 26.3737 27.7192 26.5402 27.5963 26.6631C27.4735 26.7859 27.307 26.855 27.1333 26.8552H20.1933C20.0196 26.855 19.8531 26.7859 19.7302 26.6631C19.6074 26.5402 19.5383 26.3737 19.5381 26.2V17.022C19.5383 16.8483 19.6074 16.6818 19.7302 16.5589C19.8531 16.4361 20.0196 16.367 20.1933 16.3668H27.1333C27.307 16.367 27.4735 16.4361 27.5963 16.5589C27.7192 16.6818 27.7883 16.8483 27.7885 17.022V26.2Z" fill="#283C7C"/>
</svg>
