<svg width="15" height="10" viewBox="0 0 15 10" fill="none" xmlns="http://www.w3.org/2000/svg">
<g clip-path="url(#clip0)">
<path d="M14.3119 9.08887H0.681687C0.3051 9.08887 0 9.29227 0 9.54354C0 9.79437 0.3051 9.99779 0.681687 9.99779H14.3116C14.6882 9.99779 14.9933 9.79437 14.9933 9.54354C14.993 9.29227 14.6879 9.08887 14.3119 9.08887Z" fill="black"/>
<path d="M1.53349 7.90731C1.15691 7.90731 0.851807 8.11071 0.851807 8.36179C0.851807 8.61284 1.15691 8.81646 1.53349 8.81646H13.4598C13.8364 8.81646 14.1415 8.61284 14.1415 8.36179C14.1415 8.11071 13.8364 7.90731 13.4598 7.90731H13.2897V3.81804H13.4598C13.6484 3.81804 13.8003 3.71634 13.8003 3.59104C13.8003 3.46571 13.6478 3.36401 13.4598 3.36401H1.53349C1.3452 3.36401 1.19297 3.46571 1.19297 3.59104C1.19297 3.71634 1.34552 3.81804 1.53349 3.81804H1.70391V7.90711H1.53349V7.90731ZM11.9263 3.81804V7.90711H9.88192V3.81804H11.9263ZM8.51855 3.81804V7.90711H6.47412V3.81804H8.51855ZM3.06665 3.81804H5.11107V7.90711H3.06665V3.81804Z" fill="black"/>
<path d="M0.6817 2.95548H14.3116C14.3138 2.95548 14.3164 2.95548 14.3183 2.95548C14.6952 2.95548 15 2.75207 15 2.501C15 2.30143 14.8073 2.13229 14.5395 2.07101L7.77688 0.0423342C7.5991 -0.0108562 7.39582 -0.0108562 7.21772 0.0423342L0.402132 2.08676C0.10884 2.17484 -0.0523263 2.38718 0.0153317 2.59652C0.0826707 2.8059 0.360325 2.95548 0.6817 2.95548Z" fill="black"/>
</g>
<defs>
<clipPath id="clip0">
<rect width="15" height="10" fill="white"/>
</clipPath>
</defs>
</svg>
