<svg width="20" height="20" viewBox="0 0 20 20" fill="none" xmlns="http://www.w3.org/2000/svg">
<path d="M15.0108 10.7282C14.7951 10.7282 14.6202 10.5533 14.6202 10.3376V8.06909H14.4424C14.2267 8.06909 14.0518 7.89417 14.0518 7.67847C14.0518 7.46276 14.2267 7.28784 14.4424 7.28784H15.0108C15.2265 7.28784 15.4014 7.46276 15.4014 7.67847V10.3376C15.4014 10.5533 15.2265 10.7282 15.0108 10.7282Z" fill="#C10707"/>
<path d="M9.19772 14.9242C9.03178 14.9242 8.8819 14.8153 8.82811 14.659C8.77424 14.5025 8.82944 14.3245 8.95998 14.2236C9.08569 14.1265 9.26248 14.1177 9.39846 14.1987C9.53861 14.2821 9.61224 14.4501 9.58053 14.6097C9.54471 14.7901 9.38166 14.9242 9.19772 14.9242Z" fill="#BABABA"/>
<path d="M18.9081 8.8518C18.9081 6.58895 17.0675 4.74801 14.8051 4.74801C14.5582 4.74801 14.3162 4.76996 14.0811 4.81199C13.582 4.04199 12.9043 3.3957 12.1102 2.93457C11.6939 2.69281 11.2495 2.50477 10.7886 2.37352V1.59844C10.7886 0.71707 10.0715 0 9.19012 0C8.30875 0 7.59168 0.717031 7.59168 1.59844V2.37348C5.15406 3.07039 3.36445 5.32004 3.36445 7.98008V9.75676C3.36445 10.9028 3.22594 12.0481 2.95273 13.1609L2.71152 14.1434C1.81504 14.1661 1.09277 14.9025 1.09277 15.8052C1.09277 16.7214 1.83809 17.4667 2.75422 17.4667H6.76895V17.5788C6.76895 18.9138 7.85508 20 9.19016 20C10.5252 20 11.6114 18.9138 11.6114 17.5788V17.4667H15.6261C16.5421 17.4667 17.2875 16.7214 17.2875 15.8043C17.2875 14.9024 16.5652 14.1661 15.6688 14.1434L15.4275 13.1609C15.4077 13.0801 15.3884 12.9986 15.3699 12.9168C17.366 12.6408 18.9081 10.923 18.9081 8.8518ZM8.37293 1.59844C8.37293 1.14785 8.73953 0.78125 9.19012 0.78125C9.6407 0.78125 10.0073 1.14785 10.0073 1.59844V2.20789C9.73754 2.16977 9.46445 2.15039 9.19012 2.15039C8.91281 2.15039 8.64 2.16988 8.37293 2.20758V1.59844ZM10.8301 17.5788C10.8301 18.4831 10.0944 19.2188 9.19016 19.2188C8.2859 19.2188 7.5502 18.4831 7.5502 17.5788V17.4667H10.8301V17.5788ZM16.5062 15.8052C16.5062 16.2906 16.1114 16.6854 15.6261 16.6854H2.75418C2.26883 16.6854 1.87398 16.2906 1.87398 15.8043C1.87398 15.3189 2.26883 14.9241 2.75418 14.9241H3.01098C3.0134 14.9241 3.01586 14.9242 3.01828 14.9242C3.02066 14.9242 3.02301 14.9241 3.02539 14.9241H7.42426C7.64 14.9241 7.81488 14.7492 7.81488 14.5335C7.81488 14.3178 7.64 14.1429 7.42426 14.1429H3.51609L3.71141 13.3473C3.99957 12.1735 4.1457 10.9655 4.1457 9.75676V7.98008C4.1457 5.19633 6.40863 2.93164 9.19012 2.93164C10.8138 2.93164 12.348 3.7291 13.2896 5.03813C11.7751 5.6423 10.7021 7.12406 10.7021 8.85184C10.7021 11.038 12.4202 12.8304 14.5768 12.9493C14.6057 13.0827 14.6365 13.2158 14.6688 13.3473L14.8641 14.1429H10.956C10.7403 14.1429 10.5654 14.3178 10.5654 14.5335C10.5654 14.7493 10.7403 14.9241 10.956 14.9241H15.3548C15.3572 14.9242 15.3596 14.9242 15.362 14.9242C15.3644 14.9242 15.3668 14.9242 15.3692 14.9241H15.626C16.1114 14.9241 16.5062 15.319 16.5062 15.8052ZM14.8051 12.1743C12.9735 12.1743 11.4834 10.6839 11.4834 8.8518C11.4834 7.01977 12.9735 5.52926 14.8051 5.52926C16.6367 5.52926 18.1268 7.01973 18.1268 8.8518C18.1268 10.6839 16.6367 12.1743 14.8051 12.1743Z" fill="#BABABA"/>
</svg>
