<svg width="32" height="32" viewBox="0 0 32 32" fill="none" xmlns="http://www.w3.org/2000/svg">
<path d="M23.5924 23.9424H18.5124C18.4063 23.9424 18.3045 23.9845 18.2295 24.0595C18.1545 24.1346 18.1124 24.2363 18.1124 24.3424C18.1124 24.4485 18.1545 24.5502 18.2295 24.6252C18.3045 24.7002 18.4063 24.7424 18.5124 24.7424H23.5924C23.6985 24.7424 23.8002 24.7002 23.8752 24.6252C23.9502 24.5502 23.9924 24.4485 23.9924 24.3424C23.9924 24.2363 23.9502 24.1346 23.8752 24.0595C23.8002 23.9845 23.6985 23.9424 23.5924 23.9424Z" fill="#283C7C"/>
<path d="M23.5924 26.084H18.5124C18.4063 26.084 18.3045 26.1261 18.2295 26.2012C18.1545 26.2762 18.1124 26.3779 18.1124 26.484C18.1124 26.5901 18.1545 26.6918 18.2295 26.7668C18.3045 26.8419 18.4063 26.884 18.5124 26.884H23.5924C23.6985 26.884 23.8002 26.8419 23.8752 26.7668C23.9502 26.6918 23.9924 26.5901 23.9924 26.484C23.9924 26.3779 23.9502 26.2762 23.8752 26.2012C23.8002 26.1261 23.6985 26.084 23.5924 26.084Z" fill="#283C7C"/>
<path d="M23.5924 19.7464H18.5124C18.4063 19.7464 18.3045 19.7885 18.2295 19.8635C18.1545 19.9386 18.1124 20.0403 18.1124 20.1464C18.1124 20.2525 18.1545 20.3542 18.2295 20.4293C18.3045 20.5043 18.4063 20.5464 18.5124 20.5464H23.5924C23.6985 20.5464 23.8002 20.5043 23.8752 20.4293C23.9502 20.3542 23.9924 20.2525 23.9924 20.1464C23.9924 20.0403 23.9502 19.9386 23.8752 19.8635C23.8002 19.7885 23.6985 19.7464 23.5924 19.7464Z" fill="#283C7C"/>
<path d="M23.5924 21.9856H18.5124C18.4063 21.9856 18.3045 22.0278 18.2295 22.1028C18.1545 22.1778 18.1124 22.2795 18.1124 22.3856C18.1124 22.4917 18.1545 22.5935 18.2295 22.6685C18.3045 22.7435 18.4063 22.7856 18.5124 22.7856H23.5924C23.6985 22.7856 23.8002 22.7435 23.8752 22.6685C23.9502 22.5935 23.9924 22.4917 23.9924 22.3856C23.9924 22.2795 23.9502 22.1778 23.8752 22.1028C23.8002 22.0278 23.6985 21.9856 23.5924 21.9856Z" fill="#283C7C"/>
<path d="M24.5227 17.4916H21.4527V12.5016L21.3427 2.23241L12.2799 5.85201V9.15441L6.02191 11.8628V26.6968H16.1275V28.1244C16.1279 28.5102 16.2814 28.8801 16.5542 29.1529C16.827 29.4257 17.1969 29.5792 17.5827 29.5796H24.5227C24.9085 29.5792 25.2784 29.4257 25.5512 29.1529C25.824 28.8801 25.9775 28.5102 25.9779 28.1244V18.9468C25.9775 18.561 25.824 18.1911 25.5512 17.9183C25.2784 17.6455 24.9085 17.492 24.5227 17.4916ZM16.4539 6.37161V17.8916C16.4538 17.9313 16.4597 17.9709 16.4715 18.0088C16.2492 18.2708 16.1273 18.6032 16.1275 18.9468V25.8968H6.82191V12.3884L12.2763 10.0284L12.2935 25.89H13.0935L13.0759 9.68001H13.0787V6.39361L20.5551 3.40841L20.6527 12.504V17.4916H19.3539V5.44001C19.3539 5.33392 19.3118 5.23218 19.2368 5.15716C19.1617 5.08215 19.06 5.04001 18.9539 5.04001C18.8478 5.04001 18.7461 5.08215 18.6711 5.15716C18.5961 5.23218 18.5539 5.33392 18.5539 5.44001V17.4916H17.5827C17.472 17.4916 17.3617 17.5043 17.2539 17.5296V6.36961C17.2539 6.26352 17.2118 6.16178 17.1368 6.08676C17.0617 6.01175 16.96 5.96961 16.8539 5.96961C16.7478 5.96961 16.6461 6.01175 16.5711 6.08676C16.4961 6.16178 16.4539 6.26352 16.4539 6.36961V6.37161ZM25.1779 28.1248C25.1777 28.2985 25.1086 28.465 24.9858 28.5879C24.8629 28.7107 24.6964 28.7798 24.5227 28.78H17.5827C17.409 28.7798 17.2425 28.7107 17.1196 28.5879C16.9968 28.465 16.9277 28.2985 16.9275 28.1248V18.9468C16.9277 18.7731 16.9968 18.6066 17.1196 18.4837C17.2425 18.3609 17.409 18.2918 17.5827 18.2916H24.5227C24.6964 18.2918 24.8629 18.3609 24.9858 18.4837C25.1086 18.6066 25.1777 18.7731 25.1779 18.9468V28.1248Z" fill="#283C7C"/>
<path d="M8.51511 13.0684C8.40903 13.0684 8.30728 13.1105 8.23227 13.1855C8.15725 13.2606 8.11511 13.3623 8.11511 13.4684V24.5848C8.11511 24.6909 8.15725 24.7926 8.23227 24.8676C8.30728 24.9426 8.40903 24.9848 8.51511 24.9848C8.6212 24.9848 8.72294 24.9426 8.79796 24.8676C8.87297 24.7926 8.91511 24.6909 8.91511 24.5848V13.4684C8.91511 13.3623 8.87297 13.2606 8.79796 13.1855C8.72294 13.1105 8.6212 13.0684 8.51511 13.0684Z" fill="#283C7C"/>
<path d="M14.7667 7.08318C14.6606 7.08318 14.5589 7.12532 14.4839 7.20033C14.4088 7.27535 14.3667 7.37709 14.3667 7.48318V24.5848C14.3667 24.6909 14.4088 24.7926 14.4839 24.8676C14.5589 24.9426 14.6606 24.9848 14.7667 24.9848C14.8728 24.9848 14.9745 24.9426 15.0495 24.8676C15.1246 24.7926 15.1667 24.6909 15.1667 24.5848V7.48318C15.1667 7.37709 15.1246 7.27535 15.0495 7.20033C14.9745 7.12532 14.8728 7.08318 14.7667 7.08318Z" fill="#283C7C"/>
<path d="M10.5974 12.0844C10.4914 12.0844 10.3896 12.1266 10.3146 12.2016C10.2396 12.2766 10.1974 12.3783 10.1974 12.4844V24.5848C10.1974 24.6909 10.2396 24.7926 10.3146 24.8677C10.3896 24.9427 10.4914 24.9848 10.5974 24.9848C10.7035 24.9848 10.8053 24.9427 10.8803 24.8677C10.9553 24.7926 10.9974 24.6909 10.9974 24.5848V12.4844C10.9974 12.3783 10.9553 12.2766 10.8803 12.2016C10.8053 12.1266 10.7035 12.0844 10.5974 12.0844Z" fill="#283C7C"/>
</svg>
