<svg width="108" height="104" viewBox="0 0 108 104" fill="none" xmlns="http://www.w3.org/2000/svg">
<path d="M82.1544 94.364C91.9381 87.4001 99.0099 77.2644 102.169 65.6783C105.328 54.0921 104.379 41.7697 99.4838 30.8037L52 52L82.1544 94.364Z" fill="#0DB450"/>
<circle cx="52" cy="52" r="50" fill="#E7F3FF"/>
<circle cx="100.5" cy="29.5" r="7" fill="#0DB450" stroke="white"/>
<path d="M98 28.8646L99.8333 31.4751L103 27" stroke="white" stroke-width="2" stroke-linecap="round" stroke-linejoin="round"/>
<path d="M74.702 70.8381H73.8688V49.1093C75.7502 47.8986 77 45.7876 77 43.3888C77 43.2613 76.9667 43.136 76.9035 43.0254L71.0917 32.8547C70.6835 32.1405 69.9189 31.6968 69.0964 31.6968H34.9036C34.0811 31.6968 33.3165 32.1404 32.9083 32.8547L27.0965 43.0254C27.0333 43.136 27 43.2614 27 43.3888C27 45.7876 28.2498 47.8986 30.1312 49.1093V70.8381H29.298C28.8936 70.8381 28.5656 71.166 28.5656 71.5705C28.5656 71.975 28.8936 72.3029 29.298 72.3029H74.702C75.1065 72.3029 75.4344 71.975 75.4344 71.5705C75.4344 71.166 75.1064 70.8381 74.702 70.8381ZM28.5153 44.1212H30.8634C31.2679 44.1212 31.5958 43.7933 31.5958 43.3888C31.5958 42.9843 31.2679 42.6563 30.8634 42.6563H28.9945L34.1802 33.5814C34.3282 33.3225 34.6054 33.1616 34.9036 33.1616H69.0964C69.3946 33.1616 69.6719 33.3225 69.8198 33.5814L75.0054 42.6563H73.1361C72.7315 42.6563 72.4037 42.9843 72.4037 43.3888C72.4037 43.7933 72.7315 44.1212 73.1361 44.1212H75.4846C75.1265 46.7173 72.8936 48.7232 70.2006 48.7232C67.5077 48.7232 65.2759 46.7171 64.9177 44.1212H70.0052C70.4098 44.1212 70.7376 43.7933 70.7376 43.3888C70.7376 42.9843 70.4098 42.6563 70.0052 42.6563H33.9952C33.5907 42.6563 33.2628 42.9843 33.2628 43.3888C33.2628 43.7933 33.5907 44.1212 33.9952 44.1212H39.0822C38.724 46.7171 36.4921 48.7232 33.7993 48.7232C31.1063 48.7232 28.8734 46.7173 28.5153 44.1212ZM63.3498 44.1212C62.9916 46.7171 60.7597 48.7232 58.0669 48.7232C55.374 48.7232 53.1422 46.7171 52.784 44.1212H63.3498ZM51.216 44.1212C50.8578 46.7171 48.6259 48.7232 45.9331 48.7232C43.2403 48.7232 41.0084 46.7171 40.6502 44.1212H51.216ZM68.4896 70.8382H60.5606V68.3889H68.4896V70.8382ZM68.4896 66.924H60.5606V53.5151H68.4896V66.924ZM72.4039 70.8382H69.9546V52.7827C69.9546 52.3782 69.6268 52.0503 69.2222 52.0503H59.8283C59.4237 52.0503 59.0959 52.3782 59.0959 52.7827V70.8381H31.5961V49.8196C32.2876 50.0572 33.0282 50.1881 33.7993 50.1881C36.4453 50.1881 38.7431 48.6689 39.8662 46.4569C40.9894 48.6688 43.2871 50.1881 45.9331 50.1881C48.5791 50.1881 50.8769 48.6689 52 46.4569C53.1231 48.6688 55.4209 50.1881 58.0669 50.1881C60.7129 50.1881 63.0106 48.6689 64.1338 46.4569C65.2569 48.6688 67.5547 50.1881 70.2007 50.1881C70.9718 50.1881 71.7124 50.0572 72.4039 49.8197V70.8382Z" fill="#283C7C"/>
<path d="M55.9146 52.0503H34.7783C34.3738 52.0503 34.0459 52.3782 34.0459 52.7827V67.6564C34.0459 68.0609 34.3738 68.3889 34.7783 68.3889H55.9146C56.3192 68.3889 56.6471 68.0609 56.6471 67.6564V52.7827C56.6471 52.3781 56.3192 52.0503 55.9146 52.0503ZM55.1822 66.924H35.5107V53.5151H55.1822V66.924Z" fill="#283C7C"/>
</svg>
