<svg width="123" height="158" viewBox="0 0 123 158" fill="none" xmlns="http://www.w3.org/2000/svg">
<g clip-path="url(#clip0)">
<path d="M94.8105 132.09C94.5453 132.09 94.291 131.985 94.1034 131.797C93.9159 131.61 93.8105 131.355 93.8105 131.09V61.63C93.8105 61.3648 93.9159 61.1104 94.1034 60.9229C94.291 60.7354 94.5453 60.63 94.8105 60.63C95.0758 60.63 95.3301 60.7354 95.5177 60.9229C95.7052 61.1104 95.8105 61.3648 95.8105 61.63V131.09C95.8105 131.355 95.7052 131.61 95.5177 131.797C95.3301 131.985 95.0758 132.09 94.8105 132.09Z" fill="black"/>
<path d="M108.811 132.09C108.545 132.09 108.291 131.985 108.103 131.797C107.916 131.61 107.811 131.355 107.811 131.09V71.49C107.811 71.2248 107.916 70.9704 108.103 70.7829C108.291 70.5953 108.545 70.49 108.811 70.49C109.076 70.49 109.33 70.5953 109.518 70.7829C109.705 70.9704 109.811 71.2248 109.811 71.49V131.09C109.811 131.355 109.705 131.61 109.518 131.797C109.33 131.985 109.076 132.09 108.811 132.09Z" fill="black"/>
<path d="M24 132.09C23.7348 132.09 23.4804 131.985 23.2929 131.797C23.1054 131.61 23 131.355 23 131.09V48.83C23 48.5647 23.1054 48.3104 23.2929 48.1228C23.4804 47.9353 23.7348 47.83 24 47.83C24.2652 47.83 24.5196 47.9353 24.7071 48.1228C24.8946 48.3104 25 48.5647 25 48.83V131.09C25 131.355 24.8946 131.61 24.7071 131.797C24.5196 131.985 24.2652 132.09 24 132.09Z" fill="black"/>
<path d="M10 132.09C9.73478 132.09 9.48043 131.985 9.29289 131.797C9.10536 131.61 9 131.355 9 131.09V60.5C9 60.2348 9.10536 59.9804 9.29289 59.7929C9.48043 59.6054 9.73478 59.5 10 59.5C10.2652 59.5 10.5196 59.6054 10.7071 59.7929C10.8946 59.9804 11 60.2348 11 60.5V131.09C11 131.355 10.8946 131.61 10.7071 131.797C10.5196 131.985 10.2652 132.09 10 132.09Z" fill="black"/>
<path d="M73 109C72.7348 109 72.4804 108.895 72.2929 108.707C72.1054 108.52 72 108.265 72 108V21.9301C72 21.6648 72.1054 21.4105 72.2929 21.2229C72.4804 21.0354 72.7348 20.9301 73 20.9301C73.2652 20.9301 73.5196 21.0354 73.7071 21.2229C73.8946 21.4105 74 21.6648 74 21.9301V108C74 108.265 73.8946 108.52 73.7071 108.707C73.5196 108.895 73.2652 109 73 109Z" fill="black"/>
<path d="M59 132.09C58.7348 132.09 58.4804 131.985 58.2929 131.797C58.1054 131.61 58 131.355 58 131.09V30.75C58 30.4848 58.1054 30.2304 58.2929 30.0429C58.4804 29.8554 58.7348 29.75 59 29.75C59.2652 29.75 59.5196 29.8554 59.7071 30.0429C59.8946 30.2304 60 30.4848 60 30.75V131.09C60 131.355 59.8946 131.61 59.7071 131.797C59.5196 131.985 59.2652 132.09 59 132.09Z" fill="black"/>
<path d="M45 132.09C44.7348 132.09 44.4804 131.985 44.2929 131.797C44.1054 131.61 44 131.355 44 131.09V45C44 44.7348 44.1054 44.4804 44.2929 44.2929C44.4804 44.1054 44.7348 44 45 44C45.2652 44 45.5196 44.1054 45.7071 44.2929C45.8946 44.4804 46 44.7348 46 45V131.1C45.9974 131.363 45.8908 131.615 45.7036 131.801C45.5163 131.986 45.2635 132.09 45 132.09Z" fill="black"/>
<path d="M119.071 138.4H84.5605V50L119.071 60.31V138.4ZM86.5605 136.4H117.071V61.8L86.5605 52.69V136.4Z" fill="black"/>
<path d="M86.56 138.4H32.5V15.94L86.56 0V138.4ZM34.5 136.4H84.56V2.67L34.5 17.43V136.4Z" fill="black"/>
<path d="M34.5 138.4H0V48L34.5 36V138.4ZM2 136.4H32.5V38.8L2 49.39V136.4Z" fill="black"/>
<path d="M114.02 82.66H77.6895C73.7297 82.66 70.5195 85.8702 70.5195 89.83V149.68C70.5195 153.64 73.7297 156.85 77.6895 156.85H114.02C117.979 156.85 121.19 153.64 121.19 149.68V89.83C121.19 85.8702 117.979 82.66 114.02 82.66Z" fill="white"/>
<path d="M114 157.85H77.6895C75.5218 157.847 73.4438 156.984 71.9119 155.451C70.38 153.917 69.5195 151.838 69.5195 149.67V89.83C69.5195 87.6632 70.3803 85.5851 71.9125 84.053C73.4446 82.5208 75.5227 81.66 77.6895 81.66H114C116.166 81.6627 118.242 82.5243 119.774 84.0559C121.305 85.5875 122.167 87.664 122.17 89.83V149.67C122.167 151.837 121.306 153.915 119.774 155.448C118.243 156.981 116.166 157.845 114 157.85ZM77.6895 83.66C76.054 83.6627 74.4861 84.3136 73.3296 85.4701C72.1731 86.6266 71.5222 88.1945 71.5195 89.83V149.67C71.5195 151.307 72.1693 152.878 73.3261 154.036C74.4829 155.195 76.0522 155.847 77.6895 155.85H114C115.637 155.847 117.206 155.195 118.363 154.036C119.52 152.878 120.17 151.307 120.17 149.67V89.83C120.167 88.1945 119.516 86.6266 118.359 85.4701C117.203 84.3136 115.635 83.6627 114 83.66H77.6895Z" fill="white"/>
<path d="M111.54 84.4H80.17C76.2101 84.4 73 87.6101 73 91.57V147.94C73 151.9 76.2101 155.11 80.17 155.11H111.54C115.5 155.11 118.71 151.9 118.71 147.94V91.57C118.71 87.6101 115.5 84.4 111.54 84.4Z" fill="white"/>
<path d="M111.54 156.11H80.17C78.0048 156.105 75.9298 155.242 74.3988 153.711C72.8677 152.18 72.0053 150.105 72 147.94V91.57C72.0026 89.404 72.8643 87.3275 74.3959 85.7959C75.9275 84.2643 78.004 83.4027 80.17 83.4H111.54C113.706 83.4027 115.783 84.2643 117.314 85.7959C118.846 87.3275 119.707 89.404 119.71 91.57V147.94C119.705 150.105 118.842 152.18 117.311 153.711C115.78 155.242 113.705 156.105 111.54 156.11ZM80.17 85.4C78.5344 85.4027 76.9666 86.0536 75.8101 87.2101C74.6535 88.3666 74.0026 89.9344 74 91.57V147.94C74.0026 149.576 74.6535 151.143 75.8101 152.3C76.9666 153.456 78.5344 154.107 80.17 154.11H111.54C113.176 154.107 114.743 153.456 115.9 152.3C117.056 151.143 117.707 149.576 117.71 147.94V91.57C117.707 89.9344 117.056 88.3666 115.9 87.2101C114.743 86.0536 113.176 85.4027 111.54 85.4H80.17Z" fill="black"/>
<path d="M109.151 103.15H82.5605C82.2953 103.15 82.041 103.045 81.8534 102.857C81.6659 102.67 81.5605 102.415 81.5605 102.15C81.5605 101.885 81.6659 101.63 81.8534 101.443C82.041 101.255 82.2953 101.15 82.5605 101.15H109.151C109.416 101.15 109.67 101.255 109.858 101.443C110.045 101.63 110.151 101.885 110.151 102.15C110.151 102.415 110.045 102.67 109.858 102.857C109.67 103.045 109.416 103.15 109.151 103.15Z" fill="black"/>
<path d="M109.151 114.88H82.5605C82.2953 114.88 82.041 114.775 81.8534 114.587C81.6659 114.4 81.5605 114.145 81.5605 113.88C81.5605 113.615 81.6659 113.36 81.8534 113.173C82.041 112.985 82.2953 112.88 82.5605 112.88H109.151C109.416 112.88 109.67 112.985 109.858 113.173C110.045 113.36 110.151 113.615 110.151 113.88C110.151 114.145 110.045 114.4 109.858 114.587C109.67 114.775 109.416 114.88 109.151 114.88Z" fill="black"/>
<path d="M109.151 126.62H82.5605C82.2953 126.62 82.041 126.515 81.8534 126.327C81.6659 126.14 81.5605 125.885 81.5605 125.62C81.5605 125.355 81.6659 125.1 81.8534 124.913C82.041 124.725 82.2953 124.62 82.5605 124.62H109.151C109.416 124.62 109.67 124.725 109.858 124.913C110.045 125.1 110.151 125.355 110.151 125.62C110.151 125.885 110.045 126.14 109.858 126.327C109.67 126.515 109.416 126.62 109.151 126.62Z" fill="black"/>
<path d="M109.151 138.36H82.5605C82.2953 138.36 82.041 138.255 81.8534 138.067C81.6659 137.88 81.5605 137.625 81.5605 137.36C81.5605 137.095 81.6659 136.84 81.8534 136.653C82.041 136.465 82.2953 136.36 82.5605 136.36H109.151C109.416 136.36 109.67 136.465 109.858 136.653C110.045 136.84 110.151 137.095 110.151 137.36C110.151 137.625 110.045 137.88 109.858 138.067C109.67 138.255 109.416 138.36 109.151 138.36Z" fill="black"/>
</g>
<defs>
<clipPath id="clip0">
<rect width="122.19" height="157.85" fill="white"/>
</clipPath>
</defs>
</svg>
