<svg width="11" height="11" viewBox="0 0 11 11" fill="none" xmlns="http://www.w3.org/2000/svg">
<g clip-path="url(#clip0)">
<path d="M10.3356 0.816048H9.06261V0.270479C9.06261 0.169913 8.98132 0.088623 8.88076 0.088623H7.60776C7.50719 0.088623 7.4259 0.169913 7.4259 0.270479V0.816048H3.42506V0.270479C3.42506 0.169913 3.34377 0.088623 3.2432 0.088623H1.97021C1.86964 0.088623 1.78835 0.169913 1.78835 0.270479V0.816048H0.515353C0.414786 0.816048 0.333496 0.897337 0.333496 0.997904V2.99832V10.8181C0.333496 10.9187 0.414786 11 0.515353 11H10.3356C10.4362 11 10.5175 10.9187 10.5175 10.8181V2.99832V0.997904C10.5175 0.897337 10.4362 0.816048 10.3356 0.816048ZM7.78962 0.452335H8.6989V0.997904V1.54347H7.78962V0.997904V0.452335ZM2.15206 0.452335H3.06135V0.997904V1.54347H2.15206V0.997904V0.452335ZM0.697209 1.17976H1.78835V1.72533C1.78835 1.8259 1.86964 1.90718 1.97021 1.90718H3.2432C3.34377 1.90718 3.42506 1.8259 3.42506 1.72533V1.17976H7.4259V1.72533C7.4259 1.8259 7.50719 1.90718 7.60776 1.90718H8.88076C8.98132 1.90718 9.06261 1.8259 9.06261 1.72533V1.17976H10.1538V2.81647H0.697209V1.17976ZM0.697209 10.6363V3.18018H10.1538V10.6363H0.697209Z" fill="black"/>
<path d="M6.91062 4.27124H5.63762H5.27391H4.00091H3.6372H2.00049V5.90794V6.27166V7.54465V7.90836V9.54506H3.6372H4.00091H5.27391H5.63762H6.91062H7.27433H8.91105V7.90836V7.54465V6.27166V5.90794V4.27124H7.27433H6.91062ZM5.63762 4.63495H6.91062V5.90794H5.63762V4.63495ZM6.91062 7.54465H5.63762V6.27166H6.91062V7.54465ZM4.00091 6.27166H5.27391V7.54465H4.00091V6.27166ZM4.00091 4.63495H5.27391V5.90794H4.00091V4.63495ZM2.3642 4.63495H3.6372V5.90794H2.3642V4.63495ZM2.3642 6.27166H3.6372V7.54465H2.3642V6.27166ZM3.6372 9.18135H2.3642V7.90836H3.6372V9.18135ZM5.27391 9.18135H4.00091V7.90836H5.27391V9.18135ZM6.91062 9.18135H5.63762V7.90836H6.91062V9.18135ZM8.54733 9.18135H7.27433V7.90836H8.54733V9.18135ZM8.54733 7.54465H7.27433V6.27166H8.54733V7.54465ZM8.54733 4.63495V5.90794H7.27433V4.63495H8.54733Z" fill="black"/>
</g>
<defs>
<clipPath id="clip0">
<rect y="0.088623" width="10.9114" height="10.9114" fill="white"/>
</clipPath>
</defs>
</svg>
