<svg width="30" height="30" viewBox="0 0 30 30" fill="none" xmlns="http://www.w3.org/2000/svg">
<g clip-path="url(#clip0)">
<path d="M18.3288 11.6712C17.9735 11.3138 17.5795 10.9969 17.1542 10.7265C14.8993 9.28169 12.0174 9.25064 9.73186 10.6466C9.25197 10.9409 8.80898 11.2917 8.41233 11.6912L2.04962 18.0539C-0.683208 20.7868 -0.683208 25.2176 2.04962 27.9504C4.78246 30.6832 9.21325 30.6832 11.9461 27.9504L17.1942 22.7023C17.3902 22.5079 17.3915 22.1914 17.1971 21.9954C17.1026 21.9 16.9736 21.8468 16.8394 21.8476H16.6395C15.543 21.8514 14.4563 21.6409 13.4406 21.2278C13.2535 21.1508 13.0384 21.1942 12.8958 21.3377L9.12217 25.1164C7.95037 26.2882 6.0505 26.2882 4.87869 25.1164C3.70688 23.9446 3.70688 22.0447 4.87869 20.8729L11.2414 14.5002C12.4078 13.3242 14.3065 13.3164 15.4825 14.4828C15.4883 14.4886 15.4941 14.4944 15.4999 14.5002C16.2917 15.2555 17.5371 15.2555 18.3289 14.5002C18.6728 14.1553 18.8789 13.6967 18.9087 13.2106C18.9452 12.6381 18.734 12.0774 18.3288 11.6712ZM17.5998 13.8097C17.5996 13.8099 17.5993 13.8102 17.5991 13.8104C17.2022 14.1855 16.5815 14.1855 16.1846 13.8104C14.6233 12.2501 12.0929 12.2501 10.5316 13.8104L4.17383 20.1731C2.6128 21.7356 2.61391 24.2676 4.17634 25.8287C5.73877 27.3897 8.27082 27.3886 9.83184 25.8261L13.3756 22.2774C14.1182 22.5494 14.8925 22.7258 15.6798 22.8022L11.2413 27.2456C8.89497 29.592 5.09072 29.592 2.74436 27.2456C0.397988 24.8992 0.397988 21.095 2.74436 18.7486L9.11708 12.3958C9.452 12.0546 9.82616 11.7543 10.2317 11.5011C11.1759 10.9325 12.2584 10.6351 13.3606 10.6415C14.5083 10.6399 15.6324 10.9678 16.5994 11.5861C16.9616 11.8181 17.2969 12.0897 17.5991 12.3958C17.9896 12.7861 17.99 13.419 17.5998 13.8097Z" fill="#283C7C"/>
<path d="M27.9511 2.04962C25.2183 -0.683208 20.7875 -0.683208 18.0546 2.04962L12.8115 7.29277C12.6675 7.43744 12.626 7.65504 12.7065 7.84259C12.7861 8.03067 12.9722 8.15139 13.1763 8.14746H13.3613C14.4565 8.14547 15.5415 8.35768 16.5551 8.77226C16.7423 8.84928 16.9573 8.80582 17.0999 8.66232L20.8786 4.88367C22.0504 3.71186 23.9502 3.71186 25.1221 4.88367C26.2939 6.05548 26.2939 7.95535 25.1221 9.12715L20.4337 13.8055L20.3937 13.8505L18.7593 15.4999C17.5929 16.6758 15.6941 16.6836 14.5182 15.5173C14.5124 15.5115 14.5066 15.5057 14.5008 15.4999C13.709 14.7446 12.4636 14.7446 11.6718 15.4999C11.3279 15.8448 11.1217 16.3033 11.092 16.7894C11.0554 17.362 11.2666 17.9227 11.6718 18.3289C12.2503 18.9099 12.9272 19.3837 13.6711 19.7284C13.776 19.7783 13.876 19.8233 13.9859 19.8633C14.0959 19.9033 14.1909 19.9483 14.3058 19.9833C14.4207 20.0182 14.5207 20.0582 14.6257 20.0882L14.9206 20.1682C15.1205 20.2181 15.3205 20.2582 15.5254 20.2931C15.7722 20.3298 16.0208 20.3532 16.2701 20.3631H16.62H16.9998C17.1097 20.3631 17.2247 20.3631 17.3547 20.3331H17.5246L17.8695 20.2832L18.0295 20.2532L18.3193 20.1932H18.3743C19.6021 19.8848 20.7232 19.2491 21.6182 18.3538L27.9511 11.9461C30.684 9.21325 30.684 4.78246 27.9511 2.04962ZM27.2564 11.2513L20.8837 17.604C20.1109 18.378 19.1413 18.9259 18.0797 19.1885L17.8198 19.2385L17.6698 19.2684L17.3849 19.3085H17.215L16.9301 19.3335H16.6402H16.3003C16.0995 19.3241 15.8993 19.3041 15.7005 19.2735C15.5306 19.2435 15.3557 19.2085 15.2007 19.1685L14.9458 19.0985C14.8608 19.0985 14.7809 19.0486 14.6759 19.0086C14.571 18.9686 14.496 18.9436 14.401 18.9086L14.1311 18.7936C13.4933 18.4981 12.9129 18.092 12.4168 17.594C12.0261 17.2034 12.0261 16.5701 12.4168 16.1796C12.8074 15.7889 13.4407 15.7889 13.8312 16.1796C15.3926 17.7399 17.9229 17.7399 19.4842 16.1796L21.1437 14.5002L21.1837 14.4552L25.832 9.81181C27.381 8.25084 27.3788 5.73204 25.827 4.17383C24.2664 2.6114 21.7346 2.60999 20.1722 4.17066C20.1711 4.17172 20.1701 4.17277 20.169 4.17383L16.6203 7.72258C15.8809 7.45004 15.1101 7.27203 14.3261 7.19279L18.7595 2.75437C21.1059 0.408004 24.9101 0.408004 27.2565 2.75437C29.6028 5.10074 29.6028 8.90493 27.2564 11.2513Z" fill="#283C7C"/>
</g>
<defs>
<clipPath id="clip0">
<rect width="30" height="30" fill="white"/>
</clipPath>
</defs>
</svg>
