<svg width="10" height="10" viewBox="0 0 10 10" fill="none" xmlns="http://www.w3.org/2000/svg">
    <path d="M5.55197 5.00099L9.8851 0.667836C10.0377 0.515277 10.0377 0.267934 9.8851 0.115395C9.73254 -0.0371435 9.4852 -0.037163 9.33266 0.115395L4.99951 4.44855L0.666371 0.115395C0.513813 -0.037163 0.266469 -0.037163 0.11393 0.115395C-0.0386083 0.267954 -0.0386279 0.515297 0.11393 0.667836L4.44707 5.00097L0.11393 9.33413C-0.0386279 9.48668 -0.0386279 9.73403 0.11393 9.88657C0.1902 9.96284 0.29018 10.001 0.39016 10.001C0.490141 10.001 0.590101 9.96284 0.66639 9.88657L4.99951 5.55343L9.33264 9.88657C9.40891 9.96284 9.50889 10.001 9.60887 10.001C9.70885 10.001 9.80881 9.96284 9.8851 9.88657C10.0377 9.73401 10.0377 9.48667 9.8851 9.33413L5.55197 5.00099Z" fill="black"/>
</svg>
