<svg width="27" height="26" viewBox="0 0 27 26" fill="none" xmlns="http://www.w3.org/2000/svg">
<circle cx="13.0972" cy="13.0001" r="12.5" fill="white" stroke="#AEADB1"/>
<g clip-path="url(#clip0)">
<path d="M17.394 10.344H13.6831V8.19543C13.6831 8.08758 13.5957 8.00012 13.4878 8.00012H8.80029C8.69242 8.00012 8.60498 8.08758 8.60498 8.19543V17.8048C8.60498 17.9126 8.69242 18.0001 8.80029 18.0001H13.4878H17.394C17.5019 18.0001 17.5894 17.9126 17.5894 17.8048V10.5393C17.5894 10.4314 17.5019 10.344 17.394 10.344ZM13.6831 10.7346H17.1987V15.6564H13.6831V10.7346ZM10.5581 17.6095V16.047H11.73V17.6095H10.5581ZM11.9253 15.6564H10.3628C10.2549 15.6564 10.1675 15.7438 10.1675 15.8517V17.6095H8.99561V8.39075H13.2925V17.6095H12.1206V15.8517C12.1206 15.7438 12.0331 15.6564 11.9253 15.6564ZM13.6831 17.6095V16.047H17.1987V17.6095H13.6831Z" fill="#686C70"/>
<path d="M10.9487 9.56274H11.3393C11.4472 9.56274 11.5346 9.4753 11.5346 9.36743V8.97681C11.5346 8.86894 11.4472 8.78149 11.3393 8.78149H10.9487C10.8409 8.78149 10.7534 8.86894 10.7534 8.97681V9.36743C10.7534 9.4753 10.8409 9.56274 10.9487 9.56274Z" fill="#686C70"/>
<path d="M10.9487 10.9299H11.3393C11.4472 10.9299 11.5346 10.8425 11.5346 10.7346V10.344C11.5346 10.2361 11.4472 10.1487 11.3393 10.1487H10.9487C10.8409 10.1487 10.7534 10.2361 10.7534 10.344V10.7346C10.7534 10.8425 10.8409 10.9299 10.9487 10.9299Z" fill="#686C70"/>
<path d="M10.9487 12.297H11.3393C11.4472 12.297 11.5346 12.2096 11.5346 12.1017V11.7111C11.5346 11.6032 11.4472 11.5157 11.3393 11.5157H10.9487C10.8409 11.5157 10.7534 11.6032 10.7534 11.7111V12.1017C10.7534 12.2096 10.8409 12.297 10.9487 12.297Z" fill="#686C70"/>
<path d="M10.9487 13.6642H11.3393C11.4472 13.6642 11.5346 13.5767 11.5346 13.4689V13.0782C11.5346 12.9704 11.4472 12.8829 11.3393 12.8829H10.9487C10.8409 12.8829 10.7534 12.9704 10.7534 13.0782V13.4689C10.7534 13.5767 10.8409 13.6642 10.9487 13.6642Z" fill="#686C70"/>
<path d="M10.9487 15.0314H11.3393C11.4472 15.0314 11.5346 14.9439 11.5346 14.8361V14.4454C11.5346 14.3376 11.4472 14.2501 11.3393 14.2501H10.9487C10.8409 14.2501 10.7534 14.3376 10.7534 14.4454V14.8361C10.7534 14.9439 10.8409 15.0314 10.9487 15.0314Z" fill="#686C70"/>
<path d="M9.58154 9.56274H9.97211C10.08 9.56274 10.1674 9.4753 10.1674 9.36743V8.97681C10.1674 8.86894 10.08 8.78149 9.97211 8.78149H9.58154C9.47367 8.78149 9.38623 8.86894 9.38623 8.97681V9.36743C9.38623 9.4753 9.47367 9.56274 9.58154 9.56274Z" fill="#686C70"/>
<path d="M9.58154 10.9299H9.97211C10.08 10.9299 10.1674 10.8425 10.1674 10.7346V10.344C10.1674 10.2361 10.08 10.1487 9.97211 10.1487H9.58154C9.47367 10.1487 9.38623 10.2361 9.38623 10.344V10.7346C9.38623 10.8425 9.47367 10.9299 9.58154 10.9299Z" fill="#686C70"/>
<path d="M9.58154 12.297H9.97211C10.08 12.297 10.1674 12.2096 10.1674 12.1017V11.7111C10.1674 11.6032 10.08 11.5157 9.97211 11.5157H9.58154C9.47367 11.5157 9.38623 11.6032 9.38623 11.7111V12.1017C9.38623 12.2096 9.47367 12.297 9.58154 12.297Z" fill="#686C70"/>
<path d="M9.58154 13.6642H9.97211C10.08 13.6642 10.1674 13.5767 10.1674 13.4689V13.0782C10.1674 12.9704 10.08 12.8829 9.97211 12.8829H9.58154C9.47367 12.8829 9.38623 12.9704 9.38623 13.0782V13.4689C9.38623 13.5767 9.47367 13.6642 9.58154 13.6642Z" fill="#686C70"/>
<path d="M9.58154 15.0314H9.97211C10.08 15.0314 10.1674 14.9439 10.1674 14.8361V14.4454C10.1674 14.3376 10.08 14.2501 9.97211 14.2501H9.58154C9.47367 14.2501 9.38623 14.3376 9.38623 14.4454V14.8361C9.38623 14.9439 9.47367 15.0314 9.58154 15.0314Z" fill="#686C70"/>
<path d="M12.7065 8.78149H12.3159C12.208 8.78149 12.1206 8.86894 12.1206 8.97681V9.36743C12.1206 9.4753 12.208 9.56274 12.3159 9.56274H12.7065C12.8144 9.56274 12.9018 9.4753 12.9018 9.36743V8.97681C12.9018 8.86894 12.8144 8.78149 12.7065 8.78149Z" fill="#686C70"/>
<path d="M12.7065 10.1486H12.3159C12.208 10.1486 12.1206 10.236 12.1206 10.3439V10.7345C12.1206 10.8424 12.208 10.9298 12.3159 10.9298H12.7065C12.8144 10.9298 12.9018 10.8424 12.9018 10.7345V10.3439C12.9018 10.236 12.8144 10.1486 12.7065 10.1486Z" fill="#686C70"/>
<path d="M12.7065 11.5157H12.3159C12.208 11.5157 12.1206 11.6032 12.1206 11.7111V12.1017C12.1206 12.2096 12.208 12.297 12.3159 12.297H12.7065C12.8144 12.297 12.9018 12.2096 12.9018 12.1017V11.7111C12.9018 11.6032 12.8144 11.5157 12.7065 11.5157Z" fill="#686C70"/>
<path d="M12.7065 12.8829H12.3159C12.208 12.8829 12.1206 12.9704 12.1206 13.0782V13.4689C12.1206 13.5767 12.208 13.6642 12.3159 13.6642H12.7065C12.8144 13.6642 12.9018 13.5767 12.9018 13.4689V13.0782C12.9018 12.9704 12.8144 12.8829 12.7065 12.8829Z" fill="#686C70"/>
<path d="M12.7065 14.2501H12.3159C12.208 14.2501 12.1206 14.3376 12.1206 14.4454V14.8361C12.1206 14.9439 12.208 15.0314 12.3159 15.0314H12.7065C12.8144 15.0314 12.9018 14.9439 12.9018 14.8361V14.4454C12.9018 14.3376 12.8144 14.2501 12.7065 14.2501Z" fill="#686C70"/>
<path d="M16.3198 11.5157H15.9292C15.8213 11.5157 15.7339 11.6032 15.7339 11.7111V12.1017C15.7339 12.2096 15.8213 12.297 15.9292 12.297H16.3198C16.4276 12.297 16.5151 12.2096 16.5151 12.1017V11.7111C16.5151 11.6032 16.4276 11.5157 16.3198 11.5157Z" fill="#686C70"/>
<path d="M16.3198 12.8829H15.9292C15.8213 12.8829 15.7339 12.9704 15.7339 13.0782V13.4689C15.7339 13.5767 15.8213 13.6642 15.9292 13.6642H16.3198C16.4276 13.6642 16.5151 13.5767 16.5151 13.4689V13.0782C16.5151 12.9704 16.4276 12.8829 16.3198 12.8829Z" fill="#686C70"/>
<path d="M16.3198 14.2501H15.9292C15.8213 14.2501 15.7339 14.3376 15.7339 14.4454V14.8361C15.7339 14.9439 15.8213 15.0314 15.9292 15.0314H16.3198C16.4276 15.0314 16.5151 14.9439 16.5151 14.8361V14.4454C16.5151 14.3376 16.4276 14.2501 16.3198 14.2501Z" fill="#686C70"/>
<path d="M14.9526 11.5157H14.562C14.4541 11.5157 14.3667 11.6032 14.3667 11.7111V12.1017C14.3667 12.2096 14.4541 12.297 14.562 12.297H14.9526C15.0604 12.297 15.1479 12.2096 15.1479 12.1017V11.7111C15.1479 11.6032 15.0604 11.5157 14.9526 11.5157Z" fill="#686C70"/>
<path d="M14.9526 12.8829H14.562C14.4541 12.8829 14.3667 12.9704 14.3667 13.0782V13.4689C14.3667 13.5767 14.4541 13.6642 14.562 13.6642H14.9526C15.0604 13.6642 15.1479 13.5767 15.1479 13.4689V13.0782C15.1479 12.9704 15.0604 12.8829 14.9526 12.8829Z" fill="#686C70"/>
<path d="M14.9526 14.2501H14.562C14.4541 14.2501 14.3667 14.3376 14.3667 14.4454V14.8361C14.3667 14.9439 14.4541 15.0314 14.562 15.0314H14.9526C15.0604 15.0314 15.1479 14.9439 15.1479 14.8361V14.4454C15.1479 14.3376 15.0604 14.2501 14.9526 14.2501Z" fill="#686C70"/>
</g>
<circle cx="13" cy="13" r="12.5" fill="white" stroke="#3B44F0"/>
<path d="M17.2969 10.3438H13.5859V8.19531C13.5859 8.08746 13.4985 8 13.3906 8H8.70312C8.59525 8 8.50781 8.08746 8.50781 8.19531V17.8047C8.50781 17.9125 8.59525 18 8.70312 18H13.3906H17.2969C17.4047 18 17.4922 17.9125 17.4922 17.8047V10.5391C17.4922 10.4313 17.4047 10.3438 17.2969 10.3438ZM13.5859 10.7345H17.1016V15.6562H13.5859V10.7345ZM10.4609 17.6094V16.0469H11.6328V17.6094H10.4609ZM11.8281 15.6562H10.2656C10.1578 15.6562 10.0703 15.7437 10.0703 15.8515V17.6094H8.89844V8.39062H13.1953V17.6094H12.0234V15.8515C12.0234 15.7437 11.936 15.6562 11.8281 15.6562ZM13.5859 17.6094V16.0469H17.1015V17.6094H13.5859Z" fill="#686C70"/>
<path d="M10.8516 9.56262H11.2421C11.35 9.56262 11.4374 9.47518 11.4374 9.36731V8.97668C11.4374 8.86881 11.35 8.78137 11.2421 8.78137H10.8516C10.7437 8.78137 10.6562 8.86881 10.6562 8.97668V9.36731C10.6562 9.47518 10.7437 9.56262 10.8516 9.56262Z" fill="#686C70"/>
<path d="M10.8516 10.9298H11.2421C11.35 10.9298 11.4374 10.8424 11.4374 10.7345V10.3439C11.4374 10.236 11.35 10.1486 11.2421 10.1486H10.8516C10.7437 10.1486 10.6562 10.236 10.6562 10.3439V10.7345C10.6562 10.8424 10.7437 10.9298 10.8516 10.9298Z" fill="#686C70"/>
<path d="M10.8516 12.2969H11.2421C11.35 12.2969 11.4374 12.2094 11.4374 12.1016V11.7109C11.4374 11.6031 11.35 11.5156 11.2421 11.5156H10.8516C10.7437 11.5156 10.6562 11.6031 10.6562 11.7109V12.1016C10.6562 12.2094 10.7437 12.2969 10.8516 12.2969Z" fill="#686C70"/>
<path d="M10.8516 13.6641H11.2421C11.35 13.6641 11.4374 13.5766 11.4374 13.4688V13.0781C11.4374 12.9703 11.35 12.8828 11.2421 12.8828H10.8516C10.7437 12.8828 10.6562 12.9703 10.6562 13.0781V13.4688C10.6562 13.5766 10.7437 13.6641 10.8516 13.6641Z" fill="#686C70"/>
<path d="M10.8516 15.0312H11.2421C11.35 15.0312 11.4374 14.9438 11.4374 14.8359V14.4453C11.4374 14.3374 11.35 14.25 11.2421 14.25H10.8516C10.7437 14.25 10.6562 14.3374 10.6562 14.4453V14.8359C10.6562 14.9438 10.7437 15.0312 10.8516 15.0312Z" fill="#686C70"/>
<path d="M9.48437 9.56262H9.87494C9.98281 9.56262 10.0703 9.47518 10.0703 9.36731V8.97668C10.0703 8.86881 9.98281 8.78137 9.87494 8.78137H9.48437C9.3765 8.78137 9.28906 8.86881 9.28906 8.97668V9.36731C9.28906 9.47518 9.3765 9.56262 9.48437 9.56262Z" fill="#686C70"/>
<path d="M9.48437 10.9298H9.87494C9.98281 10.9298 10.0703 10.8424 10.0703 10.7345V10.3439C10.0703 10.236 9.98281 10.1486 9.87494 10.1486H9.48437C9.3765 10.1486 9.28906 10.236 9.28906 10.3439V10.7345C9.28906 10.8424 9.3765 10.9298 9.48437 10.9298Z" fill="#686C70"/>
<path d="M9.48437 12.2969H9.87494C9.98281 12.2969 10.0703 12.2094 10.0703 12.1016V11.7109C10.0703 11.6031 9.98281 11.5156 9.87494 11.5156H9.48437C9.3765 11.5156 9.28906 11.6031 9.28906 11.7109V12.1016C9.28906 12.2094 9.3765 12.2969 9.48437 12.2969Z" fill="#686C70"/>
<path d="M9.48437 13.6641H9.87494C9.98281 13.6641 10.0703 13.5766 10.0703 13.4688V13.0781C10.0703 12.9703 9.98281 12.8828 9.87494 12.8828H9.48437C9.3765 12.8828 9.28906 12.9703 9.28906 13.0781V13.4688C9.28906 13.5766 9.3765 13.6641 9.48437 13.6641Z" fill="#686C70"/>
<path d="M9.48437 15.0312H9.87494C9.98281 15.0312 10.0703 14.9438 10.0703 14.8359V14.4453C10.0703 14.3374 9.98281 14.25 9.87494 14.25H9.48437C9.3765 14.25 9.28906 14.3374 9.28906 14.4453V14.8359C9.28906 14.9438 9.3765 15.0312 9.48437 15.0312Z" fill="#686C70"/>
<path d="M12.6093 8.78137H12.2188C12.1109 8.78137 12.0234 8.86881 12.0234 8.97668V9.36731C12.0234 9.47518 12.1109 9.56262 12.2188 9.56262H12.6093C12.7172 9.56262 12.8046 9.47518 12.8046 9.36731V8.97668C12.8046 8.86881 12.7172 8.78137 12.6093 8.78137Z" fill="#686C70"/>
<path d="M12.6093 10.1484H12.2188C12.1109 10.1484 12.0234 10.2359 12.0234 10.3438V10.7344C12.0234 10.8422 12.1109 10.9297 12.2188 10.9297H12.6093C12.7172 10.9297 12.8046 10.8422 12.8046 10.7344V10.3438C12.8046 10.2359 12.7172 10.1484 12.6093 10.1484Z" fill="#686C70"/>
<path d="M12.6093 11.5156H12.2188C12.1109 11.5156 12.0234 11.6031 12.0234 11.7109V12.1016C12.0234 12.2094 12.1109 12.2969 12.2188 12.2969H12.6093C12.7172 12.2969 12.8046 12.2094 12.8046 12.1016V11.7109C12.8046 11.6031 12.7172 11.5156 12.6093 11.5156Z" fill="#686C70"/>
<path d="M12.6093 12.8828H12.2188C12.1109 12.8828 12.0234 12.9703 12.0234 13.0781V13.4688C12.0234 13.5766 12.1109 13.6641 12.2188 13.6641H12.6093C12.7172 13.6641 12.8046 13.5766 12.8046 13.4688V13.0781C12.8046 12.9703 12.7172 12.8828 12.6093 12.8828Z" fill="#686C70"/>
<path d="M12.6093 14.25H12.2188C12.1109 14.25 12.0234 14.3374 12.0234 14.4453V14.8359C12.0234 14.9438 12.1109 15.0312 12.2188 15.0312H12.6093C12.7172 15.0312 12.8046 14.9438 12.8046 14.8359V14.4453C12.8046 14.3374 12.7172 14.25 12.6093 14.25Z" fill="#686C70"/>
<path d="M16.2226 11.5156H15.832C15.7242 11.5156 15.6367 11.6031 15.6367 11.7109V12.1016C15.6367 12.2094 15.7242 12.2969 15.832 12.2969H16.2226C16.3305 12.2969 16.4179 12.2094 16.4179 12.1016V11.7109C16.4179 11.6031 16.3304 11.5156 16.2226 11.5156Z" fill="#686C70"/>
<path d="M16.2226 12.8828H15.832C15.7242 12.8828 15.6367 12.9703 15.6367 13.0781V13.4688C15.6367 13.5766 15.7242 13.6641 15.832 13.6641H16.2226C16.3305 13.6641 16.4179 13.5766 16.4179 13.4688V13.0781C16.4179 12.9703 16.3304 12.8828 16.2226 12.8828Z" fill="#686C70"/>
<path d="M16.2226 14.25H15.832C15.7242 14.25 15.6367 14.3374 15.6367 14.4453V14.8359C15.6367 14.9438 15.7242 15.0312 15.832 15.0312H16.2226C16.3305 15.0312 16.4179 14.9438 16.4179 14.8359V14.4453C16.4179 14.3374 16.3304 14.25 16.2226 14.25Z" fill="#686C70"/>
<path d="M14.8554 11.5156H14.4648C14.357 11.5156 14.2695 11.6031 14.2695 11.7109V12.1016C14.2695 12.2094 14.357 12.2969 14.4648 12.2969H14.8554C14.9633 12.2969 15.0507 12.2094 15.0507 12.1016V11.7109C15.0507 11.6031 14.9633 11.5156 14.8554 11.5156Z" fill="#686C70"/>
<path d="M14.8554 12.8828H14.4648C14.357 12.8828 14.2695 12.9703 14.2695 13.0781V13.4688C14.2695 13.5766 14.357 13.6641 14.4648 13.6641H14.8554C14.9633 13.6641 15.0507 13.5766 15.0507 13.4688V13.0781C15.0507 12.9703 14.9633 12.8828 14.8554 12.8828Z" fill="#686C70"/>
<path d="M14.8554 14.25H14.4648C14.357 14.25 14.2695 14.3374 14.2695 14.4453V14.8359C14.2695 14.9438 14.357 15.0312 14.4648 15.0312H14.8554C14.9633 15.0312 15.0507 14.9438 15.0507 14.8359V14.4453C15.0507 14.3374 14.9633 14.25 14.8554 14.25Z" fill="#686C70"/>
<circle cx="13" cy="13" r="9.5" fill="#3B44F0" stroke="#3B44F0"/>
<g clip-path="url(#clip1)">
<path d="M16.3053 10.9568H13.4507V9.30405C13.4507 9.22109 13.3834 9.15381 13.3004 9.15381H9.69467C9.6117 9.15381 9.54443 9.22109 9.54443 9.30405V16.6959C9.54443 16.7788 9.6117 16.8461 9.69467 16.8461H13.3004H16.3053C16.3882 16.8461 16.4555 16.7788 16.4555 16.6959V11.107C16.4555 11.024 16.3882 10.9568 16.3053 10.9568ZM13.4507 11.2572H16.155V15.0432H13.4507V11.2572ZM11.0468 16.5456V15.3437H11.9483V16.5456H11.0468ZM12.0985 15.0432H10.8966C10.8136 15.0432 10.7464 15.1105 10.7464 15.1935V16.5456H9.84491V9.45429H13.1502V16.5456H12.2488V15.1935C12.2488 15.1105 12.1815 15.0432 12.0985 15.0432ZM13.4507 16.5456V15.3437H16.155V16.5456H13.4507Z" fill="white"/>
<path d="M11.3473 10.3558H11.6477C11.7307 10.3558 11.7979 10.2886 11.7979 10.2056V9.90512C11.7979 9.82215 11.7307 9.75488 11.6477 9.75488H11.3473C11.2643 9.75488 11.197 9.82215 11.197 9.90512V10.2056C11.197 10.2886 11.2643 10.3558 11.3473 10.3558Z" fill="white"/>
<path d="M11.3473 11.4075H11.6477C11.7307 11.4075 11.7979 11.3402 11.7979 11.2572V10.9568C11.7979 10.8738 11.7307 10.8065 11.6477 10.8065H11.3473C11.2643 10.8065 11.197 10.8738 11.197 10.9568V11.2572C11.197 11.3402 11.2643 11.4075 11.3473 11.4075Z" fill="white"/>
<path d="M11.3473 12.4591H11.6477C11.7307 12.4591 11.7979 12.3919 11.7979 12.3089V12.0084C11.7979 11.9254 11.7307 11.8582 11.6477 11.8582H11.3473C11.2643 11.8582 11.197 11.9254 11.197 12.0084V12.3089C11.197 12.3919 11.2643 12.4591 11.3473 12.4591Z" fill="white"/>
<path d="M11.3473 13.5108H11.6477C11.7307 13.5108 11.7979 13.4435 11.7979 13.3605V13.06C11.7979 12.9771 11.7307 12.9098 11.6477 12.9098H11.3473C11.2643 12.9098 11.197 12.9771 11.197 13.06V13.3605C11.197 13.4435 11.2643 13.5108 11.3473 13.5108Z" fill="white"/>
<path d="M11.3473 14.5625H11.6477C11.7307 14.5625 11.7979 14.4952 11.7979 14.4123V14.1118C11.7979 14.0288 11.7307 13.9615 11.6477 13.9615H11.3473C11.2643 13.9615 11.197 14.0288 11.197 14.1118V14.4123C11.197 14.4952 11.2643 14.5625 11.3473 14.5625Z" fill="white"/>
<path d="M10.2957 10.3558H10.5962C10.6792 10.3558 10.7464 10.2886 10.7464 10.2056V9.90512C10.7464 9.82215 10.6792 9.75488 10.5962 9.75488H10.2957C10.2128 9.75488 10.1455 9.82215 10.1455 9.90512V10.2056C10.1455 10.2886 10.2128 10.3558 10.2957 10.3558Z" fill="white"/>
<path d="M10.2957 11.4075H10.5962C10.6792 11.4075 10.7464 11.3402 10.7464 11.2572V10.9568C10.7464 10.8738 10.6792 10.8065 10.5962 10.8065H10.2957C10.2128 10.8065 10.1455 10.8738 10.1455 10.9568V11.2572C10.1455 11.3402 10.2128 11.4075 10.2957 11.4075Z" fill="white"/>
<path d="M10.2957 12.4591H10.5962C10.6792 12.4591 10.7464 12.3919 10.7464 12.3089V12.0084C10.7464 11.9254 10.6792 11.8582 10.5962 11.8582H10.2957C10.2128 11.8582 10.1455 11.9254 10.1455 12.0084V12.3089C10.1455 12.3919 10.2128 12.4591 10.2957 12.4591Z" fill="white"/>
<path d="M10.2957 13.5108H10.5962C10.6792 13.5108 10.7464 13.4435 10.7464 13.3605V13.06C10.7464 12.9771 10.6792 12.9098 10.5962 12.9098H10.2957C10.2128 12.9098 10.1455 12.9771 10.1455 13.06V13.3605C10.1455 13.4435 10.2128 13.5108 10.2957 13.5108Z" fill="white"/>
<path d="M10.2957 14.5625H10.5962C10.6792 14.5625 10.7464 14.4952 10.7464 14.4123V14.1118C10.7464 14.0288 10.6792 13.9615 10.5962 13.9615H10.2957C10.2128 13.9615 10.1455 14.0288 10.1455 14.1118V14.4123C10.1455 14.4952 10.2128 14.5625 10.2957 14.5625Z" fill="white"/>
<path d="M12.6995 9.75488H12.399C12.316 9.75488 12.2488 9.82215 12.2488 9.90512V10.2056C12.2488 10.2886 12.316 10.3558 12.399 10.3558H12.6995C12.7824 10.3558 12.8497 10.2886 12.8497 10.2056V9.90512C12.8497 9.82215 12.7824 9.75488 12.6995 9.75488Z" fill="white"/>
<path d="M12.6995 10.8064H12.399C12.316 10.8064 12.2488 10.8737 12.2488 10.9566V11.2571C12.2488 11.3401 12.316 11.4074 12.399 11.4074H12.6995C12.7824 11.4074 12.8497 11.3401 12.8497 11.2571V10.9566C12.8497 10.8737 12.7824 10.8064 12.6995 10.8064Z" fill="white"/>
<path d="M12.6995 11.8582H12.399C12.316 11.8582 12.2488 11.9254 12.2488 12.0084V12.3089C12.2488 12.3919 12.316 12.4591 12.399 12.4591H12.6995C12.7824 12.4591 12.8497 12.3919 12.8497 12.3089V12.0084C12.8497 11.9254 12.7824 11.8582 12.6995 11.8582Z" fill="white"/>
<path d="M12.6995 12.9098H12.399C12.316 12.9098 12.2488 12.9771 12.2488 13.06V13.3605C12.2488 13.4435 12.316 13.5108 12.399 13.5108H12.6995C12.7824 13.5108 12.8497 13.4435 12.8497 13.3605V13.06C12.8497 12.9771 12.7824 12.9098 12.6995 12.9098Z" fill="white"/>
<path d="M12.6995 13.9615H12.399C12.316 13.9615 12.2488 14.0288 12.2488 14.1118V14.4123C12.2488 14.4952 12.316 14.5625 12.399 14.5625H12.6995C12.7824 14.5625 12.8497 14.4952 12.8497 14.4123V14.1118C12.8497 14.0288 12.7824 13.9615 12.6995 13.9615Z" fill="white"/>
<path d="M15.479 11.8582H15.1786C15.0956 11.8582 15.0283 11.9254 15.0283 12.0084V12.3089C15.0283 12.3919 15.0956 12.4591 15.1786 12.4591H15.479C15.562 12.4591 15.6292 12.3919 15.6292 12.3089V12.0084C15.6292 11.9254 15.562 11.8582 15.479 11.8582Z" fill="white"/>
<path d="M15.479 12.9098H15.1786C15.0956 12.9098 15.0283 12.9771 15.0283 13.06V13.3605C15.0283 13.4435 15.0956 13.5108 15.1786 13.5108H15.479C15.562 13.5108 15.6292 13.4435 15.6292 13.3605V13.06C15.6292 12.9771 15.562 12.9098 15.479 12.9098Z" fill="white"/>
<path d="M15.479 13.9615H15.1786C15.0956 13.9615 15.0283 14.0288 15.0283 14.1118V14.4123C15.0283 14.4952 15.0956 14.5625 15.1786 14.5625H15.479C15.562 14.5625 15.6292 14.4952 15.6292 14.4123V14.1118C15.6292 14.0288 15.562 13.9615 15.479 13.9615Z" fill="white"/>
<path d="M14.4272 11.8582H14.1268C14.0438 11.8582 13.9766 11.9254 13.9766 12.0084V12.3089C13.9766 12.3919 14.0438 12.4591 14.1268 12.4591H14.4272C14.5102 12.4591 14.5775 12.3919 14.5775 12.3089V12.0084C14.5775 11.9254 14.5102 11.8582 14.4272 11.8582Z" fill="white"/>
<path d="M14.4272 12.9098H14.1268C14.0438 12.9098 13.9766 12.9771 13.9766 13.06V13.3605C13.9766 13.4435 14.0438 13.5108 14.1268 13.5108H14.4272C14.5102 13.5108 14.5775 13.4435 14.5775 13.3605V13.06C14.5775 12.9771 14.5102 12.9098 14.4272 12.9098Z" fill="white"/>
<path d="M14.4272 13.9615H14.1268C14.0438 13.9615 13.9766 14.0288 13.9766 14.1118V14.4123C13.9766 14.4952 14.0438 14.5625 14.1268 14.5625H14.4272C14.5102 14.5625 14.5775 14.4952 14.5775 14.4123V14.1118C14.5775 14.0288 14.5102 13.9615 14.4272 13.9615Z" fill="white"/>
</g>
<defs>
<clipPath id="clip0">
<rect width="10" height="10" fill="white" transform="translate(8.09717 8.00012)"/>
</clipPath>
<clipPath id="clip1">
<rect width="7.69231" height="7.69231" fill="white" transform="translate(9.15381 9.15381)"/>
</clipPath>
</defs>
</svg>
