<svg width="32" height="32" viewBox="0 0 32 32" fill="none" xmlns="http://www.w3.org/2000/svg">
<path d="M13.5936 5.46002C14.1424 5.60722 14.1536 5.61042 14.7024 5.75722L14.8908 7.79722L15.756 8.29682L17.6176 7.44002L18.4292 8.25162L17.572 10.1136L18.0716 10.9788L20.1116 11.1672C20.2584 11.716 20.2616 11.7272 20.4084 12.276L18.7356 13.4592V14.4592L20.4084 15.6428L20.1116 16.7516L18.0716 16.94L17.572 17.8044L18.4292 19.666L17.6176 20.4776L15.756 19.6204L14.8908 20.12L14.7024 22.16L13.5936 22.4568L12.41 20.784H11.41L10.2268 22.4568L9.11997 22.16L8.93156 20.12L8.06636 19.6204L6.20476 20.4776L5.39196 19.666L6.24916 17.8044L5.74956 16.9392L3.70955 16.7508L3.41235 15.642L5.08556 14.4584V13.4584L3.41155 12.276L3.70875 11.1672L5.74876 10.9788L6.24836 10.1136L5.39196 8.25202L6.20356 7.44002L8.06516 8.29722L8.93037 7.80002L9.11877 5.76002L10.2276 5.46282L11.4108 7.13602H12.4108L13.5944 5.46282L13.5936 5.46002ZM13.5944 4.66282C13.4663 4.66259 13.3401 4.69309 13.2263 4.75177C13.1125 4.81045 13.0144 4.89558 12.9404 5.00002L11.996 6.33322H11.8248L10.88 5.00002C10.7857 4.86625 10.6526 4.76469 10.4987 4.70909C10.3448 4.6535 10.1775 4.64656 10.0196 4.68922L8.97957 4.96922L8.91236 4.98722C8.75435 5.02956 8.61311 5.11933 8.50768 5.24442C8.40226 5.36951 8.33772 5.52391 8.32276 5.68682L8.17236 7.31482L8.02436 7.40042L6.53916 6.71642C6.39071 6.64788 6.22483 6.62647 6.06384 6.65508C5.90286 6.68369 5.75451 6.76093 5.63876 6.87642L4.82676 7.68842C4.71127 7.80416 4.63402 7.95252 4.60542 8.1135C4.57681 8.27448 4.59822 8.44037 4.66676 8.58882L5.35076 10.074L5.26516 10.2224L3.63675 10.3724C3.47389 10.387 3.31941 10.4511 3.19411 10.5562C3.06881 10.6613 2.97871 10.8022 2.93595 10.96L2.86555 11.2232L2.63995 12.0688C2.59754 12.2268 2.60456 12.3939 2.66006 12.5477C2.71556 12.7016 2.81687 12.8347 2.95035 12.9292L4.28556 13.8736V14.0444L2.94955 14.9888C2.81629 15.0834 2.71519 15.2165 2.65984 15.3702C2.60449 15.524 2.59755 15.691 2.63995 15.8488L2.75595 16.2824L2.93595 16.96C2.97827 17.118 3.06797 17.2592 3.19299 17.3646C3.318 17.47 3.47232 17.5346 3.63515 17.5496L5.26356 17.6996L5.34916 17.848L4.66516 19.3332C4.59662 19.4816 4.57521 19.6475 4.60382 19.8085C4.63242 19.9695 4.70967 20.1179 4.82516 20.2336L5.63996 21.0432C5.75571 21.1587 5.90406 21.2359 6.06504 21.2645C6.22603 21.2931 6.39191 21.2717 6.54036 21.2032L8.02356 20.52L8.17156 20.6056L8.32196 22.2336C8.337 22.3964 8.40157 22.5507 8.50699 22.6758C8.61241 22.8008 8.75361 22.8905 8.91156 22.9328L9.97077 23.2168L10.0204 23.23C10.1782 23.2726 10.3452 23.2657 10.4989 23.2102C10.6527 23.1548 10.7857 23.0535 10.88 22.92L11.824 21.5852H11.9952L12.9404 22.92C13.0345 23.0538 13.1675 23.1554 13.3214 23.211C13.4752 23.2666 13.6425 23.2735 13.8004 23.2308L13.8504 23.2176L14.9096 22.9336C15.0675 22.8913 15.2087 22.8016 15.3142 22.6766C15.4196 22.5515 15.4841 22.3972 15.4992 22.2344L15.6492 20.6064L15.7976 20.5208L17.2828 21.2048C17.4312 21.2733 17.5971 21.2947 17.7581 21.2661C17.9191 21.2375 18.0674 21.1603 18.1832 21.0448L18.9948 20.2332C19.1103 20.1175 19.1875 19.9691 19.2161 19.8081C19.2447 19.6471 19.2233 19.4812 19.1548 19.3328L18.4708 17.8476L18.556 17.6992L20.1844 17.5492C20.3474 17.5344 20.5019 17.47 20.6272 17.3647C20.7524 17.2593 20.8423 17.1181 20.8848 16.96L20.982 16.598L21.182 15.8508C21.2243 15.6929 21.2171 15.5258 21.1616 15.372C21.106 15.2183 21.0047 15.0852 20.8712 14.9908L19.5364 14.0464V13.8756L20.8712 12.9312C21.0047 12.8368 21.1061 12.7037 21.1617 12.5498C21.2173 12.396 21.2244 12.2288 21.182 12.0708L21.1344 11.8932L20.8848 10.96C20.8425 10.8021 20.7528 10.6609 20.6278 10.5554C20.5027 10.45 20.3484 10.3854 20.1856 10.3704L18.5572 10.2204L18.472 10.072L19.156 8.58682C19.2245 8.43837 19.2459 8.27248 19.2173 8.1115C19.1887 7.95052 19.1115 7.80216 18.996 7.68642L18.1844 6.87442C18.0686 6.75893 17.9203 6.68168 17.7593 6.65308C17.5983 6.62447 17.4324 6.64588 17.284 6.71442L15.7988 7.39842L15.6504 7.31282L15.5004 5.68482C15.4854 5.52191 15.4209 5.36751 15.3155 5.24242C15.21 5.11733 15.0688 5.02756 14.9108 4.98522L14.8432 4.96722L13.8032 4.68722C13.7357 4.669 13.6662 4.65972 13.5964 4.65962L13.5944 4.66282Z" fill="#283C7C"/>
<path d="M11.9103 8.70364C12.9497 8.70356 13.9658 9.0117 14.8301 9.58911C15.6945 10.1665 16.3681 10.9873 16.766 11.9475C17.1639 12.9078 17.2681 13.9645 17.0654 14.984C16.8627 16.0035 16.3623 16.94 15.6274 17.6751C14.8924 18.4102 13.9561 18.9108 12.9366 19.1137C11.9172 19.3166 10.8604 19.2127 9.90007 18.815C8.9397 18.4174 8.11881 17.7439 7.5412 16.8797C6.9636 16.0155 6.65522 14.9995 6.65506 13.96C6.6549 13.2698 6.79071 12.5863 7.05474 11.9486C7.31877 11.3109 7.70584 10.7314 8.19385 10.2433C8.68185 9.75515 9.26123 9.36795 9.8989 9.10378C10.5366 8.83961 11.22 8.70364 11.9103 8.70364ZM11.9103 7.90364C10.5093 7.90366 9.15162 8.38945 8.06865 9.27825C6.98568 10.167 6.24439 11.4038 5.97109 12.7779C5.69778 14.152 5.90938 15.5783 6.56982 16.8139C7.23026 18.0495 8.29868 19.0178 9.59304 19.5539C10.8874 20.09 12.3276 20.1608 13.6683 19.7541C15.0089 19.3474 16.1671 18.4884 16.9454 17.3235C17.7238 16.1586 18.0741 14.7599 17.9368 13.3656C17.7994 11.9714 17.1829 10.6679 16.1923 9.67724C15.6315 9.1134 14.9645 8.66634 14.2298 8.36191C13.4952 8.05748 12.7075 7.90172 11.9123 7.90364H11.9103Z" fill="#283C7C"/>
<path d="M22.8801 17.2477L23.9117 19.0192L24.2021 19.0404L25.4821 17.4405L25.7961 17.5685L25.5889 19.6084L25.8117 19.7968L27.7885 19.2532L27.9669 19.5412L26.6001 21.0676L26.6697 21.3508L28.5897 22.0728C28.5765 22.2484 28.5777 22.2328 28.5645 22.4108L26.5601 22.844L26.4501 23.114L27.5777 24.826L27.3601 25.0848L25.4845 24.2576L25.2369 24.4112L25.1429 26.4592L24.8137 26.5392L23.7825 24.7672L23.4917 24.746L22.2116 26.346L21.898 26.218L22.1048 24.178L21.88 23.9924L19.9044 24.536C19.8116 24.3864 19.8184 24.398 19.7256 24.248L21.092 22.72L21.0224 22.4372L19.1024 21.7148C19.1152 21.5392 19.1144 21.5528 19.1272 21.3768L21.1308 20.9436L21.2408 20.6736L20.1148 18.96C20.2284 18.8256 20.22 18.836 20.3336 18.7012L22.2092 19.5284L22.4572 19.3748L22.5509 17.3273L22.8801 17.2473V17.2477ZM22.8801 16.4473C22.8158 16.4473 22.7517 16.4551 22.6892 16.4705L22.4977 16.5177L22.3605 16.5513C22.1926 16.5924 22.0426 16.6867 21.9329 16.8202C21.8231 16.9536 21.7596 17.119 21.7516 17.2917L21.6996 18.4305L20.6564 17.9705C20.4984 17.9008 20.3221 17.8842 20.1538 17.923C19.9855 17.9619 19.8343 18.0542 19.7228 18.1861L19.6244 18.3025L19.5044 18.4449C19.3932 18.5766 19.3275 18.7408 19.3171 18.9129C19.3067 19.085 19.3522 19.2559 19.4468 19.4L20.074 20.352L18.9596 20.592C18.7901 20.6288 18.637 20.7197 18.5236 20.851C18.4102 20.9823 18.3425 21.1469 18.3308 21.32L18.3168 21.5136L18.306 21.658C18.2934 21.8303 18.3368 22.0019 18.4298 22.1474C18.5229 22.2929 18.6604 22.4044 18.822 22.4652L19.8892 22.8652L19.1292 23.7152C19.0141 23.844 18.9437 24.0066 18.9286 24.1787C18.9136 24.3508 18.9546 24.5232 19.0456 24.67L19.1476 24.834L19.2244 24.958C19.3154 25.1048 19.4515 25.2183 19.6122 25.2813C19.773 25.3444 19.9499 25.3538 20.1164 25.308L21.2156 25.0056L21.1008 26.14C21.0837 26.3116 21.1225 26.4842 21.2115 26.632C21.3004 26.7797 21.4348 26.8948 21.5944 26.96L21.668 26.99L21.908 27.0884C22.0678 27.1538 22.2444 27.1658 22.4115 27.1225C22.5786 27.0792 22.7273 26.9831 22.8353 26.8484L23.5473 25.9576L24.1201 26.9424C24.207 27.0917 24.3398 27.2088 24.4988 27.2763C24.6578 27.3438 24.8343 27.358 25.0021 27.3168L25.1501 27.2804L25.3313 27.236C25.499 27.1948 25.6489 27.1005 25.7586 26.967C25.8683 26.8335 25.9318 26.6682 25.9397 26.4956L25.9917 25.3568L27.0349 25.8168C27.1932 25.8866 27.3698 25.9032 27.5384 25.8641C27.7069 25.8251 27.8582 25.7324 27.9697 25.6L28.0941 25.4528L28.1885 25.3412C28.3 25.2093 28.3658 25.0447 28.376 24.8723C28.3863 24.6998 28.3404 24.5287 28.2453 24.3844L27.6181 23.4324L28.7325 23.1924C28.9011 23.1557 29.0533 23.0654 29.1664 22.9351C29.2795 22.8048 29.3475 22.6413 29.3601 22.4692L29.3685 22.3544L29.3849 22.1312C29.3975 21.959 29.3541 21.7873 29.2611 21.6419C29.1681 21.4964 29.0305 21.3849 28.8689 21.324L27.8017 20.924L28.5617 20.074C28.6768 19.9453 28.7472 19.7827 28.7623 19.6106C28.7774 19.4384 28.7363 19.2661 28.6453 19.1192L28.5909 19.032L28.4665 18.832C28.3755 18.6852 28.2394 18.5718 28.0787 18.5087C27.9179 18.4456 27.741 18.4363 27.5745 18.4821L26.4753 18.7844L26.5905 17.6501C26.6078 17.4782 26.5692 17.3054 26.4802 17.1574C26.3912 17.0094 26.2568 16.8941 26.0969 16.8289L26.0717 16.8185L25.7917 16.7041L25.7829 16.7009C25.6871 16.6614 25.5845 16.6412 25.4809 16.6413C25.3608 16.6412 25.2422 16.6683 25.134 16.7204C25.0257 16.7724 24.9306 16.8482 24.8557 16.9421L24.1441 17.8329L23.5705 16.8473C23.5004 16.726 23.3998 16.6252 23.2787 16.555C23.1575 16.4848 23.0201 16.4477 22.8801 16.4473Z" fill="#283C7C"/>
</svg>
