<svg width="13" height="15" viewBox="0 0 13 15" fill="none" xmlns="http://www.w3.org/2000/svg">
<path d="M8.15892 2.62329H1.18575C0.531436 2.62329 0 3.15473 0 3.80904V13.8141C0 14.4685 0.531436 14.9999 1.18575 14.9999H8.15892C8.81323 14.9999 9.34467 14.4685 9.34467 13.8141V3.80904C9.3416 3.15473 8.81016 2.62329 8.15892 2.62329ZM8.51219 13.8111C8.51219 14.0077 8.35245 14.1674 8.15585 14.1674H1.18268C0.986075 14.1674 0.826337 14.0077 0.826337 13.8111V3.80904C0.826337 3.61244 0.986075 3.4527 1.18268 3.4527H8.15585C8.35245 3.4527 8.51219 3.61244 8.51219 3.80904V13.8111Z" fill="#98A2B0"/>
<path d="M10.8254 0H3.85225C3.19794 0 2.6665 0.531436 2.6665 1.18575C2.6665 1.41614 2.85082 1.60045 3.08121 1.60045C3.3116 1.60045 3.49591 1.41614 3.49591 1.18575C3.49591 0.989146 3.65565 0.829408 3.85225 0.829408H10.8254C11.022 0.829408 11.1818 0.989146 11.1818 1.18575V11.1909C11.1818 11.3875 11.022 11.5472 10.8254 11.5472C10.595 11.5472 10.4107 11.7315 10.4107 11.9619C10.4107 12.1923 10.595 12.3766 10.8254 12.3766C11.4797 12.3766 12.0112 11.8452 12.0112 11.1909V1.18575C12.0112 0.531436 11.4797 0 10.8254 0Z" fill="#98A2B0"/>
</svg>
