<svg width="558" height="408" viewBox="0 0 558 408" fill="none" xmlns="http://www.w3.org/2000/svg">
<rect x="110" y="30" width="320" height="190" rx="5" fill="#DFDFDF"/>
<rect x="130" y="174" width="280" height="31" rx="3" fill="#FF2300"/>
<path d="M264.764 184.9H262.064V192H263.244V189.47H264.764C266.154 189.47 267.084 188.55 267.084 187.19C267.084 185.82 266.154 184.9 264.764 184.9ZM264.564 188.47H263.244V185.93H264.564C265.334 185.93 265.874 186.43 265.874 187.2C265.874 187.98 265.334 188.47 264.564 188.47ZM269.889 187.02C269.169 187.02 268.369 187.21 267.939 187.49L268.099 188.35C268.499 188.1 269.109 187.95 269.599 187.95C270.409 187.95 270.809 188.44 270.809 189.1V189.32C270.479 189.23 269.969 189.17 269.509 189.17C268.369 189.17 267.569 189.69 267.569 190.62C267.569 191.48 268.239 192.1 269.099 192.1C269.679 192.1 270.399 191.82 270.839 191.4L270.959 192H271.979V189.17C271.979 187.88 271.229 187.02 269.889 187.02ZM268.769 190.57C268.769 190.17 269.079 189.9 269.699 189.9C270.149 189.9 270.549 189.94 270.809 190.03V190.8C270.409 191.06 269.899 191.23 269.539 191.23C269.069 191.23 268.769 190.96 268.769 190.57ZM276.382 187.12L275.192 190.79L273.962 187.12H272.652V187.21L274.582 192.02L273.822 193.98H275.042L277.672 187.21V187.12H276.382Z" fill="white"/>
<rect x="130" y="104" width="280" height="28" rx="3" fill="#F9FCFF"/>
<rect x="130" y="137" width="70" height="28" rx="3" fill="#F9FCFF"/>
<rect x="204" y="137" width="70" height="28" rx="3" fill="#F9FCFF"/>
<rect x="280" y="137" width="130" height="28" rx="3" fill="#F9FCFF"/>
<rect x="320" y="52" width="80" height="5" fill="#676767"/>
<rect x="366" y="59" width="34" height="5" fill="#676767"/>
<rect x="375" y="66" width="25" height="5" fill="#676767"/>
<rect x="290" y="147" width="25" height="5" fill="#9A9A9A"/>
<rect x="210" y="148" width="10" height="5" fill="#9A9A9A"/>
<rect x="140" y="115" width="51" height="5" fill="#9A9A9A"/>
<rect x="140" y="148" width="10" height="5" fill="#9A9A9A"/>
<rect x="110" y="224" width="320" height="45" rx="5" fill="white"/>
<rect x="110" y="273" width="320" height="45" rx="5" fill="white"/>
<rect x="110" y="323" width="320" height="45" rx="5" fill="white"/>
<rect x="140" y="243" width="80" height="5" fill="#BABABA"/>
<rect x="140" y="294" width="80" height="5" fill="#BABABA"/>
<rect x="140" y="343" width="80" height="5" fill="#BABABA"/>
<rect x="120" y="241" width="10" height="10" rx="5" fill="#BABABA"/>
<rect x="120" y="292" width="10" height="10" rx="5" fill="#BABABA"/>
<rect x="120" y="340" width="10" height="10" rx="5" fill="#BABABA"/>
<path d="M209.813 397.9H207.273V405H208.203V402.42H209.813C211.183 402.42 212.113 401.52 212.113 400.16C212.113 398.81 211.183 397.9 209.813 397.9ZM209.653 401.61H208.203V398.72H209.653C210.513 398.72 211.133 399.3 211.133 400.16C211.133 401.03 210.513 401.61 209.653 401.61ZM215.14 405.1C216.57 405.1 217.53 404.09 217.53 402.58C217.53 401.05 216.57 400.04 215.12 400.04C213.69 400.04 212.74 401.05 212.74 402.58C212.74 404.09 213.7 405.1 215.14 405.1ZM215.14 404.33C214.31 404.33 213.7 403.59 213.7 402.58C213.7 401.51 214.26 400.81 215.12 400.81C215.99 400.81 216.57 401.51 216.57 402.58C216.57 403.63 216 404.33 215.14 404.33ZM224.144 400.14L223.094 403.9L222.024 400.23H221.234L220.154 403.91L219.114 400.14H218.144L219.594 405H220.644L221.624 401.67L222.614 405H223.664L225.104 400.14H224.144ZM229.978 402.51C229.978 400.96 229.268 400.04 228.018 400.04C226.598 400.04 225.728 401 225.728 402.57C225.728 404.16 226.638 405.1 228.118 405.1C228.698 405.1 229.288 404.96 229.628 404.75L229.488 404.06C229.188 404.24 228.738 404.34 228.258 404.34C227.268 404.34 226.758 403.76 226.688 402.72H229.838L229.978 402.51ZM227.958 400.79C228.588 400.79 228.928 401.16 229.008 402.02H226.708C226.828 401.24 227.298 400.79 227.958 400.79ZM233.457 400.04C232.917 400.04 232.407 400.44 232.027 401.04L231.907 400.04L231.107 400.13V405H232.027V401.71C232.367 401.25 232.837 400.94 233.307 400.94C233.547 400.94 233.847 401 234.017 401.12L234.057 401.11L234.207 400.32C234.027 400.16 233.717 400.04 233.457 400.04ZM238.914 402.51C238.914 400.96 238.204 400.04 236.954 400.04C235.534 400.04 234.664 401 234.664 402.57C234.664 404.16 235.574 405.1 237.054 405.1C237.634 405.1 238.224 404.96 238.564 404.75L238.424 404.06C238.124 404.24 237.674 404.34 237.194 404.34C236.204 404.34 235.694 403.76 235.624 402.72H238.774L238.914 402.51ZM236.894 400.79C237.524 400.79 237.864 401.16 237.944 402.02H235.644C235.764 401.24 236.234 400.79 236.894 400.79ZM243.163 398V400.28C242.803 400.09 242.333 400.04 242.013 400.04C240.613 400.04 239.713 401.03 239.713 402.63C239.713 404.16 240.503 405.1 241.693 405.1C242.253 405.1 242.783 404.89 243.183 404.49L243.283 405H244.093V397.8L243.163 398ZM240.673 402.62C240.673 401.49 241.203 400.81 242.083 400.81C242.333 400.81 242.833 400.86 243.163 401.03V403.75C242.793 404.12 242.383 404.33 241.953 404.33C241.183 404.33 240.673 403.72 240.673 402.62ZM251.621 401.3C252.391 401.08 252.721 400.36 252.721 399.74C252.721 398.86 252.061 397.9 250.611 397.9H248.151V405H250.891C252.411 405 253.111 403.99 253.111 403.06C253.111 402.19 252.501 401.43 251.621 401.3ZM251.741 399.86C251.741 400.41 251.461 400.99 250.381 400.99H249.131V398.72H250.381C251.461 398.72 251.741 399.3 251.741 399.86ZM250.671 404.18H249.131V401.76H250.671C251.761 401.76 252.141 402.36 252.141 402.96C252.141 403.55 251.761 404.18 250.671 404.18ZM257.49 400.14L256.11 404.05L254.74 400.14H253.71V400.22L255.62 405.13L254.89 407.02H255.86L258.5 400.22V400.14H257.49Z" fill="black"/>
<path d="M481.827 213.279L482.291 213.466L481.827 213.279ZM447.588 249.998L447.369 249.549L447.588 249.998ZM439.529 253.533C439.439 253.795 439.578 254.079 439.839 254.169L444.093 255.635C444.354 255.725 444.639 255.586 444.729 255.325C444.819 255.064 444.68 254.78 444.419 254.69L440.637 253.387L441.94 249.605C442.03 249.344 441.892 249.059 441.631 248.969C441.37 248.879 441.085 249.018 440.995 249.279L439.529 253.533ZM498.834 169.813L481.363 213.092L482.291 213.466L499.761 170.187L498.834 169.813ZM447.369 249.549L439.783 253.247L440.221 254.146L447.808 250.448L447.369 249.549ZM481.363 213.092C474.93 229.029 462.819 242.018 447.369 249.549L447.808 250.448C463.479 242.808 475.764 229.633 482.291 213.466L481.363 213.092Z" fill="#B8D6F2"/>
<path d="M471.152 131.48H468.104V140H469.22V136.904H471.152C472.796 136.904 473.912 135.824 473.912 134.192C473.912 132.572 472.796 131.48 471.152 131.48ZM470.96 135.932H469.22V132.464H470.96C471.992 132.464 472.736 133.16 472.736 134.192C472.736 135.236 471.992 135.932 470.96 135.932ZM477.28 134.048C476.416 134.048 475.528 134.288 475.024 134.636L475.18 135.488C475.672 135.152 476.404 134.96 477.016 134.96C478.06 134.96 478.564 135.632 478.564 136.496V136.784C478.156 136.676 477.52 136.604 476.92 136.604C475.492 136.604 474.58 137.252 474.58 138.344C474.58 139.388 475.408 140.12 476.416 140.12C477.1 140.12 478.024 139.784 478.576 139.292L478.708 140H479.668V136.568C479.668 135.068 478.78 134.048 477.28 134.048ZM475.732 138.344C475.732 137.792 476.152 137.444 476.992 137.444C477.616 137.444 478.216 137.504 478.564 137.612V138.584C478.036 138.98 477.304 139.232 476.788 139.232C476.152 139.232 475.732 138.872 475.732 138.344ZM485.146 134.168L483.49 138.86L481.846 134.168H480.61V134.264L482.902 140.156L482.026 142.424H483.19L486.358 134.264V134.168H485.146ZM493.987 134.048C493.087 134.048 492.355 134.576 491.911 134.96C491.587 134.324 491.011 134.048 490.387 134.048C489.547 134.048 488.983 134.456 488.551 134.792L488.431 134.048L487.471 134.156V140H488.575V135.632C488.959 135.308 489.487 134.972 490.087 134.972C490.651 134.972 491.071 135.296 491.071 136.508V140H492.175V136.28C492.175 136.052 492.163 135.848 492.127 135.668C492.523 135.344 493.063 134.972 493.687 134.972C494.251 134.972 494.659 135.296 494.659 136.508V140H495.775V136.28C495.775 134.684 494.947 134.048 493.987 134.048ZM502.288 137.012C502.288 135.152 501.436 134.048 499.936 134.048C498.232 134.048 497.188 135.2 497.188 137.084C497.188 138.992 498.28 140.12 500.056 140.12C500.752 140.12 501.46 139.952 501.868 139.7L501.7 138.872C501.34 139.088 500.8 139.208 500.224 139.208C499.036 139.208 498.424 138.512 498.34 137.264H502.12L502.288 137.012ZM499.864 134.948C500.62 134.948 501.028 135.392 501.124 136.424H498.364C498.508 135.488 499.072 134.948 499.864 134.948ZM506.787 134.048C505.947 134.048 505.191 134.468 504.723 134.804L504.603 134.048L503.643 134.156V140H504.747V135.62C505.191 135.308 505.863 134.972 506.475 134.972C507.051 134.972 507.459 135.296 507.459 136.508V140H508.575V136.28C508.575 134.684 507.735 134.048 506.787 134.048ZM513.513 139.04C513.333 139.124 512.889 139.196 512.637 139.196C512.061 139.196 511.749 138.884 511.749 137.852V135.032H513.561V134.168H511.749V132.644H510.921L510.669 134.168H509.697V135.032H510.633V137.996C510.633 139.628 511.353 140.12 512.349 140.12C512.721 140.12 513.321 140.06 513.681 139.916L513.513 139.04ZM471.752 154.12C472.508 154.12 473.408 153.94 473.984 153.676L473.816 152.764C473.276 152.98 472.532 153.136 471.992 153.136C470.06 153.136 468.752 151.78 468.752 149.74C468.752 147.7 470.06 146.344 471.992 146.344C472.52 146.344 473.228 146.5 473.816 146.728L473.984 145.804C473.408 145.54 472.508 145.36 471.752 145.36C469.22 145.36 467.576 147.112 467.576 149.74C467.576 152.368 469.22 154.12 471.752 154.12ZM478.428 148.048C477.6 148.048 476.868 148.456 476.388 148.792V145.36L475.284 145.6V154H476.388V149.62C476.832 149.308 477.504 148.972 478.116 148.972C478.692 148.972 479.1 149.296 479.1 150.508V154H480.216V150.28C480.216 148.684 479.376 148.048 478.428 148.048ZM484.194 148.048C483.33 148.048 482.442 148.288 481.938 148.636L482.094 149.488C482.586 149.152 483.318 148.96 483.93 148.96C484.974 148.96 485.478 149.632 485.478 150.496V150.784C485.07 150.676 484.434 150.604 483.834 150.604C482.406 150.604 481.494 151.252 481.494 152.344C481.494 153.388 482.322 154.12 483.33 154.12C484.014 154.12 484.938 153.784 485.49 153.292L485.622 154H486.582V150.568C486.582 149.068 485.694 148.048 484.194 148.048ZM482.646 152.344C482.646 151.792 483.066 151.444 483.906 151.444C484.53 151.444 485.13 151.504 485.478 151.612V152.584C484.95 152.98 484.218 153.232 483.702 153.232C483.066 153.232 482.646 152.872 482.646 152.344ZM491.529 148.048C490.689 148.048 489.933 148.468 489.465 148.804L489.345 148.048L488.385 148.156V154H489.489V149.62C489.933 149.308 490.605 148.972 491.217 148.972C491.793 148.972 492.201 149.296 492.201 150.508V154H493.317V150.28C493.317 148.684 492.477 148.048 491.529 148.048ZM498.268 148.048C497.428 148.048 496.672 148.468 496.204 148.804L496.084 148.048L495.124 148.156V154H496.228V149.62C496.672 149.308 497.344 148.972 497.956 148.972C498.532 148.972 498.94 149.296 498.94 150.508V154H500.056V150.28C500.056 148.684 499.216 148.048 498.268 148.048ZM506.566 151.012C506.566 149.152 505.714 148.048 504.214 148.048C502.51 148.048 501.466 149.2 501.466 151.084C501.466 152.992 502.558 154.12 504.334 154.12C505.03 154.12 505.738 153.952 506.146 153.7L505.978 152.872C505.618 153.088 505.078 153.208 504.502 153.208C503.314 153.208 502.702 152.512 502.618 151.264H506.398L506.566 151.012ZM504.142 148.948C504.898 148.948 505.306 149.392 505.402 150.424H502.642C502.786 149.488 503.35 148.948 504.142 148.948ZM507.944 154H509.06V145.36L507.944 145.6V154ZM518.135 149.56C519.059 149.296 519.455 148.432 519.455 147.688C519.455 146.632 518.663 145.48 516.923 145.48H513.971V154H517.259C519.083 154 519.923 152.788 519.923 151.672C519.923 150.628 519.191 149.716 518.135 149.56ZM518.279 147.832C518.279 148.492 517.943 149.188 516.647 149.188H515.147V146.464H516.647C517.943 146.464 518.279 147.16 518.279 147.832ZM516.995 153.016H515.147V150.112H516.995C518.303 150.112 518.759 150.832 518.759 151.552C518.759 152.26 518.303 153.016 516.995 153.016ZM523.869 154.12C525.585 154.12 526.737 152.908 526.737 151.096C526.737 149.26 525.585 148.048 523.845 148.048C522.129 148.048 520.989 149.26 520.989 151.096C520.989 152.908 522.141 154.12 523.869 154.12ZM523.869 153.196C522.873 153.196 522.141 152.308 522.141 151.096C522.141 149.812 522.813 148.972 523.845 148.972C524.889 148.972 525.585 149.812 525.585 151.096C525.585 152.356 524.901 153.196 523.869 153.196ZM531.026 148.048C530.378 148.048 529.766 148.528 529.31 149.248L529.166 148.048L528.206 148.156V154H529.31V150.052C529.718 149.5 530.282 149.128 530.846 149.128C531.134 149.128 531.494 149.2 531.698 149.344L531.746 149.332L531.926 148.384C531.71 148.192 531.338 148.048 531.026 148.048ZM536.614 145.6V148.336C536.182 148.108 535.618 148.048 535.234 148.048C533.554 148.048 532.474 149.236 532.474 151.156C532.474 152.992 533.422 154.12 534.85 154.12C535.522 154.12 536.158 153.868 536.638 153.388L536.758 154H537.73V145.36L536.614 145.6ZM533.626 151.144C533.626 149.788 534.262 148.972 535.318 148.972C535.618 148.972 536.218 149.032 536.614 149.236V152.5C536.17 152.944 535.678 153.196 535.162 153.196C534.238 153.196 533.626 152.464 533.626 151.144ZM544.288 151.012C544.288 149.152 543.436 148.048 541.936 148.048C540.232 148.048 539.188 149.2 539.188 151.084C539.188 152.992 540.28 154.12 542.056 154.12C542.752 154.12 543.46 153.952 543.868 153.7L543.7 152.872C543.34 153.088 542.8 153.208 542.224 153.208C541.036 153.208 540.424 152.512 540.34 151.264H544.12L544.288 151.012ZM541.864 148.948C542.62 148.948 543.028 149.392 543.124 150.424H540.364C540.508 149.488 541.072 148.948 541.864 148.948ZM548.463 148.048C547.815 148.048 547.203 148.528 546.747 149.248L546.603 148.048L545.643 148.156V154H546.747V150.052C547.155 149.5 547.719 149.128 548.283 149.128C548.571 149.128 548.931 149.2 549.135 149.344L549.183 149.332L549.363 148.384C549.147 148.192 548.775 148.048 548.463 148.048ZM471.752 168.12C472.508 168.12 473.408 167.94 473.984 167.676L473.816 166.764C473.276 166.98 472.532 167.136 471.992 167.136C470.06 167.136 468.752 165.78 468.752 163.74C468.752 161.7 470.06 160.344 471.992 160.344C472.52 160.344 473.228 160.5 473.816 160.728L473.984 159.804C473.408 159.54 472.508 159.36 471.752 159.36C469.22 159.36 467.576 161.112 467.576 163.74C467.576 166.368 469.22 168.12 471.752 168.12ZM477.638 168.12C479.354 168.12 480.506 166.908 480.506 165.096C480.506 163.26 479.354 162.048 477.614 162.048C475.898 162.048 474.758 163.26 474.758 165.096C474.758 166.908 475.91 168.12 477.638 168.12ZM477.638 167.196C476.642 167.196 475.91 166.308 475.91 165.096C475.91 163.812 476.582 162.972 477.614 162.972C478.658 162.972 479.354 163.812 479.354 165.096C479.354 166.356 478.67 167.196 477.638 167.196ZM481.999 168H483.115V159.36L481.999 159.6V168ZM487.482 168.12C489.198 168.12 490.35 166.908 490.35 165.096C490.35 163.26 489.198 162.048 487.458 162.048C485.742 162.048 484.602 163.26 484.602 165.096C484.602 166.908 485.754 168.12 487.482 168.12ZM487.482 167.196C486.486 167.196 485.754 166.308 485.754 165.096C485.754 163.812 486.426 162.972 487.458 162.972C488.502 162.972 489.198 163.812 489.198 165.096C489.198 166.356 488.514 167.196 487.482 167.196ZM494.639 162.048C493.991 162.048 493.379 162.528 492.923 163.248L492.779 162.048L491.819 162.156V168H492.923V164.052C493.331 163.5 493.895 163.128 494.459 163.128C494.747 163.128 495.107 163.2 495.311 163.344L495.359 163.332L495.539 162.384C495.323 162.192 494.951 162.048 494.639 162.048Z" fill="#676767"/>
<path d="M66.76 212.254L66.6 211.78L66.76 212.254ZM118.743 195.074C118.865 194.827 118.764 194.527 118.517 194.404L114.484 192.408C114.236 192.285 113.936 192.386 113.814 192.634C113.691 192.881 113.793 193.181 114.04 193.304L117.625 195.079L115.85 198.663C115.727 198.911 115.829 199.211 116.076 199.333C116.324 199.456 116.623 199.354 116.746 199.107L118.743 195.074ZM56.9753 272.972L56.4805 272.9L56.9753 272.972ZM52.6305 253.695L53.0465 253.417L52.6305 253.695ZM66.9199 212.728L118.455 195.326L118.135 194.379L66.6 211.78L66.9199 212.728ZM56.4943 279.745L57.47 273.044L56.4805 272.9L55.5047 279.601L56.4943 279.745ZM57.47 273.044C58.4695 266.18 56.8938 259.189 53.0465 253.417L52.2145 253.972C55.9247 259.538 57.4443 266.28 56.4805 272.9L57.47 273.044ZM66.6 211.78C49.0963 217.691 41.9674 238.599 52.2145 253.972L53.0465 253.417C43.1643 238.592 50.0394 218.428 66.9199 212.728L66.6 211.78Z" fill="#B8D6F2"/>
<path d="M15.152 282.48H12.104V291H13.22V287.904H15.152C16.796 287.904 17.912 286.824 17.912 285.192C17.912 283.572 16.796 282.48 15.152 282.48ZM14.96 286.932H13.22V283.464H14.96C15.992 283.464 16.736 284.16 16.736 285.192C16.736 286.236 15.992 286.932 14.96 286.932ZM21.2799 285.048C20.4159 285.048 19.5279 285.288 19.0239 285.636L19.1799 286.488C19.6719 286.152 20.4039 285.96 21.0159 285.96C22.0599 285.96 22.5639 286.632 22.5639 287.496V287.784C22.1559 287.676 21.5199 287.604 20.9199 287.604C19.4919 287.604 18.5799 288.252 18.5799 289.344C18.5799 290.388 19.4079 291.12 20.4159 291.12C21.0999 291.12 22.0239 290.784 22.5759 290.292L22.7079 291H23.6679V287.568C23.6679 286.068 22.7799 285.048 21.2799 285.048ZM19.7319 289.344C19.7319 288.792 20.1519 288.444 20.9919 288.444C21.6159 288.444 22.2159 288.504 22.5639 288.612V289.584C22.0359 289.98 21.3039 290.232 20.7879 290.232C20.1519 290.232 19.7319 289.872 19.7319 289.344ZM29.146 285.168L27.49 289.86L25.846 285.168H24.61V285.264L26.902 291.156L26.026 293.424H27.19L30.358 285.264V285.168H29.146ZM38.4516 286.56C39.3756 286.296 39.7716 285.432 39.7716 284.688C39.7716 283.632 38.9796 282.48 37.2396 282.48H34.2876V291H37.5756C39.3996 291 40.2396 289.788 40.2396 288.672C40.2396 287.628 39.5076 286.716 38.4516 286.56ZM38.5956 284.832C38.5956 285.492 38.2596 286.188 36.9636 286.188H35.4636V283.464H36.9636C38.2596 283.464 38.5956 284.16 38.5956 284.832ZM37.3116 290.016H35.4636V287.112H37.3116C38.6196 287.112 39.0756 287.832 39.0756 288.552C39.0756 289.26 38.6196 290.016 37.3116 290.016ZM45.4576 285.168V289.548C45.0016 289.86 44.3416 290.196 43.7416 290.196C43.1656 290.196 42.7456 289.872 42.7456 288.66V285.168H41.6416V288.888C41.6416 290.484 42.4696 291.12 43.4296 291.12C44.2696 291.12 45.0136 290.712 45.4816 290.376L45.6136 291H46.5736V285.168H45.4576ZM51.5719 290.04C51.3919 290.124 50.9479 290.196 50.6959 290.196C50.1199 290.196 49.8079 289.884 49.8079 288.852V286.032H51.6199V285.168H49.8079V283.644H48.9799L48.7279 285.168H47.7559V286.032H48.6919V288.996C48.6919 290.628 49.4119 291.12 50.4079 291.12C50.7799 291.12 51.3799 291.06 51.7399 290.916L51.5719 290.04ZM56.0133 290.04C55.8333 290.124 55.3893 290.196 55.1373 290.196C54.5613 290.196 54.2493 289.884 54.2493 288.852V286.032H56.0613V285.168H54.2493V283.644H53.4213L53.1693 285.168H52.1973V286.032H53.1333V288.996C53.1333 290.628 53.8533 291.12 54.8493 291.12C55.2213 291.12 55.8213 291.06 56.1813 290.916L56.0133 290.04ZM59.7244 291.12C61.4404 291.12 62.5924 289.908 62.5924 288.096C62.5924 286.26 61.4404 285.048 59.7004 285.048C57.9844 285.048 56.8444 286.26 56.8444 288.096C56.8444 289.908 57.9964 291.12 59.7244 291.12ZM59.7244 290.196C58.7284 290.196 57.9964 289.308 57.9964 288.096C57.9964 286.812 58.6684 285.972 59.7004 285.972C60.7444 285.972 61.4404 286.812 61.4404 288.096C61.4404 289.356 60.7564 290.196 59.7244 290.196ZM67.205 285.048C66.365 285.048 65.609 285.468 65.141 285.804L65.021 285.048L64.061 285.156V291H65.165V286.62C65.609 286.308 66.281 285.972 66.893 285.972C67.469 285.972 67.877 286.296 67.877 287.508V291H68.993V287.28C68.993 285.684 68.153 285.048 67.205 285.048ZM18.5997 305.12C19.3557 305.12 20.2557 304.94 20.8317 304.676L20.6637 303.764C20.1237 303.98 19.3797 304.136 18.8397 304.136C16.9077 304.136 15.5997 302.78 15.5997 300.74C15.5997 298.7 16.9077 297.344 18.8397 297.344C19.3677 297.344 20.0757 297.5 20.6637 297.728L20.8317 296.804C20.2557 296.54 19.3557 296.36 18.5997 296.36C16.0677 296.36 14.4237 298.112 14.4237 300.74C14.4237 303.368 16.0677 305.12 18.5997 305.12ZM24.4861 305.12C26.2021 305.12 27.3541 303.908 27.3541 302.096C27.3541 300.26 26.2021 299.048 24.4621 299.048C22.7461 299.048 21.6061 300.26 21.6061 302.096C21.6061 303.908 22.7581 305.12 24.4861 305.12ZM24.4861 304.196C23.4901 304.196 22.7581 303.308 22.7581 302.096C22.7581 300.812 23.4301 299.972 24.4621 299.972C25.5061 299.972 26.2021 300.812 26.2021 302.096C26.2021 303.356 25.5181 304.196 24.4861 304.196ZM28.8467 305H29.9627V296.36L28.8467 296.6V305ZM34.3299 305.12C36.0459 305.12 37.1979 303.908 37.1979 302.096C37.1979 300.26 36.0459 299.048 34.3059 299.048C32.5899 299.048 31.4499 300.26 31.4499 302.096C31.4499 303.908 32.6019 305.12 34.3299 305.12ZM34.3299 304.196C33.3339 304.196 32.6019 303.308 32.6019 302.096C32.6019 300.812 33.2739 299.972 34.3059 299.972C35.3499 299.972 36.0459 300.812 36.0459 302.096C36.0459 303.356 35.3619 304.196 34.3299 304.196ZM41.4865 299.048C40.8385 299.048 40.2265 299.528 39.7705 300.248L39.6265 299.048L38.6665 299.156V305H39.7705V301.052C40.1785 300.5 40.7425 300.128 41.3065 300.128C41.5945 300.128 41.9545 300.2 42.1585 300.344L42.2065 300.332L42.3865 299.384C42.1705 299.192 41.7985 299.048 41.4865 299.048Z" fill="#676767"/>
<path d="M29.6464 52.3536C29.8417 52.5488 30.1583 52.5488 30.3536 52.3536L33.5355 49.1716C33.7308 48.9763 33.7308 48.6597 33.5355 48.4645C33.3403 48.2692 33.0237 48.2692 32.8284 48.4645L30 51.2929L27.1716 48.4645C26.9763 48.2692 26.6597 48.2692 26.4645 48.4645C26.2692 48.6597 26.2692 48.9763 26.4645 49.1716L29.6464 52.3536ZM29.5 0L29.5 52H30.5L30.5 0L29.5 0Z" fill="#B8D6F2"/>
<path d="M5.268 62.56C6.192 62.296 6.588 61.432 6.588 60.688C6.588 59.632 5.796 58.48 4.056 58.48H1.104V67H4.392C6.216 67 7.056 65.788 7.056 64.672C7.056 63.628 6.324 62.716 5.268 62.56ZM5.412 60.832C5.412 61.492 5.076 62.188 3.78 62.188H2.28V59.464H3.78C5.076 59.464 5.412 60.16 5.412 60.832ZM4.128 66.016H2.28V63.112H4.128C5.436 63.112 5.892 63.832 5.892 64.552C5.892 65.26 5.436 66.016 4.128 66.016ZM10.7018 61.048C9.83775 61.048 8.94975 61.288 8.44575 61.636L8.60175 62.488C9.09375 62.152 9.82575 61.96 10.4378 61.96C11.4818 61.96 11.9858 62.632 11.9858 63.496V63.784C11.5778 63.676 10.9418 63.604 10.3418 63.604C8.91375 63.604 8.00175 64.252 8.00175 65.344C8.00175 66.388 8.82975 67.12 9.83775 67.12C10.5218 67.12 11.4458 66.784 11.9978 66.292L12.1298 67H13.0898V63.568C13.0898 62.068 12.2018 61.048 10.7018 61.048ZM9.15375 65.344C9.15375 64.792 9.57375 64.444 10.4138 64.444C11.0378 64.444 11.6378 64.504 11.9858 64.612V65.584C11.4578 65.98 10.7258 66.232 10.2098 66.232C9.57375 66.232 9.15375 65.872 9.15375 65.344ZM17.413 67.12C18.061 67.12 18.817 66.952 19.201 66.712L19.045 65.86C18.709 66.064 18.013 66.196 17.545 66.196C16.321 66.196 15.637 65.344 15.637 64.06C15.637 62.812 16.285 61.972 17.257 61.972C17.833 61.972 18.421 62.164 18.721 62.44L19.237 61.708C18.829 61.312 18.025 61.048 17.233 61.048C15.673 61.048 14.485 62.26 14.485 64.096C14.485 65.92 15.637 67.12 17.413 67.12ZM22.7738 63.736L24.9938 61.276V61.168H23.7338L21.6338 63.604V58.36L20.5298 58.6V67H21.6338V64.012L24.2858 67H25.5578V66.892L22.7738 63.736ZM29.7137 66.304L27.9017 66.04C27.5657 65.992 27.3977 65.884 27.3977 65.704L27.7937 65.2C28.0097 65.26 28.2617 65.284 28.5137 65.284C29.9897 65.284 30.9617 64.396 30.9617 63.172C30.9617 62.584 30.7337 62.068 30.3257 61.684C30.6737 61.468 31.0457 61.324 31.3817 61.288L31.0337 60.28C30.4457 60.412 29.9177 60.832 29.5697 61.228C29.2577 61.108 28.9097 61.048 28.5137 61.048C27.0377 61.048 26.0657 61.96 26.0657 63.172C26.0657 63.916 26.4257 64.54 27.0377 64.912L26.2577 65.716C26.2457 66.052 26.3417 66.34 26.5457 66.556C25.9697 66.796 25.5017 67.264 25.5017 67.9C25.5017 69.016 26.6057 69.568 28.4177 69.568C30.3137 69.568 31.4297 68.944 31.4297 67.84C31.4297 67.06 30.8417 66.46 29.7137 66.304ZM28.4777 61.876C29.3057 61.876 29.8697 62.404 29.8697 63.184C29.8697 63.952 29.3417 64.468 28.5257 64.468C27.6977 64.468 27.1577 63.94 27.1577 63.172C27.1577 62.404 27.6497 61.876 28.4777 61.876ZM28.5737 68.692C27.8537 68.692 26.5697 68.584 26.5697 67.732C26.5697 67.288 26.8817 67.084 27.2537 66.952C27.3377 66.976 27.4217 67 27.5177 67.012L29.4017 67.276C29.9657 67.336 30.3377 67.516 30.3377 67.936C30.3377 68.392 29.6297 68.692 28.5737 68.692ZM35.3849 61.048C34.7369 61.048 34.1249 61.528 33.6689 62.248L33.5249 61.048L32.5649 61.156V67H33.6689V63.052C34.0769 62.5 34.6409 62.128 35.2049 62.128C35.4929 62.128 35.8529 62.2 36.0569 62.344L36.1049 62.332L36.2849 61.384C36.0689 61.192 35.6969 61.048 35.3849 61.048ZM39.701 67.12C41.417 67.12 42.569 65.908 42.569 64.096C42.569 62.26 41.417 61.048 39.677 61.048C37.961 61.048 36.821 62.26 36.821 64.096C36.821 65.908 37.973 67.12 39.701 67.12ZM39.701 66.196C38.705 66.196 37.973 65.308 37.973 64.096C37.973 62.812 38.645 61.972 39.677 61.972C40.721 61.972 41.417 62.812 41.417 64.096C41.417 65.356 40.733 66.196 39.701 66.196ZM47.7936 61.168V65.548C47.3376 65.86 46.6776 66.196 46.0776 66.196C45.5016 66.196 45.0816 65.872 45.0816 64.66V61.168H43.9776V64.888C43.9776 66.484 44.8056 67.12 45.7656 67.12C46.6056 67.12 47.3496 66.712 47.8176 66.376L47.9496 67H48.9096V61.168H47.7936ZM53.9198 61.048C53.0798 61.048 52.3238 61.468 51.8558 61.804L51.7358 61.048L50.7758 61.156V67H51.8798V62.62C52.3238 62.308 52.9958 61.972 53.6078 61.972C54.1838 61.972 54.5918 62.296 54.5918 63.508V67H55.7078V63.28C55.7078 61.684 54.8678 61.048 53.9198 61.048ZM61.2581 58.6V61.336C60.8261 61.108 60.2621 61.048 59.8781 61.048C58.1981 61.048 57.1181 62.236 57.1181 64.156C57.1181 65.992 58.0661 67.12 59.4941 67.12C60.1661 67.12 60.8021 66.868 61.2821 66.388L61.4021 67H62.3741V58.36L61.2581 58.6ZM58.2701 64.144C58.2701 62.788 58.9061 61.972 59.9621 61.972C60.2621 61.972 60.8621 62.032 61.2581 62.236V65.5C60.8141 65.944 60.3221 66.196 59.8061 66.196C58.8821 66.196 58.2701 65.464 58.2701 64.144ZM4.752 81.12C5.508 81.12 6.408 80.94 6.984 80.676L6.816 79.764C6.276 79.98 5.532 80.136 4.992 80.136C3.06 80.136 1.752 78.78 1.752 76.74C1.752 74.7 3.06 73.344 4.992 73.344C5.52 73.344 6.228 73.5 6.816 73.728L6.984 72.804C6.408 72.54 5.508 72.36 4.752 72.36C2.22 72.36 0.576 74.112 0.576 76.74C0.576 79.368 2.22 81.12 4.752 81.12ZM10.6385 81.12C12.3545 81.12 13.5065 79.908 13.5065 78.096C13.5065 76.26 12.3545 75.048 10.6145 75.048C8.89847 75.048 7.75847 76.26 7.75847 78.096C7.75847 79.908 8.91047 81.12 10.6385 81.12ZM10.6385 80.196C9.64247 80.196 8.91047 79.308 8.91047 78.096C8.91047 76.812 9.58247 75.972 10.6145 75.972C11.6585 75.972 12.3545 76.812 12.3545 78.096C12.3545 79.356 11.6705 80.196 10.6385 80.196ZM14.9991 81H16.1151V72.36L14.9991 72.6V81ZM20.4822 81.12C22.1982 81.12 23.3502 79.908 23.3502 78.096C23.3502 76.26 22.1982 75.048 20.4582 75.048C18.7422 75.048 17.6022 76.26 17.6022 78.096C17.6022 79.908 18.7542 81.12 20.4822 81.12ZM20.4822 80.196C19.4862 80.196 18.7542 79.308 18.7542 78.096C18.7542 76.812 19.4262 75.972 20.4582 75.972C21.5022 75.972 22.1982 76.812 22.1982 78.096C22.1982 79.356 21.5142 80.196 20.4822 80.196ZM27.6388 75.048C26.9908 75.048 26.3788 75.528 25.9228 76.248L25.7788 75.048L24.8188 75.156V81H25.9228V77.052C26.3308 76.5 26.8948 76.128 27.4588 76.128C27.7468 76.128 28.1068 76.2 28.3108 76.344L28.3588 76.332L28.5388 75.384C28.3228 75.192 27.9508 75.048 27.6388 75.048Z" fill="#676767"/>
</svg>
