<svg width="15" height="15" viewBox="0 0 15 15" fill="none" xmlns="http://www.w3.org/2000/svg">
<g clip-path="url(#clip0)">
<path d="M0.0475734 1.37781L1.04795 3.12837C1.0817 3.18752 1.13818 3.23032 1.20422 3.24688L2.13753 3.48021L5.33856 6.68124L5.69225 6.32765L2.44112 3.07662C2.40913 3.04452 2.369 3.02179 2.32507 3.01078L1.42829 2.78579L0.576569 1.29448L1.30679 0.564252L2.79872 1.4168L3.02382 2.31358C3.03472 2.35761 3.05756 2.39784 3.08956 2.42983L6.34069 5.68097L6.69428 5.32727L3.49325 2.12624L3.25992 1.19345C3.24336 1.1273 3.20056 1.07072 3.14141 1.03687L1.39074 0.0365938C1.29311 -0.01896 1.17027 -0.00249957 1.09065 0.0768189L0.0903704 1.0772C0.00992027 1.15631 -0.00756888 1.27935 0.0475734 1.37781Z" fill="#4D4D4D"/>
<path d="M10.4453 4.92976L4.94354 10.4316L4.58984 10.078L10.0917 4.57617L10.4453 4.92976Z" fill="#4D4D4D"/>
<path d="M3.98079 10.6252C3.93553 10.5499 3.85425 10.5039 3.7664 10.5039H2.26593C2.17817 10.5039 2.0968 10.5499 2.05163 10.6252L1.30135 11.8756C1.25372 11.9548 1.25372 12.0538 1.30135 12.1332L2.05163 13.3835C2.0968 13.4587 2.17817 13.5048 2.26593 13.5048H3.7664C3.85425 13.5048 3.93553 13.4587 3.98079 13.3835L4.73097 12.1332C4.77861 12.0538 4.77861 11.9548 4.73097 11.8756L3.98079 10.6252ZM3.62494 13.0046H2.40749L1.8073 12.0044L2.40749 11.004H3.62494L4.22513 12.0044L3.62494 13.0046Z" fill="#4D4D4D"/>
<path d="M12.0196 6.00248C13.6713 6.00804 15.0148 4.67351 15.0204 3.02181C15.0212 2.77038 14.9904 2.51998 14.9285 2.27626C14.8952 2.14221 14.7595 2.06063 14.6255 2.09396C14.5814 2.10497 14.5413 2.12771 14.5092 2.1597L12.9525 3.71541L11.7173 3.3038L11.3054 2.06896L12.8621 0.511912C12.9598 0.414179 12.9597 0.25585 12.8619 0.15822C12.8297 0.126019 12.7892 0.10318 12.7449 0.0922753C11.1431 -0.31337 9.51584 0.656249 9.1102 2.25795C9.04857 2.50094 9.01781 2.75073 9.01864 3.00144C9.01925 3.19835 9.03952 3.39464 9.07944 3.58743L3.60255 9.06422C3.40976 9.0244 3.21347 9.00414 3.01666 9.00342C1.3592 9.00342 0.015625 10.347 0.015625 12.0045C0.015625 13.6618 1.3592 15.0054 3.01666 15.0054C4.67402 15.0054 6.0176 13.6618 6.0176 12.0045C6.01698 11.8075 5.99661 11.6113 5.9568 11.4185L7.26797 10.1073L7.84141 10.6807C7.93914 10.7784 8.09737 10.7784 8.1951 10.6807L8.3201 10.5556C8.42977 10.4467 8.60702 10.4467 8.71669 10.5556C8.82626 10.6649 8.82646 10.8422 8.71721 10.9518C8.7171 10.9519 8.7169 10.9521 8.71669 10.9523L8.59169 11.0773C8.49406 11.175 8.49406 11.3333 8.59169 11.4309L11.5749 14.4142C12.3596 15.206 13.6375 15.2118 14.4294 14.4271C15.2211 13.6425 15.2269 12.3644 14.4422 11.5727C14.438 11.5684 14.4337 11.564 14.4294 11.5597L11.4461 8.57658C11.3485 8.47895 11.1902 8.47895 11.0925 8.57658L10.9675 8.70157C10.8578 8.81062 10.6806 8.81062 10.5709 8.70157C10.4614 8.59232 10.4611 8.41496 10.5703 8.3055C10.5705 8.30529 10.5707 8.30519 10.5709 8.30498L10.696 8.17988C10.7936 8.08225 10.7936 7.92392 10.696 7.82629L10.1225 7.25285L11.4337 5.94168C11.6265 5.98149 11.8228 6.00186 12.0196 6.00248ZM13.0022 14.5053C12.8205 14.505 12.6403 14.4722 12.4703 14.4083L14.4234 12.4551C14.7182 13.2391 14.3216 14.1135 13.5375 14.4083C13.3664 14.4726 13.1851 14.5055 13.0022 14.5053ZM10.169 8.00561C9.89207 8.33595 9.93548 8.82832 10.2658 9.10516C10.5561 9.34847 10.9793 9.34826 11.2693 9.10444L14.0758 11.9134C14.1062 11.944 14.1347 11.9762 14.1623 12.0089L12.0241 14.1471C11.9913 14.1196 11.9591 14.0911 11.9285 14.0606L9.11987 11.2517C9.39681 10.9214 9.3534 10.429 9.02306 10.1521C8.73274 9.90874 8.3095 9.90905 8.01949 10.1528L7.6194 9.75267L9.76882 7.60644L10.169 8.00561ZM11.1789 5.49036L5.50568 11.1624C5.44344 11.2245 5.41844 11.3148 5.43963 11.4C5.78273 12.7474 4.96856 14.1179 3.62107 14.4609C2.27368 14.804 0.903252 13.9898 0.560155 12.6423C0.217162 11.2949 1.03133 9.92448 2.37882 9.58138C2.78642 9.47768 3.21347 9.47768 3.62107 9.58138C3.70635 9.60227 3.79637 9.57727 3.85872 9.51544L9.53055 3.84329C9.59269 3.78115 9.61769 3.69093 9.59629 3.60575C9.25556 2.2741 10.0588 0.918381 11.3905 0.577548C11.6421 0.51325 11.9024 0.488559 12.1616 0.504711L10.8424 1.82442C10.7755 1.89129 10.752 1.99036 10.782 2.08018L11.282 3.58075C11.307 3.65533 11.3657 3.71397 11.4404 3.73877L12.9409 4.23896C13.0307 4.26889 13.1297 4.24554 13.1967 4.17867L14.5159 2.85947C14.5189 2.90721 14.5204 2.95443 14.5204 3.00144C14.5274 4.37558 13.4192 5.49519 12.0451 5.50229C11.8326 5.50332 11.6209 5.47719 11.4152 5.42452C11.3299 5.40322 11.2397 5.42812 11.1775 5.49025H11.1789V5.49036Z" fill="#4D4D4D"/>
<path d="M12.9443 12.5789L12.5906 12.9326L10.0898 10.4318L10.4434 10.0781L12.9443 12.5789Z" fill="#4D4D4D"/>
</g>
<defs>
<clipPath id="clip0">
<rect width="15" height="15" fill="white"/>
</clipPath>
</defs>
</svg>
