<svg width="149" height="32" viewBox="0 0 149 32" fill="none" xmlns="http://www.w3.org/2000/svg">
<g opacity="0.5" clip-path="url(#clip0)">
<path d="M45.4938 4.39917H37.702C37.4536 4.39917 37.2363 4.61647 37.2363 4.8648V22.4347C37.2363 22.683 37.4536 22.9003 37.702 22.9003H45.5249C51.6715 22.9003 55.645 19.2684 55.645 13.6497C55.645 8.00006 51.6715 4.39917 45.4938 4.39917ZM45.4938 17.9956H42.8241V9.27279H45.5249C48.2877 9.27279 49.9641 10.887 49.9641 13.6187C49.9641 15.7916 48.443 17.9956 45.4938 17.9956Z" fill="#011B33"/>
<path d="M90.2272 9.14844C88.0853 9.14844 86.3158 10.328 85.5397 11.5076C84.9809 9.95552 83.6771 9.14844 81.6903 9.14844C79.4863 9.14844 77.841 10.266 77.2511 11.011V9.95552C77.2511 9.70719 77.0338 9.48989 76.7855 9.48989H72.7188C72.4705 9.48989 72.2532 9.70719 72.2532 9.95552V22.4034C72.2532 22.6517 72.4705 22.869 72.7188 22.869H76.7855C77.0338 22.869 77.2511 22.6517 77.2511 22.4034V14.6118C77.5305 14.2704 78.1514 13.5564 79.269 13.5564C80.2624 13.5564 80.7901 14.0841 80.7901 15.0464V22.4034C80.7901 22.6517 81.0074 22.869 81.2557 22.869H85.3224C85.5708 22.869 85.7881 22.6517 85.7881 22.4034V14.6118C86.0675 14.2704 86.6883 13.5564 87.8369 13.5564C88.7993 13.5564 89.3581 14.1152 89.3581 15.0464V22.4034C89.3581 22.6517 89.5754 22.869 89.8237 22.869H93.8904C94.1387 22.869 94.356 22.6517 94.356 22.4034V13.1529C94.3871 10.5764 92.897 9.14844 90.2272 9.14844Z" fill="#011B33"/>
<path d="M100.937 9.48999H96.8707C96.6223 9.48999 96.405 9.70729 96.405 9.95562V22.4035C96.405 22.6519 96.6223 22.8691 96.8707 22.8691H100.937C101.186 22.8691 101.403 22.6519 101.403 22.4035V9.95562C101.403 9.70729 101.186 9.48999 100.937 9.48999Z" fill="#011B33"/>
<path d="M99.0126 2.90918C97.4605 2.90918 96.2188 4.15087 96.2188 5.70297C96.2188 7.25508 97.4915 8.49676 99.0126 8.49676C100.565 8.49676 101.807 7.25508 101.807 5.70297C101.838 4.18191 100.565 2.90918 99.0126 2.90918Z" fill="#011B33"/>
<path d="M113.106 9.14844C110.529 9.14844 109.101 10.297 108.512 11.011V9.95552C108.512 9.70719 108.294 9.48989 108.046 9.48989H103.979C103.731 9.48989 103.514 9.70719 103.514 9.95552V22.4034C103.514 22.6517 103.731 22.869 103.979 22.869H108.046C108.294 22.869 108.512 22.6517 108.512 22.4034V14.6118C108.822 14.2393 109.443 13.5564 110.654 13.5564C111.957 13.5564 112.609 14.2083 112.609 15.481V22.4345C112.609 22.6828 112.827 22.9001 113.075 22.9001H117.142C117.39 22.9001 117.607 22.6828 117.607 22.4345V13.4012C117.576 10.7316 115.9 9.14844 113.106 9.14844Z" fill="#011B33"/>
<path d="M63.7163 9.08643C59.8048 9.08643 56.6384 12.2527 56.6384 16.164C56.6384 20.0753 59.8048 23.2417 63.7163 23.2417C67.6278 23.2417 70.7942 20.0753 70.7942 16.164C70.7631 12.2527 67.5967 9.08643 63.7163 9.08643ZM63.7163 18.4922C62.3814 18.4922 61.2949 17.4057 61.2949 16.0709C61.2949 14.7361 62.3814 13.6496 63.7163 13.6496C65.0512 13.6496 66.1377 14.7361 66.1377 16.0709C66.1067 17.4057 65.0512 18.4922 63.7163 18.4922Z" fill="#011B33"/>
<path d="M126.113 9.11743C122.202 9.11743 119.035 12.2837 119.035 16.195C119.035 20.1063 122.202 23.2727 126.113 23.2727C130.025 23.2727 133.191 20.1063 133.191 16.195C133.191 12.2837 130.025 9.11743 126.113 9.11743ZM126.113 18.4922C124.778 18.4922 123.692 17.4057 123.692 16.0709C123.692 14.7361 124.778 13.6496 126.113 13.6496C127.448 13.6496 128.535 14.7361 128.535 16.0709C128.535 17.4057 127.448 18.4922 126.113 18.4922Z" fill="#011B33"/>
<path d="M137.103 5.17524C137.103 5.1442 137.103 5.1442 137.103 5.17524C137.103 5.1442 137.103 5.1442 137.103 5.1442C136.792 3.7473 135.271 2.75396 133.781 3.06438C132.26 3.3748 131.266 4.7717 131.577 6.19963C131.825 7.37924 132.85 8.18632 134.06 8.24841C133.998 8.71404 133.564 9.14865 133.222 9.3659C132.974 9.49012 133.129 9.73844 133.129 9.73844L133.439 10.2041C133.533 10.3593 133.657 10.4524 133.812 10.3593C136.885 9.0555 137.413 6.41693 137.103 5.17524Z" fill="#011B33"/>
<path d="M140.704 13.4635C140.704 12.9668 141.325 12.7495 142.163 12.7495C143.777 12.7495 144.708 13.2152 145.733 13.8981C145.826 13.9602 145.981 13.9912 146.105 13.9602C146.229 13.9291 146.354 13.836 146.416 13.7429L147.782 11.3526C147.906 11.1353 147.844 10.856 147.626 10.7318C146.509 10.0489 144.864 9.17969 141.977 9.17969C137.848 9.17969 135.644 11.1353 136.016 13.9291C136.668 18.8338 144.305 17.1575 144.181 18.8338C144.15 19.2063 143.467 19.5167 142.318 19.5167C140.797 19.5167 139.089 18.7717 138.003 18.0888C137.91 18.0267 137.755 17.9956 137.63 18.0267C137.506 18.0577 137.413 18.1509 137.351 18.244L135.768 20.8826C135.644 21.0999 135.706 21.3793 135.923 21.5034C137.444 22.5278 139.897 23.2108 142.039 23.2108C146.167 23.2108 148.558 21.4413 148.558 18.5234C148.496 13.122 140.735 14.7983 140.704 13.4635Z" fill="#011B33"/>
<path d="M31.4522 9.27407L22.7492 0.562961C22.394 0.207405 21.8907 0 21.3875 0C20.8546 0 20.381 0.207405 20.0258 0.562961L12.7141 7.85187L0.577239 20C-0.192413 20.7704 -0.192413 21.9852 0.577239 22.7555L9.25062 31.437C9.60588 31.7926 10.1091 32 10.6123 32C11.1451 32 11.6188 31.7926 11.974 31.437L22.8379 20.563L31.3929 12C32.1922 11.2593 32.1922 10.0148 31.4522 9.27407Z" fill="white"/>
<path d="M30.8305 9.86661L22.1274 1.18513C21.713 0.77032 21.0322 0.77032 20.6177 1.18513L11.2339 10.5777L21.4466 20.8L30.8305 11.4074C31.2449 10.9629 31.2449 10.3111 30.8305 9.86661ZM23.1931 12.3851C22.6899 12.8889 22.0682 13.1259 21.417 13.1259C20.7658 13.1259 20.1441 12.8889 19.6409 12.3851C19.1377 11.8814 18.9008 11.2592 18.9008 10.6074C18.9008 9.95551 19.1377 9.30364 19.6409 8.82957C20.1441 8.32589 20.7658 8.08886 21.417 8.08886C22.0682 8.08886 22.6899 8.32589 23.1931 8.82957C23.6963 9.33325 23.9332 9.95551 23.9332 10.6074C23.9332 11.2592 23.6668 11.9111 23.1931 12.3851Z" fill="#011B33"/>
<path d="M1.22855 20.5925C0.814117 21.0074 0.814117 21.6889 1.22855 22.1037L9.90193 30.8148C10.1092 31.0222 10.3756 31.1407 10.6716 31.1407C10.938 31.1407 11.234 31.0222 11.4412 30.8148L20.8251 21.4221L10.6124 11.2L1.22855 20.5925ZM8.74749 23.111C8.24422 23.5851 7.6226 23.8518 6.97131 23.8518C6.3201 23.8518 5.66885 23.6148 5.19522 23.111C4.69198 22.6074 4.45517 21.9851 4.45517 21.3333C4.45517 20.6814 4.69198 20.0296 5.19522 19.5555C5.69845 19.0518 6.3201 18.8148 6.97131 18.8148C7.6226 18.8148 8.27383 19.0518 8.74749 19.5555C9.2507 20.0592 9.4875 20.6814 9.4875 21.3333C9.4875 21.9851 9.22109 22.6074 8.74749 23.111ZM12.5661 19.6444C13.0694 19.1407 13.691 18.9036 14.3423 18.9036C14.9935 18.9036 15.6447 19.1407 16.1184 19.6444C16.6216 20.1481 16.8584 20.7703 16.8584 21.4221C16.8584 22.074 16.6216 22.6963 16.1184 23.1999C15.6152 23.7036 14.9935 23.9407 14.3423 23.9407C13.691 23.9407 13.0694 23.7036 12.5661 23.1999C12.0629 22.6963 11.8261 22.074 11.8261 21.4221C11.8261 20.8 12.0629 20.1481 12.5661 19.6444Z" fill="#011B33"/>
</g>
<defs>
<clipPath id="clip0">
<rect width="148.945" height="32" fill="white"/>
</clipPath>
</defs>
</svg>
