<svg width="26" height="26" viewBox="0 0 26 26" fill="none" xmlns="http://www.w3.org/2000/svg">
<circle cx="13" cy="13" r="9.5" fill="#3B44F0" stroke="#3B44F0"/>
<g clip-path="url(#clip0)">
<path d="M16.3053 10.9568H13.4507V9.30408C13.4507 9.22112 13.3834 9.15384 13.3004 9.15384H9.69467C9.6117 9.15384 9.54443 9.22112 9.54443 9.30408V16.6959C9.54443 16.7789 9.6117 16.8461 9.69467 16.8461H13.3004H16.3053C16.3882 16.8461 16.4555 16.7789 16.4555 16.6959V11.107C16.4555 11.024 16.3882 10.9568 16.3053 10.9568ZM13.4507 11.2573H16.155V15.0432H13.4507V11.2573ZM11.0468 16.5457V15.3437H11.9483V16.5457H11.0468ZM12.0985 15.0432H10.8966C10.8136 15.0432 10.7464 15.1105 10.7464 15.1935V16.5457H9.84491V9.45432H13.1502V16.5457H12.2488V15.1935C12.2488 15.1105 12.1815 15.0432 12.0985 15.0432ZM13.4507 16.5457V15.3437H16.155V16.5457H13.4507Z" fill="white"/>
<path d="M11.3475 10.3558H11.6479C11.7309 10.3558 11.7982 10.2886 11.7982 10.2056V9.90512C11.7982 9.82215 11.7309 9.75488 11.6479 9.75488H11.3475C11.2645 9.75488 11.1973 9.82215 11.1973 9.90512V10.2056C11.1973 10.2886 11.2645 10.3558 11.3475 10.3558Z" fill="white"/>
<path d="M11.3475 11.4075H11.6479C11.7309 11.4075 11.7982 11.3403 11.7982 11.2573V10.9568C11.7982 10.8738 11.7309 10.8066 11.6479 10.8066H11.3475C11.2645 10.8066 11.1973 10.8738 11.1973 10.9568V11.2573C11.1973 11.3403 11.2645 11.4075 11.3475 11.4075Z" fill="white"/>
<path d="M11.3475 12.4591H11.6479C11.7309 12.4591 11.7982 12.3919 11.7982 12.3089V12.0084C11.7982 11.9254 11.7309 11.8582 11.6479 11.8582H11.3475C11.2645 11.8582 11.1973 11.9254 11.1973 12.0084V12.3089C11.1973 12.3919 11.2645 12.4591 11.3475 12.4591Z" fill="white"/>
<path d="M11.3475 13.5108H11.6479C11.7309 13.5108 11.7982 13.4436 11.7982 13.3606V13.0601C11.7982 12.9771 11.7309 12.9099 11.6479 12.9099H11.3475C11.2645 12.9099 11.1973 12.9771 11.1973 13.0601V13.3606C11.1973 13.4436 11.2645 13.5108 11.3475 13.5108Z" fill="white"/>
<path d="M11.3475 14.5625H11.6479C11.7309 14.5625 11.7982 14.4952 11.7982 14.4122V14.1118C11.7982 14.0288 11.7309 13.9615 11.6479 13.9615H11.3475C11.2645 13.9615 11.1973 14.0288 11.1973 14.1118V14.4122C11.1973 14.4952 11.2645 14.5625 11.3475 14.5625Z" fill="white"/>
<path d="M10.2957 10.3558H10.5962C10.6792 10.3558 10.7464 10.2886 10.7464 10.2056V9.90512C10.7464 9.82215 10.6792 9.75488 10.5962 9.75488H10.2957C10.2128 9.75488 10.1455 9.82215 10.1455 9.90512V10.2056C10.1455 10.2886 10.2128 10.3558 10.2957 10.3558Z" fill="white"/>
<path d="M10.2957 11.4075H10.5962C10.6792 11.4075 10.7464 11.3403 10.7464 11.2573V10.9568C10.7464 10.8738 10.6792 10.8066 10.5962 10.8066H10.2957C10.2128 10.8066 10.1455 10.8738 10.1455 10.9568V11.2573C10.1455 11.3403 10.2128 11.4075 10.2957 11.4075Z" fill="white"/>
<path d="M10.2957 12.4591H10.5962C10.6792 12.4591 10.7464 12.3919 10.7464 12.3089V12.0084C10.7464 11.9254 10.6792 11.8582 10.5962 11.8582H10.2957C10.2128 11.8582 10.1455 11.9254 10.1455 12.0084V12.3089C10.1455 12.3919 10.2128 12.4591 10.2957 12.4591Z" fill="white"/>
<path d="M10.2957 13.5108H10.5962C10.6792 13.5108 10.7464 13.4436 10.7464 13.3606V13.0601C10.7464 12.9771 10.6792 12.9099 10.5962 12.9099H10.2957C10.2128 12.9099 10.1455 12.9771 10.1455 13.0601V13.3606C10.1455 13.4436 10.2128 13.5108 10.2957 13.5108Z" fill="white"/>
<path d="M10.2957 14.5625H10.5962C10.6792 14.5625 10.7464 14.4952 10.7464 14.4122V14.1118C10.7464 14.0288 10.6792 13.9615 10.5962 13.9615H10.2957C10.2128 13.9615 10.1455 14.0288 10.1455 14.1118V14.4122C10.1455 14.4952 10.2128 14.5625 10.2957 14.5625Z" fill="white"/>
<path d="M12.6992 9.75488H12.3988C12.3158 9.75488 12.2485 9.82215 12.2485 9.90512V10.2056C12.2485 10.2886 12.3158 10.3558 12.3988 10.3558H12.6992C12.7822 10.3558 12.8495 10.2886 12.8495 10.2056V9.90512C12.8495 9.82215 12.7822 9.75488 12.6992 9.75488Z" fill="white"/>
<path d="M12.6992 10.8065H12.3988C12.3158 10.8065 12.2485 10.8738 12.2485 10.9567V11.2572C12.2485 11.3402 12.3158 11.4074 12.3988 11.4074H12.6992C12.7822 11.4074 12.8495 11.3402 12.8495 11.2572V10.9567C12.8495 10.8738 12.7822 10.8065 12.6992 10.8065Z" fill="white"/>
<path d="M12.6992 11.8582H12.3988C12.3158 11.8582 12.2485 11.9254 12.2485 12.0084V12.3089C12.2485 12.3919 12.3158 12.4591 12.3988 12.4591H12.6992C12.7822 12.4591 12.8495 12.3919 12.8495 12.3089V12.0084C12.8495 11.9254 12.7822 11.8582 12.6992 11.8582Z" fill="white"/>
<path d="M12.6992 12.9099H12.3988C12.3158 12.9099 12.2485 12.9771 12.2485 13.0601V13.3606C12.2485 13.4436 12.3158 13.5108 12.3988 13.5108H12.6992C12.7822 13.5108 12.8495 13.4436 12.8495 13.3606V13.0601C12.8495 12.9771 12.7822 12.9099 12.6992 12.9099Z" fill="white"/>
<path d="M12.6992 13.9615H12.3988C12.3158 13.9615 12.2485 14.0288 12.2485 14.1118V14.4122C12.2485 14.4952 12.3158 14.5625 12.3988 14.5625H12.6992C12.7822 14.5625 12.8495 14.4952 12.8495 14.4122V14.1118C12.8495 14.0288 12.7822 13.9615 12.6992 13.9615Z" fill="white"/>
<path d="M15.479 11.8582H15.1786C15.0956 11.8582 15.0283 11.9254 15.0283 12.0084V12.3089C15.0283 12.3919 15.0956 12.4591 15.1786 12.4591H15.479C15.562 12.4591 15.6292 12.3919 15.6292 12.3089V12.0084C15.6292 11.9254 15.562 11.8582 15.479 11.8582Z" fill="white"/>
<path d="M15.479 12.9099H15.1786C15.0956 12.9099 15.0283 12.9771 15.0283 13.0601V13.3606C15.0283 13.4436 15.0956 13.5108 15.1786 13.5108H15.479C15.562 13.5108 15.6292 13.4436 15.6292 13.3606V13.0601C15.6292 12.9771 15.562 12.9099 15.479 12.9099Z" fill="white"/>
<path d="M15.479 13.9615H15.1786C15.0956 13.9615 15.0283 14.0288 15.0283 14.1118V14.4122C15.0283 14.4952 15.0956 14.5625 15.1786 14.5625H15.479C15.562 14.5625 15.6292 14.4952 15.6292 14.4122V14.1118C15.6292 14.0288 15.562 13.9615 15.479 13.9615Z" fill="white"/>
<path d="M14.4272 11.8582H14.1268C14.0438 11.8582 13.9766 11.9254 13.9766 12.0084V12.3089C13.9766 12.3919 14.0438 12.4591 14.1268 12.4591H14.4272C14.5102 12.4591 14.5775 12.3919 14.5775 12.3089V12.0084C14.5775 11.9254 14.5102 11.8582 14.4272 11.8582Z" fill="white"/>
<path d="M14.4272 12.9099H14.1268C14.0438 12.9099 13.9766 12.9771 13.9766 13.0601V13.3606C13.9766 13.4436 14.0438 13.5108 14.1268 13.5108H14.4272C14.5102 13.5108 14.5775 13.4436 14.5775 13.3606V13.0601C14.5775 12.9771 14.5102 12.9099 14.4272 12.9099Z" fill="white"/>
<path d="M14.4272 13.9615H14.1268C14.0438 13.9615 13.9766 14.0288 13.9766 14.1118V14.4122C13.9766 14.4952 14.0438 14.5625 14.1268 14.5625H14.4272C14.5102 14.5625 14.5775 14.4952 14.5775 14.4122V14.1118C14.5775 14.0288 14.5102 13.9615 14.4272 13.9615Z" fill="white"/>
</g>
<circle cx="13" cy="13" r="12.5" fill="#5CBD7C" stroke="#5CBD7C"/>
<g clip-path="url(#clip1)">
<path d="M17.8536 9.47449C17.6583 9.27922 17.3417 9.27922 17.1465 9.47449L11.1561 15.4649L8.85356 13.1623C8.65831 12.967 8.34175 12.967 8.14646 13.1623C7.95118 13.3575 7.95118 13.6741 8.14646 13.8694L10.8026 16.5255C10.9978 16.7207 11.3146 16.7206 11.5097 16.5255L17.8536 10.1816C18.0488 9.98634 18.0488 9.66976 17.8536 9.47449Z" fill="white"/>
</g>
<defs>
<clipPath id="clip0">
<rect width="7.69231" height="7.69231" fill="white" transform="translate(9.15381 9.15384)"/>
</clipPath>
<clipPath id="clip1">
<rect width="10" height="10" fill="white" transform="translate(8 8)"/>
</clipPath>
</defs>
</svg>
