<svg width="80" height="80" viewBox="0 0 80 80" fill="none" xmlns="http://www.w3.org/2000/svg">
<path d="M41.5893 64.8648H38.4434C38.1567 64.8648 37.8817 64.7509 37.6789 64.5482C37.4762 64.3454 37.3623 64.0704 37.3623 63.7837C37.3623 63.497 37.4762 63.222 37.6789 63.0193C37.8817 62.8165 38.1567 62.7026 38.4434 62.7026H41.5893C41.876 62.7026 42.151 62.8165 42.3538 63.0193C42.5565 63.222 42.6704 63.497 42.6704 63.7837C42.6704 64.0704 42.5565 64.3454 42.3538 64.5482C42.151 64.7509 41.876 64.8648 41.5893 64.8648Z" fill="#253B80"/>
<path d="M76.7567 64.865H59.9351C59.6484 64.865 59.3734 64.7511 59.1706 64.5483C58.9679 64.3456 58.854 64.0706 58.854 63.7839C58.854 63.4972 58.9679 63.2222 59.1706 63.0195C59.3734 62.8167 59.6484 62.7028 59.9351 62.7028H75.6756V17.2974H4.32427V62.7028H30.8756C31.1623 62.7028 31.4373 62.8167 31.6401 63.0195C31.8428 63.2222 31.9567 63.4972 31.9567 63.7839C31.9567 64.0706 31.8428 64.3456 31.6401 64.5483C31.4373 64.7511 31.1623 64.865 30.8756 64.865H3.24319C2.95647 64.865 2.68149 64.7511 2.47875 64.5483C2.27601 64.3456 2.16211 64.0706 2.16211 63.7839V16.2163C2.16211 15.9296 2.27601 15.6546 2.47875 15.4519C2.68149 15.2492 2.95647 15.1353 3.24319 15.1353H76.7567C77.0434 15.1353 77.3184 15.2492 77.5211 15.4519C77.7239 15.6546 77.8378 15.9296 77.8378 16.2163V63.7839C77.8378 64.0706 77.7239 64.3456 77.5211 64.5483C77.3184 64.7511 77.0434 64.865 76.7567 64.865Z" fill="#253B80"/>
<path d="M52.3676 64.8648H49.1568C48.87 64.8648 48.5951 64.7509 48.3923 64.5482C48.1896 64.3454 48.0757 64.0704 48.0757 63.7837C48.0757 63.497 48.1896 63.222 48.3923 63.0193C48.5951 62.8165 48.87 62.7026 49.1568 62.7026H52.3676C52.6543 62.7026 52.9293 62.8165 53.132 63.0193C53.3348 63.222 53.4487 63.497 53.4487 63.7837C53.4487 64.0704 53.3348 64.3454 53.132 64.5482C52.9293 64.7509 52.6543 64.8648 52.3676 64.8648Z" fill="#253B80"/>
<path d="M40 44.3384C36.4621 44.3357 33.0418 43.068 30.3567 40.7643L2.54161 17.0389C2.43357 16.9467 2.34476 16.834 2.28026 16.7074C2.21576 16.5808 2.17683 16.4427 2.16569 16.3011C2.15454 16.1594 2.17141 16.017 2.21532 15.8819C2.25923 15.7467 2.32933 15.6216 2.42161 15.5135C2.51389 15.4055 2.62654 15.3167 2.75315 15.2522C2.87975 15.1877 3.01781 15.1488 3.15946 15.1376C3.3011 15.1265 3.44356 15.1433 3.57869 15.1872C3.71382 15.2312 3.83897 15.3013 3.94701 15.3935L31.7632 39.12C34.0561 41.0901 36.9791 42.1734 40.0022 42.1734C43.0252 42.1734 45.9482 41.0901 48.2411 39.12L76.0573 15.3935C76.2755 15.2072 76.5588 15.1151 76.8448 15.1376C77.1309 15.1601 77.3963 15.2953 77.5827 15.5135C77.7691 15.7317 77.8611 16.015 77.8386 16.3011C77.8161 16.5872 77.6809 16.8526 77.4627 17.0389L49.6432 40.7643C46.9582 43.068 43.5379 44.3357 40 44.3384Z" fill="#253B80"/>
<path d="M76.7567 63.7837C76.4999 63.7835 76.2516 63.6919 76.0562 63.5253L48.8021 40.2821C48.6941 40.1898 48.6053 40.0772 48.5408 39.9506C48.4763 39.824 48.4373 39.6859 48.4262 39.5442C48.415 39.4026 48.4319 39.2601 48.4758 39.125C48.5197 38.9899 48.5898 38.8647 48.6821 38.7567C48.7744 38.6487 48.887 38.5599 49.0136 38.4954C49.1402 38.4309 49.2783 38.3919 49.42 38.3808C49.5616 38.3696 49.7041 38.3865 49.8392 38.4304C49.9743 38.4743 50.0995 38.5444 50.2075 38.6367L77.4616 61.8799C77.6301 62.0236 77.7504 62.2155 77.8063 62.4298C77.8622 62.6441 77.8509 62.8703 77.774 63.078C77.6972 63.2857 77.5584 63.4647 77.3764 63.5909C77.1945 63.7171 76.9781 63.7844 76.7567 63.7837Z" fill="#253B80"/>
<path d="M3.24321 64.8651C3.02366 64.865 2.80934 64.7981 2.62876 64.6732C2.44819 64.5483 2.30991 64.3714 2.23234 64.166C2.15476 63.9606 2.14155 63.7365 2.19448 63.5234C2.2474 63.3103 2.36395 63.1184 2.52861 62.9732L29.9459 38.7894C30.0517 38.6915 30.1761 38.6158 30.3116 38.5667C30.4471 38.5175 30.5911 38.496 30.7351 38.5034C30.8791 38.5107 31.0201 38.5468 31.1499 38.6094C31.2798 38.6721 31.3958 38.7601 31.4911 38.8682C31.5864 38.9764 31.6591 39.1025 31.705 39.2392C31.7508 39.3759 31.7689 39.5203 31.7581 39.6641C31.7473 39.8078 31.7078 39.948 31.642 40.0762C31.5763 40.2045 31.4855 40.3184 31.3751 40.411L3.9578 64.5948C3.76044 64.7689 3.50636 64.865 3.24321 64.8651Z" fill="#253B80"/>
</svg>
