<svg width="15" height="15" viewBox="0 0 15 15" fill="none" xmlns="http://www.w3.org/2000/svg">
    <path d="M14.195 1.12946e-06H0.821705C0.585836 -0.000445029 0.369599 0.13132 0.261778 0.341162C0.15247 0.55383 0.171654 0.809924 0.311301 1.00415L5.2107 7.9059C5.21233 7.90828 5.21412 7.91051 5.21575 7.91289C5.39377 8.15322 5.48999 8.44426 5.49059 8.74348V14.3704C5.48954 14.5371 5.55498 14.6971 5.67247 14.8154C5.78996 14.9336 5.94968 14.9999 6.11625 14.9999C6.20102 14.9999 6.28474 14.983 6.36297 14.9506L9.11606 13.9008C9.36278 13.8255 9.52652 13.5928 9.52652 13.3124V8.74348C9.52697 8.44441 9.62334 8.15322 9.8012 7.91289C9.80284 7.91051 9.80462 7.90828 9.80626 7.9059L14.7055 1.00385C14.8452 0.809775 14.8643 0.55383 14.755 0.341162C14.6472 0.13132 14.431 -0.000445029 14.195 1.12946e-06ZM9.18729 7.46182C8.91365 7.83317 8.76567 8.28215 8.76478 8.74348V13.2199L6.25203 14.178V8.74348C6.25113 8.28215 6.10316 7.83317 5.82937 7.46182L1.07289 0.761442H13.9439L9.18729 7.46182Z" fill="black"/>
</svg>
