<svg width="50" height="50" viewBox="0 0 50 50" fill="none" xmlns="http://www.w3.org/2000/svg">
<g clip-path="url(#clip0)">
<path d="M36.3604 50C36.0104 50 35.6521 49.9562 35.2979 49.8625L3.08332 41.2354C0.874991 40.6271 -0.441676 38.3396 0.137491 36.1312L4.20207 20.9812C4.35207 20.425 4.92291 20.1021 5.47707 20.2437C6.03332 20.3916 6.36249 20.9646 6.21457 21.5187L2.15207 36.6646C1.86249 37.7687 2.52499 38.9187 3.63124 39.225L35.8333 47.8479C36.9396 48.1396 38.0812 47.4812 38.3687 46.3812L39.9958 40.3521C40.1458 39.7958 40.7167 39.4646 41.2729 39.6166C41.8292 39.7666 42.1562 40.3396 42.0083 40.8937L40.3833 46.9146C39.8937 48.7687 38.2062 50 36.3604 50Z" fill="#D2DAE1"/>
<path d="M45.833 37.5001H12.4997C10.2018 37.5001 8.33301 35.6313 8.33301 33.3334V8.33341C8.33301 6.0355 10.2018 4.16675 12.4997 4.16675H45.833C48.1309 4.16675 49.9997 6.0355 49.9997 8.33341V33.3334C49.9997 35.6313 48.1309 37.5001 45.833 37.5001ZM12.4997 6.25008C11.3518 6.25008 10.4163 7.1855 10.4163 8.33341V33.3334C10.4163 34.4813 11.3518 35.4167 12.4997 35.4167H45.833C46.9809 35.4167 47.9163 34.4813 47.9163 33.3334V8.33341C47.9163 7.1855 46.9809 6.25008 45.833 6.25008H12.4997Z" fill="#D2DAE1"/>
<path d="M18.7497 18.7501C16.4518 18.7501 14.583 16.8813 14.583 14.5834C14.583 12.2855 16.4518 10.4167 18.7497 10.4167C21.0476 10.4167 22.9163 12.2855 22.9163 14.5834C22.9163 16.8813 21.0476 18.7501 18.7497 18.7501ZM18.7497 12.5001C17.6018 12.5001 16.6663 13.4355 16.6663 14.5834C16.6663 15.7313 17.6018 16.6667 18.7497 16.6667C19.8976 16.6667 20.833 15.7313 20.833 14.5834C20.833 13.4355 19.8976 12.5001 18.7497 12.5001Z" fill="#D2DAE1"/>
<path d="M9.5207 35.2709C9.25404 35.2709 8.98737 35.1688 8.7832 34.9667C8.37695 34.5605 8.37695 33.9001 8.7832 33.4938L18.6228 23.6542C19.802 22.4751 21.8624 22.4751 23.0415 23.6542L25.9707 26.5834L34.079 16.8542C34.6686 16.148 35.5353 15.7376 36.4582 15.7292H36.4811C37.3936 15.7292 38.2582 16.1251 38.854 16.8188L49.7499 29.5313C50.1249 29.9667 50.0749 30.6251 49.6374 31.0001C49.202 31.3751 48.5457 31.3272 48.1686 30.8876L37.2728 18.1751C37.0707 17.9417 36.7915 17.8126 36.4811 17.8126C36.2645 17.7938 35.8832 17.9438 35.6811 18.1876L26.8415 28.7938C26.654 29.0188 26.3811 29.1542 26.0874 29.1667C25.7915 29.1876 25.5103 29.0709 25.304 28.8626L21.5686 25.1272C21.1749 24.7355 20.4895 24.7355 20.0957 25.1272L10.2561 34.9667C10.054 35.1688 9.78737 35.2709 9.5207 35.2709Z" fill="#D2DAE1"/>
</g>
<defs>
<clipPath id="clip0">
<rect width="50" height="50" fill="white"/>
</clipPath>
</defs>
</svg>
