<svg width="24" height="16" viewBox="0 0 24 16" fill="none" xmlns="http://www.w3.org/2000/svg">
<g clip-path="url(#clip0)">
<path d="M24.3688 0H-0.246582V16H24.3688V0Z" fill="#272622"/>
<path d="M15.0764 3.26147C12.4302 3.26147 10.2764 5.35378 10.2764 7.99994C10.2764 10.6461 12.4302 12.7384 15.0148 12.7384C17.5994 12.7384 19.7533 10.5846 19.7533 7.99994C19.8148 5.35378 17.661 3.26147 15.0764 3.26147Z" fill="#F79E1B"/>
<path d="M9.16864 3.26147C6.58402 3.26147 4.43018 5.35378 4.43018 7.99994C4.43018 10.6461 6.58402 12.7384 9.16864 12.7384C11.7533 12.7384 13.9686 10.6461 13.9686 7.99994C13.9686 5.35378 11.8148 3.26147 9.16864 3.26147Z" fill="#EB001B"/>
<path d="M13.9685 7.99994C13.9685 6.52302 13.2916 5.16917 12.1224 4.24609C10.0301 5.84609 9.72236 8.86148 11.3224 10.8922C11.5685 11.1999 11.8147 11.4461 12.1224 11.6923C13.2916 10.8307 13.9685 9.47686 13.9685 7.99994Z" fill="#FF5F00"/>
</g>
<defs>
<clipPath id="clip0">
<rect width="24" height="16" fill="white"/>
</clipPath>
</defs>
</svg>
