<svg width="17" height="17" viewBox="0 0 17 17" fill="none" xmlns="http://www.w3.org/2000/svg">
<path d="M8.5 17C6.22961 17 4.09501 16.1158 2.48959 14.5104C0.884163 12.905 0 10.7704 0 8.5C0 6.22961 0.884163 4.09501 2.48959 2.48959C4.09501 0.884163 6.22961 0 8.5 0C10.7704 0 12.905 0.884163 14.5104 2.48959C16.1158 4.09501 17 6.22961 17 8.5C17 10.7704 16.1158 12.905 14.5104 14.5104C12.905 16.1158 10.7704 17 8.5 17ZM8.5 1.32812C4.54546 1.32812 1.32812 4.54546 1.32812 8.5C1.32812 12.4545 4.54546 15.6719 8.5 15.6719C12.4545 15.6719 15.6719 12.4545 15.6719 8.5C15.6719 4.54546 12.4545 1.32812 8.5 1.32812ZM12.1523 7.83529H4.84766V9.16341H12.1523V7.83529Z" fill="#566572"/>
</svg>
