<svg width="50" height="50" viewBox="0 0 50 50" fill="none" xmlns="http://www.w3.org/2000/svg">
<path d="M1.44233 13.8074C1.42416 13.9062 1.41392 14.0063 1.41062 14.1064V16.1627C1.41326 17.0101 1.93955 17.7676 2.73345 18.0653V21.0909C2.73708 22.1038 3.53362 22.9364 4.54524 22.9843V40.4636C3.53362 40.5118 2.73708 41.3444 2.73345 42.357V45.3737C1.9379 45.6793 1.41194 46.4424 1.41062 47.2941V49.3055C1.41062 49.6805 1.71522 49.9847 2.0902 49.9847H47.9109C48.2859 49.9847 48.5902 49.6805 48.5902 49.3055V47.2941C48.5889 46.4421 48.0629 45.6789 47.2677 45.3737V42.3391C47.2641 41.3262 46.4672 40.4936 45.4559 40.4457V22.9843C46.4672 22.9364 47.2641 22.1038 47.2677 21.0909V18.0653C48.0613 17.7676 48.5876 17.0101 48.5902 16.1627V14.1199C48.5872 14.0198 48.5767 13.9197 48.5585 13.8209C48.9001 13.9722 49.2995 13.8183 49.4508 13.4767C49.6021 13.1354 49.4482 12.736 49.1069 12.5843L25.3131 0.0785473C25.1146 -0.0261824 24.8773 -0.0261824 24.6788 0.0785473L0.885316 12.5708C0.553286 12.7462 0.426091 13.1569 0.600861 13.4889C0.760763 13.7922 1.12154 13.929 1.44233 13.8074ZM4.09229 19.2428V18.1965H11.9282V19.2338L4.09229 19.2428ZM21.5399 22.9889V40.4636C20.5283 40.5118 19.7317 41.3444 19.7281 42.357V45.2468H13.2778V42.357C13.2741 41.3444 12.4776 40.5118 11.466 40.4636V22.9843C12.4776 22.9364 13.2741 22.1038 13.2778 21.0909V18.1965H19.7188V21.0866C19.7205 22.1012 20.5177 22.9357 21.5309 22.9843L21.5399 22.9889ZM21.0869 19.2428V18.1965H28.9231V19.2338L21.0869 19.2428ZM38.5348 22.9889V40.4636C37.5232 40.5118 36.7263 41.3444 36.7227 42.357V45.2468H30.2727V42.357C30.2691 41.3444 29.4722 40.5118 28.461 40.4636V22.9843C29.4722 22.9364 30.2691 22.1038 30.2727 21.0909V18.1965H36.7138V21.0866C36.7151 22.1012 37.5123 22.9357 38.5256 22.9843L38.5348 22.9889ZM38.0819 19.2428V18.1965H45.9178V19.2338L38.0819 19.2428ZM45.9178 44.2097V45.2468H38.0726V44.2097H45.9178ZM28.9231 44.2097V45.2468H21.078V44.2097H28.9231ZM22.2102 21.639H21.6215C21.3212 21.639 21.078 21.3958 21.078 21.0955V20.6016H28.9139V21.0955C28.9139 21.3958 28.6707 21.639 28.3704 21.639H22.2102ZM27.1067 22.9978V40.4547H22.8898V22.9978H27.1067ZM22.2102 41.8135H28.3704C28.6707 41.8135 28.9139 42.0567 28.9139 42.357V42.8509H21.078V42.357C21.078 42.0567 21.3212 41.8135 21.6215 41.8135H22.2102ZM11.9193 44.2097V45.2468H4.08304V44.2097H11.9193ZM4.08304 21.1091V20.6016H11.9193V21.0955C11.9193 21.3958 11.6761 21.639 11.3755 21.639H4.61297C4.31629 21.6317 4.0804 21.3876 4.08304 21.0909V21.1091ZM10.1075 23.0114V40.4547H5.89483V22.9978L10.1075 23.0114ZM4.08304 42.3709C4.08304 42.0702 4.3262 41.827 4.62651 41.827H11.3755C11.6761 41.827 11.9193 42.0702 11.9193 42.3709V42.8644H4.08304V42.3709ZM47.2314 47.3216V48.653H2.76054V47.3216C2.76054 46.9337 3.07473 46.6192 3.46259 46.6192H46.5293C46.9116 46.6192 47.2241 46.9254 47.2314 47.3077V47.3216ZM45.9089 42.3709V42.8644H38.0726V42.3709C38.0726 42.0702 38.3158 41.827 38.6161 41.827H45.3789C45.6687 41.8343 45.9016 42.0672 45.9089 42.357V42.3709ZM39.8844 40.4682V22.9978H44.1014V40.4547L39.8844 40.4682ZM45.9089 21.1091C45.9089 21.4094 45.6657 21.6525 45.3654 21.6525H38.6207C38.3204 21.6525 38.0773 21.4094 38.0773 21.1091V20.6016H45.9132L45.9089 21.1091ZM24.996 1.43739L45.2293 12.0726H4.76263L24.996 1.43739ZM2.76054 14.1199C2.76054 13.7449 3.06482 13.4407 3.4398 13.4407H46.5521C46.9271 13.4407 47.2314 13.7449 47.2314 14.1199V16.1765C47.2314 16.5515 46.9271 16.8558 46.5521 16.8558H3.4398C3.06482 16.8558 2.76054 16.5515 2.76054 16.1765V14.1199Z" fill="#283C7C"/>
</svg>
