<svg width="104" height="104" viewBox="0 0 104 104" fill="none" xmlns="http://www.w3.org/2000/svg">
<path d="M81.1795 95.0414C91.8687 87.7947 99.4789 76.8299 102.529 64.2812C105.579 51.7325 103.85 38.4979 97.6798 27.1534L52 52L81.1795 95.0414Z" fill="#0DB450"/>
<circle cx="52" cy="52" r="50" fill="#E7F3FF"/>
<circle cx="94.5" cy="24.5" r="7" fill="#0DB450" stroke="white"/>
<path d="M92 23.8646L93.8333 26.4751L97 22" stroke="white" stroke-width="2" stroke-linecap="round" stroke-linejoin="round"/>
<path d="M28.4423 37.8074C28.4242 37.9062 28.4139 38.0063 28.4106 38.1064V40.1627C28.4133 41.0101 28.9396 41.7676 29.7334 42.0653V45.0909C29.7371 46.1038 30.5336 46.9364 31.5452 46.9843V64.4636C30.5336 64.5118 29.7371 65.3444 29.7334 66.357V69.3737C28.9379 69.6793 28.4119 70.4424 28.4106 71.2941V73.3055C28.4106 73.6805 28.7152 73.9847 29.0902 73.9847H74.9109C75.2859 73.9847 75.5902 73.6805 75.5902 73.3055V71.2941C75.5889 70.4421 75.0629 69.6789 74.2677 69.3737V66.3391C74.2641 65.3262 73.4672 64.4936 72.4559 64.4457V46.9843C73.4672 46.9364 74.2641 46.1038 74.2677 45.0909V42.0653C75.0613 41.7676 75.5876 41.0101 75.5902 40.1627V38.1199C75.5872 38.0198 75.5767 37.9197 75.5585 37.8209C75.9001 37.9722 76.2995 37.8183 76.4508 37.4767C76.6021 37.1354 76.4482 36.736 76.1069 36.5843L52.3131 24.0785C52.1146 23.9738 51.8773 23.9738 51.6788 24.0785L27.8853 36.5708C27.5533 36.7462 27.4261 37.1569 27.6009 37.4889C27.7608 37.7922 28.1215 37.929 28.4423 37.8074ZM31.0923 43.2428V42.1965H38.9282V43.2338L31.0923 43.2428ZM48.5399 46.9889V64.4636C47.5283 64.5118 46.7317 65.3444 46.7281 66.357V69.2468H40.2778V66.357C40.2741 65.3444 39.4776 64.5118 38.466 64.4636V46.9843C39.4776 46.9364 40.2741 46.1038 40.2778 45.0909V42.1965H46.7188V45.0866C46.7205 46.1012 47.5177 46.9357 48.5309 46.9843L48.5399 46.9889ZM48.0869 43.2428V42.1965H55.9231V43.2338L48.0869 43.2428ZM65.5348 46.9889V64.4636C64.5232 64.5118 63.7263 65.3444 63.7227 66.357V69.2468H57.2727V66.357C57.2691 65.3444 56.4722 64.5118 55.461 64.4636V46.9843C56.4722 46.9364 57.2691 46.1038 57.2727 45.0909V42.1965H63.7138V45.0866C63.7151 46.1012 64.5123 46.9357 65.5256 46.9843L65.5348 46.9889ZM65.0819 43.2428V42.1965H72.9178V43.2338L65.0819 43.2428ZM72.9178 68.2097V69.2468H65.0726V68.2097H72.9178ZM55.9231 68.2097V69.2468H48.078V68.2097H55.9231ZM49.2102 45.639H48.6215C48.3212 45.639 48.078 45.3958 48.078 45.0955V44.6016H55.9139V45.0955C55.9139 45.3958 55.6707 45.639 55.3704 45.639H49.2102ZM54.1067 46.9978V64.4547H49.8898V46.9978H54.1067ZM49.2102 65.8135H55.3704C55.6707 65.8135 55.9139 66.0567 55.9139 66.357V66.8509H48.078V66.357C48.078 66.0567 48.3212 65.8135 48.6215 65.8135H49.2102ZM38.9193 68.2097V69.2468H31.083V68.2097H38.9193ZM31.083 45.1091V44.6016H38.9193V45.0955C38.9193 45.3958 38.6761 45.639 38.3755 45.639H31.613C31.3163 45.6317 31.0804 45.3876 31.083 45.0909V45.1091ZM37.1075 47.0114V64.4547H32.8948V46.9978L37.1075 47.0114ZM31.083 66.3709C31.083 66.0702 31.3262 65.827 31.6265 65.827H38.3755C38.6761 65.827 38.9193 66.0702 38.9193 66.3709V66.8644H31.083V66.3709ZM74.2314 71.3216V72.653H29.7605V71.3216C29.7605 70.9337 30.0747 70.6192 30.4626 70.6192H73.5293C73.9116 70.6192 74.2241 70.9254 74.2314 71.3077V71.3216ZM72.9089 66.3709V66.8644H65.0726V66.3709C65.0726 66.0702 65.3158 65.827 65.6161 65.827H72.3789C72.6687 65.8343 72.9016 66.0672 72.9089 66.357V66.3709ZM66.8844 64.4682V46.9978H71.1014V64.4547L66.8844 64.4682ZM72.9089 45.1091C72.9089 45.4094 72.6657 45.6525 72.3654 45.6525H65.6207C65.3204 45.6525 65.0773 45.4094 65.0773 45.1091V44.6016H72.9132L72.9089 45.1091ZM51.996 25.4374L72.2293 36.0726H31.7626L51.996 25.4374ZM29.7605 38.1199C29.7605 37.7449 30.0648 37.4407 30.4398 37.4407H73.5521C73.9271 37.4407 74.2314 37.7449 74.2314 38.1199V40.1765C74.2314 40.5515 73.9271 40.8558 73.5521 40.8558H30.4398C30.0648 40.8558 29.7605 40.5515 29.7605 40.1765V38.1199Z" fill="#283C7C"/>
</svg>
