<svg width="20" height="20" viewBox="0 0 20 20" fill="none" xmlns="http://www.w3.org/2000/svg">
<path d="M10 0C4.47715 0 0 4.47715 0 10C0 15.5229 4.47715 20 10 20C15.5229 20 20 15.5229 20 10C20 4.47715 15.5229 0 10 0ZM12.3169 10.442L9.50441 13.2545C9.38238 13.3765 9.22242 13.4375 9.0625 13.4375C8.5107 13.4375 8.22574 12.7654 8.62059 12.3706L10.9911 10L8.62059 7.62945C8.37648 7.38539 8.37648 6.98965 8.62059 6.74559C8.86465 6.50152 9.26039 6.50152 9.50445 6.74559L12.317 9.55809C12.561 9.80219 12.561 10.1979 12.3169 10.442Z" fill="#DADAE1"/>
</svg>
