<svg width="15" height="15" viewBox="0 0 15 15" fill="none" xmlns="http://www.w3.org/2000/svg">
<g clip-path="url(#clip0)">
<path d="M12.6681 12.0317C12.5587 11.9639 12.4139 11.9955 12.3446 12.1024C11.7593 13.0038 10.7585 13.542 9.6676 13.542H3.63647C1.88977 13.542 0.46875 12.1533 0.46875 10.4466V4.95804C0.46875 4.83161 0.36377 4.72903 0.234375 4.72903C0.10498 4.72903 0 4.83161 0 4.95804V10.4466C0 12.406 1.63135 14 3.63647 14H9.6676C10.9199 14 12.0687 13.3823 12.7404 12.3477C12.8097 12.241 12.7773 12.0994 12.6681 12.0317ZM10.6075 5.94579L8.82056 7.69204C8.729 7.7815 8.729 7.92654 8.82056 8.01588C8.86621 8.06061 8.92627 8.08304 8.98621 8.08304C9.04614 8.08304 9.1062 8.06061 9.15198 8.01588L10.939 6.26975C11.0305 6.18029 11.0305 6.03525 10.939 5.94579C10.8475 5.85645 10.6991 5.85645 10.6075 5.94579ZM15.6609 2.13017L14.844 1.33195C14.3918 0.890025 13.656 0.890025 13.2039 1.33195L12.3558 2.16059C11.6669 1.4201 10.7013 1 9.6676 1H3.63647C2.79993 1 1.98315 1.28448 1.33655 1.80096C0.699097 2.31004 0.253174 3.02131 0.0811768 3.80354C0.0539551 3.92723 0.134521 4.04901 0.261108 4.07561C0.27771 4.07895 0.294312 4.08074 0.310547 4.08074C0.418701 4.08074 0.515869 4.00727 0.539429 3.8998C0.689331 3.21871 1.07764 2.5993 1.63318 2.15558C2.19629 1.70577 2.90771 1.45803 3.63647 1.45803H9.6676C10.5753 1.45803 11.4229 1.82994 12.0239 2.48491L9.53149 4.92035H2.99573C2.86621 4.92035 2.76123 5.02281 2.76123 5.14936C2.76123 5.2758 2.86621 5.37838 2.99573 5.37838H9.06274L7.93896 6.47635H2.99573C2.86621 6.47635 2.76123 6.57893 2.76123 6.70548C2.76123 6.83192 2.86621 6.9345 2.99573 6.9345H7.47021L6.01636 8.35511C5.59509 8.76675 5.25037 9.24148 4.99194 9.76607L4.32483 11.1202C4.14026 11.4951 4.21545 11.9274 4.51648 12.2215C4.70789 12.4086 4.95654 12.5064 5.21094 12.5064C5.35645 12.5064 5.50391 12.4743 5.64343 12.4087L6.3158 12.0925C6.31592 12.0924 6.31616 12.0924 6.31628 12.0922L7.02942 11.757C7.56616 11.5044 8.052 11.1676 8.47339 10.756L12.8354 6.49364V10.4466C12.8354 10.6974 12.8047 10.9468 12.744 11.188C12.7131 11.3109 12.79 11.4348 12.9158 11.465C12.9346 11.4695 12.9534 11.4716 12.9718 11.4716C13.0773 11.4716 13.173 11.4017 13.1992 11.2973C13.2689 11.0204 13.3042 10.7341 13.3042 10.4466V6.03561L13.9557 5.39902C13.9558 5.3989 13.9558 5.3989 13.9558 5.39878C13.9559 5.39878 13.9559 5.39878 13.9559 5.39866L15.6609 3.73281C16.113 3.29088 16.113 2.57198 15.6609 2.13017ZM5.44019 11.996C5.19556 12.1111 4.97388 12.0207 4.8479 11.8977C4.72205 11.7746 4.62952 11.558 4.74731 11.319L4.94507 10.9173C5.11011 11.0463 5.27026 11.1861 5.42322 11.3355C5.57617 11.485 5.71924 11.6415 5.8512 11.8028L5.44019 11.996ZM6.82605 11.3442L6.28369 11.5993C6.12292 11.3955 5.9458 11.1984 5.75464 11.0117C5.56348 10.8249 5.36169 10.6517 5.15332 10.4947L5.41431 9.96479C5.59448 9.59919 5.82056 9.26032 6.08875 8.9533L7.86121 10.6852C7.547 10.9472 7.2002 11.1682 6.82605 11.3442ZM8.20349 10.3719L6.40942 8.61884L11.6646 3.48375L13.4586 5.2368L8.20349 10.3719ZM13.7902 4.91295L11.9961 3.15991L12.5747 2.59452L14.3689 4.34757L13.7902 4.91295ZM15.3295 3.40884L14.7003 4.02361L12.9062 2.27056L13.5353 1.6558C13.67 1.52411 13.8469 1.45839 14.0239 1.45839C14.2008 1.45839 14.3778 1.52411 14.5125 1.6558L15.3293 2.45401C15.5988 2.71726 15.5988 3.14559 15.3295 3.40884ZM2.99573 3.82226H10.3085C10.4379 3.82226 10.5428 3.7198 10.5428 3.59325C10.5428 3.46669 10.4379 3.36423 10.3085 3.36423H2.99573C2.86621 3.36423 2.76123 3.46669 2.76123 3.59325C2.76123 3.7198 2.86621 3.82226 2.99573 3.82226Z" fill="#4D4D4D"/>
</g>
<defs>
<clipPath id="clip0">
<rect width="15" height="15" fill="white"/>
</clipPath>
</defs>
</svg>
