<svg width="10" height="10" viewBox="0 0 10 10" fill="none" xmlns="http://www.w3.org/2000/svg">
<path d="M9.29688 2.34383H5.58594V0.195312C5.58594 0.0874609 5.4985 0 5.39062 0H0.703125C0.595254 0 0.507812 0.0874609 0.507812 0.195312V9.80467C0.507812 9.91252 0.595254 9.99998 0.703125 9.99998H5.39062H9.29688C9.40475 9.99998 9.49219 9.91252 9.49219 9.80467V2.53914C9.49219 2.43127 9.40473 2.34383 9.29688 2.34383ZM5.58594 2.73445H9.10156V7.65623H5.58594V2.73445ZM2.46094 9.60935V8.04685H3.63281V9.60935H2.46094ZM3.82812 7.65623H2.26562C2.15775 7.65623 2.07031 7.74369 2.07031 7.85154V9.60935H0.898438V0.390625H5.19531V9.60935H4.02344V7.85154C4.02344 7.74369 3.93598 7.65623 3.82812 7.65623ZM5.58592 9.60935V8.04685H9.10154V9.60935H5.58592Z" fill="#686C70"/>
<path d="M2.85156 1.56262H3.24213C3.35 1.56262 3.43744 1.47518 3.43744 1.36731V0.976685C3.43744 0.868813 3.35 0.781372 3.24213 0.781372H2.85156C2.74369 0.781372 2.65625 0.868813 2.65625 0.976685V1.36731C2.65625 1.47518 2.74369 1.56262 2.85156 1.56262Z" fill="#686C70"/>
<path d="M2.85156 2.92981H3.24213C3.35 2.92981 3.43744 2.84237 3.43744 2.7345V2.34387C3.43744 2.236 3.35 2.14856 3.24213 2.14856H2.85156C2.74369 2.14856 2.65625 2.236 2.65625 2.34387V2.7345C2.65625 2.84237 2.74369 2.92981 2.85156 2.92981Z" fill="#686C70"/>
<path d="M2.85156 4.29688H3.24213C3.35 4.29688 3.43744 4.20943 3.43744 4.10156V3.71094C3.43744 3.60307 3.35 3.51562 3.24213 3.51562H2.85156C2.74369 3.51562 2.65625 3.60307 2.65625 3.71094V4.10156C2.65625 4.20943 2.74369 4.29688 2.85156 4.29688Z" fill="#686C70"/>
<path d="M2.85156 5.66406H3.24213C3.35 5.66406 3.43744 5.57662 3.43744 5.46875V5.07812C3.43744 4.97025 3.35 4.88281 3.24213 4.88281H2.85156C2.74369 4.88281 2.65625 4.97025 2.65625 5.07812V5.46875C2.65625 5.57662 2.74369 5.66406 2.85156 5.66406Z" fill="#686C70"/>
<path d="M2.85156 7.03125H3.24213C3.35 7.03125 3.43744 6.94381 3.43744 6.83594V6.44531C3.43744 6.33744 3.35 6.25 3.24213 6.25H2.85156C2.74369 6.25 2.65625 6.33744 2.65625 6.44531V6.83594C2.65625 6.94381 2.74369 7.03125 2.85156 7.03125Z" fill="#686C70"/>
<path d="M1.48437 1.56262H1.87494C1.98281 1.56262 2.07025 1.47518 2.07025 1.36731V0.976685C2.07025 0.868813 1.98281 0.781372 1.87494 0.781372H1.48437C1.3765 0.781372 1.28906 0.868813 1.28906 0.976685V1.36731C1.28906 1.47518 1.3765 1.56262 1.48437 1.56262Z" fill="#686C70"/>
<path d="M1.48437 2.92981H1.87494C1.98281 2.92981 2.07025 2.84237 2.07025 2.7345V2.34387C2.07025 2.236 1.98281 2.14856 1.87494 2.14856H1.48437C1.3765 2.14856 1.28906 2.236 1.28906 2.34387V2.7345C1.28906 2.84237 1.3765 2.92981 1.48437 2.92981Z" fill="#686C70"/>
<path d="M1.48437 4.29688H1.87494C1.98281 4.29688 2.07025 4.20943 2.07025 4.10156V3.71094C2.07025 3.60307 1.98281 3.51562 1.87494 3.51562H1.48437C1.3765 3.51562 1.28906 3.60307 1.28906 3.71094V4.10156C1.28906 4.20943 1.3765 4.29688 1.48437 4.29688Z" fill="#686C70"/>
<path d="M1.48437 5.66406H1.87494C1.98281 5.66406 2.07025 5.57662 2.07025 5.46875V5.07812C2.07025 4.97025 1.98281 4.88281 1.87494 4.88281H1.48437C1.3765 4.88281 1.28906 4.97025 1.28906 5.07812V5.46875C1.28906 5.57662 1.3765 5.66406 1.48437 5.66406Z" fill="#686C70"/>
<path d="M1.48437 7.03125H1.87494C1.98281 7.03125 2.07025 6.94381 2.07025 6.83594V6.44531C2.07025 6.33744 1.98281 6.25 1.87494 6.25H1.48437C1.3765 6.25 1.28906 6.33744 1.28906 6.44531V6.83594C1.28906 6.94381 1.3765 7.03125 1.48437 7.03125Z" fill="#686C70"/>
<path d="M4.60932 0.781372H4.21875C4.11088 0.781372 4.02344 0.868813 4.02344 0.976685V1.36731C4.02344 1.47518 4.11088 1.56262 4.21875 1.56262H4.60932C4.71719 1.56262 4.80463 1.47518 4.80463 1.36731V0.976685C4.80463 0.868813 4.71719 0.781372 4.60932 0.781372Z" fill="#686C70"/>
<path d="M4.60932 2.14844H4.21875C4.11088 2.14844 4.02344 2.23588 4.02344 2.34375V2.73438C4.02344 2.84225 4.11088 2.92969 4.21875 2.92969H4.60932C4.71719 2.92969 4.80463 2.84225 4.80463 2.73438V2.34375C4.80463 2.2359 4.71719 2.14844 4.60932 2.14844Z" fill="#686C70"/>
<path d="M4.60932 3.51562H4.21875C4.11088 3.51562 4.02344 3.60307 4.02344 3.71094V4.10156C4.02344 4.20943 4.11088 4.29688 4.21875 4.29688H4.60932C4.71719 4.29688 4.80463 4.20943 4.80463 4.10156V3.71094C4.80463 3.60309 4.71719 3.51562 4.60932 3.51562Z" fill="#686C70"/>
<path d="M4.60932 4.88281H4.21875C4.11088 4.88281 4.02344 4.97025 4.02344 5.07812V5.46875C4.02344 5.57662 4.11088 5.66406 4.21875 5.66406H4.60932C4.71719 5.66406 4.80463 5.57662 4.80463 5.46875V5.07812C4.80463 4.97027 4.71719 4.88281 4.60932 4.88281Z" fill="#686C70"/>
<path d="M4.60932 6.25H4.21875C4.11088 6.25 4.02344 6.33744 4.02344 6.44531V6.83594C4.02344 6.94381 4.11088 7.03125 4.21875 7.03125H4.60932C4.71719 7.03125 4.80463 6.94381 4.80463 6.83594V6.44531C4.80463 6.33744 4.71719 6.25 4.60932 6.25Z" fill="#686C70"/>
<path d="M8.2226 3.51562H7.83203C7.72416 3.51562 7.63672 3.60307 7.63672 3.71094V4.10156C7.63672 4.20943 7.72416 4.29688 7.83203 4.29688H8.2226C8.33047 4.29688 8.41791 4.20943 8.41791 4.10156V3.71094C8.41791 3.60309 8.33045 3.51562 8.2226 3.51562Z" fill="#686C70"/>
<path d="M8.2226 4.88281H7.83203C7.72416 4.88281 7.63672 4.97025 7.63672 5.07812V5.46875C7.63672 5.57662 7.72416 5.66406 7.83203 5.66406H8.2226C8.33047 5.66406 8.41791 5.57662 8.41791 5.46875V5.07812C8.41791 4.97027 8.33045 4.88281 8.2226 4.88281Z" fill="#686C70"/>
<path d="M8.2226 6.25H7.83203C7.72416 6.25 7.63672 6.33744 7.63672 6.44531V6.83594C7.63672 6.94381 7.72416 7.03125 7.83203 7.03125H8.2226C8.33047 7.03125 8.41791 6.94381 8.41791 6.83594V6.44531C8.41791 6.33744 8.33045 6.25 8.2226 6.25Z" fill="#686C70"/>
<path d="M6.85541 3.51562H6.46484C6.35697 3.51562 6.26953 3.60307 6.26953 3.71094V4.10156C6.26953 4.20943 6.35697 4.29688 6.46484 4.29688H6.85541C6.96328 4.29688 7.05072 4.20943 7.05072 4.10156V3.71094C7.05072 3.60309 6.96326 3.51562 6.85541 3.51562Z" fill="#686C70"/>
<path d="M6.85541 4.88281H6.46484C6.35697 4.88281 6.26953 4.97025 6.26953 5.07812V5.46875C6.26953 5.57662 6.35697 5.66406 6.46484 5.66406H6.85541C6.96328 5.66406 7.05072 5.57662 7.05072 5.46875V5.07812C7.05072 4.97027 6.96326 4.88281 6.85541 4.88281Z" fill="#686C70"/>
<path d="M6.85541 6.25H6.46484C6.35697 6.25 6.26953 6.33744 6.26953 6.44531V6.83594C6.26953 6.94381 6.35697 7.03125 6.46484 7.03125H6.85541C6.96328 7.03125 7.05072 6.94381 7.05072 6.83594V6.44531C7.05072 6.33744 6.96326 6.25 6.85541 6.25Z" fill="#686C70"/>
</svg>
