<svg width="12" height="12" viewBox="0 0 12 12" fill="none" xmlns="http://www.w3.org/2000/svg">
<g clip-path="url(#clip0)">
<path d="M10.2859 3.85708H8.14306C7.90635 3.85708 7.71447 4.04896 7.71447 4.28566C7.71447 4.52237 7.90635 4.71425 8.14306 4.71425H10.2859C10.5226 4.71425 10.7145 4.90613 10.7145 5.14283V10.7143C10.7145 10.951 10.5226 11.1429 10.2859 11.1429H1.71443C1.47773 11.1429 1.28585 10.951 1.28585 10.7143V5.14281C1.28585 4.9061 1.47773 4.71422 1.71443 4.71422H3.8573C4.094 4.71422 4.28588 4.52234 4.28588 4.28564C4.28588 4.04893 4.094 3.85706 3.8573 3.85706H1.71443C1.00435 3.85706 0.428711 4.43269 0.428711 5.14278V10.7143C0.428711 11.4243 1.00435 12 1.71443 12H10.2859C10.996 12 11.5716 11.4243 11.5716 10.7143V5.14281C11.5716 4.43272 10.996 3.85708 10.2859 3.85708Z" fill="#686C70"/>
<path d="M8.44565 2.26836L6.30278 0.12549C6.13544 -0.04183 5.86413 -0.04183 5.69678 0.12549L3.55389 2.26836C3.38946 2.43861 3.39418 2.70992 3.56444 2.87435C3.73053 3.03477 3.99383 3.03477 4.15992 2.87435L5.57123 1.46305V8.57142C5.57123 8.80812 5.7631 9 5.99981 9C6.23651 9 6.42839 8.80812 6.42839 8.57142V1.46307L7.8397 2.87438C8.00996 3.03881 8.28127 3.03409 8.4457 2.86383C8.60606 2.69774 8.60606 2.43444 8.44565 2.26836Z" fill="#686C70"/>
</g>
<defs>
<clipPath id="clip0">
<rect width="12" height="12" fill="white"/>
</clipPath>
</defs>
</svg>
