<svg width="32" height="32" viewBox="0 0 32 32" fill="none" xmlns="http://www.w3.org/2000/svg">
<path d="M13.8527 19.708C13.7777 19.783 13.7356 19.8847 13.7356 19.9908C13.7356 20.0968 13.7777 20.1986 13.8527 20.2736C13.9094 20.3301 13.9543 20.3972 13.985 20.4712C14.0157 20.5451 14.0315 20.6243 14.0315 20.7044C14.0315 20.7844 14.0157 20.8637 13.985 20.9376C13.9543 21.0115 13.9094 21.0787 13.8527 21.1352L7.19269 27.796C7.07824 27.9104 6.92308 27.9746 6.76129 27.9746C6.59951 27.9746 6.44435 27.9104 6.32989 27.796L4.21669 25.6852C4.16004 25.6283 4.11524 25.5607 4.08489 25.4863C4.05454 25.412 4.03925 25.3323 4.03989 25.252C4.03969 25.1721 4.05544 25.093 4.08621 25.0193C4.11699 24.9456 4.16216 24.8788 4.21909 24.8228L10.8799 18.16C10.9359 18.1032 11.0027 18.0582 11.0763 18.0276C11.15 17.997 11.229 17.9813 11.3087 17.9816C11.389 17.9814 11.4685 17.9971 11.5426 18.0279C11.6168 18.0587 11.6841 18.1038 11.7407 18.1608C11.8158 18.2358 11.9175 18.2779 12.0236 18.2778C12.1297 18.2778 12.2315 18.2356 12.3065 18.1606C12.3815 18.0855 12.4236 17.9837 12.4236 17.8776C12.4235 17.7715 12.3814 17.6698 12.3063 17.5948C12.1754 17.4638 12.02 17.3599 11.8489 17.289C11.6778 17.2181 11.4945 17.1816 11.3093 17.1816C11.1241 17.1816 10.9408 17.2181 10.7697 17.289C10.5986 17.3599 10.4432 17.4638 10.3123 17.5948L3.65189 24.256C3.52071 24.3869 3.41662 24.5423 3.34561 24.7135C3.27459 24.8846 3.23804 25.0681 3.23804 25.2534C3.23804 25.4387 3.27459 25.6222 3.34561 25.7933C3.41662 25.9645 3.52071 26.1199 3.65189 26.2508L5.76509 28.362C6.02976 28.6258 6.38821 28.774 6.76189 28.774C7.13558 28.774 7.49403 28.6258 7.75869 28.362L14.4195 21.7008C14.5506 21.5699 14.6547 21.4145 14.7256 21.2434C14.7966 21.0723 14.8332 20.8888 14.8332 20.7036C14.8332 20.5183 14.7966 20.3349 14.7256 20.1638C14.6547 19.9927 14.5506 19.8372 14.4195 19.7064C14.3822 19.6692 14.338 19.6397 14.2893 19.6196C14.2406 19.5996 14.1884 19.5893 14.1358 19.5895C14.0831 19.5896 14.031 19.6001 13.9824 19.6205C13.9338 19.6408 13.8898 19.6706 13.8527 19.708Z" fill="#283C7C"/>
<path d="M11.7724 20.2348C11.8475 20.3098 11.9492 20.3519 12.0552 20.3519C12.1613 20.3519 12.263 20.3098 12.338 20.2348L20.5036 12.0692C20.5765 11.9937 20.6168 11.8927 20.6159 11.7878C20.6149 11.6829 20.5729 11.5826 20.4987 11.5085C20.4246 11.4343 20.3242 11.3922 20.2194 11.3913C20.1145 11.3904 20.0134 11.4307 19.938 11.5036L11.7724 19.6692C11.6975 19.7442 11.6553 19.8459 11.6553 19.952C11.6553 20.0581 11.6975 20.1598 11.7724 20.2348Z" fill="#283C7C"/>
<path d="M28.3482 5.74918L26.235 3.63998C26.1041 3.50868 25.9486 3.40451 25.7775 3.33343C25.6063 3.26234 25.4227 3.22575 25.2374 3.22575C25.052 3.22575 24.8685 3.26234 24.6973 3.33343C24.5261 3.40451 24.3706 3.50868 24.2398 3.63998L17.5802 10.2992C17.449 10.43 17.345 10.5855 17.274 10.7566C17.203 10.9277 17.1665 11.1111 17.1665 11.2964C17.1665 11.4816 17.203 11.6651 17.274 11.8362C17.345 12.0073 17.449 12.1627 17.5802 12.2936C17.6554 12.3684 17.7572 12.4103 17.8634 12.4101C17.9695 12.4098 18.0711 12.3674 18.146 12.2922C18.2208 12.217 18.2627 12.1151 18.2624 12.009C18.2622 11.9029 18.2198 11.8012 18.1446 11.7264C18.0879 11.6699 18.0429 11.6027 18.0122 11.5288C17.9816 11.4549 17.9658 11.3756 17.9658 11.2956C17.9658 11.2155 17.9816 11.1363 18.0122 11.0624C18.0429 10.9884 18.0879 10.9213 18.1446 10.8648L24.807 4.20398C24.8635 4.14717 24.9308 4.1021 25.0048 4.07134C25.0788 4.04058 25.1582 4.02475 25.2384 4.02475C25.3185 4.02475 25.3979 4.04058 25.4719 4.07134C25.546 4.1021 25.6132 4.14717 25.6698 4.20398L27.7826 6.31478C27.8394 6.37131 27.8844 6.4385 27.9152 6.5125C27.9459 6.5865 27.9618 6.66584 27.9618 6.74598C27.9618 6.82611 27.9459 6.90546 27.9152 6.97945C27.8844 7.05345 27.8394 7.12065 27.7826 7.17718L21.1198 13.84C21.0637 13.8966 20.997 13.9415 20.9235 13.9721C20.8499 14.0026 20.771 14.0182 20.6914 14.018C20.6111 14.0181 20.5316 14.0024 20.4574 13.9716C20.3833 13.9409 20.3159 13.8957 20.2594 13.8388C20.1843 13.7638 20.0825 13.7217 19.9764 13.7217C19.8703 13.7217 19.7686 13.7639 19.6936 13.839C19.6186 13.914 19.5764 14.0158 19.5765 14.1219C19.5765 14.228 19.6187 14.3298 19.6938 14.4048C19.8245 14.5362 19.98 14.6403 20.1512 14.7112C20.3224 14.7822 20.506 14.8184 20.6914 14.818H20.6938C20.8785 14.8183 21.0616 14.782 21.2322 14.7111C21.4028 14.6401 21.5577 14.536 21.6878 14.4048L28.3478 7.74398C28.479 7.61311 28.583 7.45766 28.6541 7.28651C28.7251 7.11536 28.7616 6.93188 28.7616 6.74658C28.7616 6.56128 28.7251 6.3778 28.6541 6.20665C28.583 6.0355 28.479 5.88004 28.3478 5.74918H28.3482Z" fill="#283C7C"/>
</svg>
