<svg width="50" height="50" viewBox="0 0 50 50" fill="none" xmlns="http://www.w3.org/2000/svg">
<path d="M44.5312 1.5625H5.46875C3.31484 1.5625 1.5625 3.31484 1.5625 5.46875V33.5938C1.5625 35.7477 3.31484 37.5 5.46875 37.5H19.2625L17.3875 43.75H14.0625C13.6305 43.75 13.2812 44.1 13.2812 44.5312C13.2812 46.6852 15.0336 48.4375 17.1875 48.4375H32.8125C34.9664 48.4375 36.7188 46.6852 36.7188 44.5312C36.7188 44.1 36.3695 43.75 35.9375 43.75H32.6125L30.7375 37.5H44.5312C46.6852 37.5 48.4375 35.7477 48.4375 33.5938V5.46875C48.4375 3.31484 46.6852 1.5625 44.5312 1.5625ZM5.46875 3.125H44.5312C45.8234 3.125 46.875 4.17656 46.875 5.46875V29.6875H3.125V20.3125H14.8438V21.0938C14.8438 22.3859 15.8953 23.4375 17.1875 23.4375H32.0938C32.475 26.0836 34.7508 28.125 37.5 28.125C40.5148 28.125 42.9688 25.6719 42.9688 22.6562C42.9688 19.907 40.9266 17.6313 38.2812 17.25V10.1562C38.2812 8.86406 37.2297 7.8125 35.9375 7.8125H22.0594L15.9742 4.76953C15.7992 4.68281 15.5984 4.6625 15.4102 4.71719L10.0469 6.25H3.125V5.46875C3.125 4.17656 4.17656 3.125 5.46875 3.125ZM32.0938 21.875H17.1875C16.7563 21.875 16.4062 21.5242 16.4062 21.0938V20.3125H19.1406C20.6484 20.3125 21.875 19.0859 21.875 17.5781C21.875 17.157 21.7711 16.7625 21.6008 16.4062H36.7188V17.25C34.3289 17.5945 32.4383 19.4852 32.0938 21.875ZM16.4062 13.2812H36.7188V14.8438H16.4062V13.2812ZM37.5 18.75C39.6539 18.75 41.4062 20.5023 41.4062 22.6562C41.4062 24.8102 39.6539 26.5625 37.5 26.5625C35.3461 26.5625 33.5938 24.8102 33.5938 22.6562C33.5938 20.5023 35.3461 18.75 37.5 18.75ZM36.7188 11.7188H16.4062V10.1562C16.4062 9.72578 16.7563 9.375 17.1875 9.375H35.9375C36.3688 9.375 36.7188 9.72578 36.7188 10.1562V11.7188ZM17.1875 7.8125C15.8953 7.8125 14.8438 8.86406 14.8438 10.1562V14.8438H13.2812V16.4062H15.625H19.1406C19.7867 16.4062 20.3125 16.932 20.3125 17.5781C20.3125 18.2242 19.7867 18.75 19.1406 18.75H3.125V7.8125H10.1562C10.2289 7.8125 10.3016 7.80234 10.3703 7.78203L15.5469 6.30312L18.5656 7.8125H17.1875ZM32.8125 46.875H17.1875C16.1687 46.875 15.3 46.2219 14.9773 45.3125H35.0227C34.7 46.2219 33.8312 46.875 32.8125 46.875ZM30.9812 43.75H19.0187L20.8937 37.5H29.1063L30.9812 43.75ZM44.5312 35.9375H5.46875C4.17656 35.9375 3.125 34.8859 3.125 33.5938V31.25H46.875V33.5938C46.875 34.8859 45.8234 35.9375 44.5312 35.9375Z" fill="#283C7C"/>
<path d="M36.7193 25.0001C36.9193 25.0001 37.1193 24.9235 37.2717 24.7712L40.3967 21.6462L39.292 20.5415L36.7193 23.1142L35.7092 22.104L34.6045 23.2087L36.167 24.7712C36.3193 24.9235 36.5193 25.0001 36.7193 25.0001Z" fill="#283C7C"/>
<path d="M22.6562 17.9688H24.2188V19.5312H22.6562V17.9688Z" fill="#283C7C"/>
<path d="M25.7812 17.9688H27.3438V19.5312H25.7812V17.9688Z" fill="#283C7C"/>
<path d="M28.9062 17.9688H30.4688V19.5312H28.9062V17.9688Z" fill="#283C7C"/>
</svg>
