<svg width="108" height="104" viewBox="0 0 108 104" fill="none" xmlns="http://www.w3.org/2000/svg">
<circle cx="52" cy="52" r="52" fill="#0DB450"/>
<circle cx="52" cy="52" r="50" fill="#E7F3FF"/>
<circle cx="100.5" cy="32.5" r="7" fill="#0DB450" stroke="white"/>
<path d="M98 32.8646L99.8333 35.4751L103 31" stroke="white" stroke-width="2" stroke-linecap="round" stroke-linejoin="round"/>
<path d="M72.5312 31.5625H33.4688C31.3148 31.5625 29.5625 33.3148 29.5625 35.4688V63.5938C29.5625 65.7477 31.3148 67.5 33.4688 67.5H47.2625L45.3875 73.75H42.0625C41.6305 73.75 41.2812 74.1 41.2812 74.5312C41.2812 76.6852 43.0336 78.4375 45.1875 78.4375H60.8125C62.9664 78.4375 64.7188 76.6852 64.7188 74.5312C64.7188 74.1 64.3695 73.75 63.9375 73.75H60.6125L58.7375 67.5H72.5312C74.6852 67.5 76.4375 65.7477 76.4375 63.5938V35.4688C76.4375 33.3148 74.6852 31.5625 72.5312 31.5625ZM33.4688 33.125H72.5312C73.8234 33.125 74.875 34.1766 74.875 35.4688V59.6875H31.125V50.3125H42.8438V51.0938C42.8438 52.3859 43.8953 53.4375 45.1875 53.4375H60.0938C60.475 56.0836 62.7508 58.125 65.5 58.125C68.5148 58.125 70.9688 55.6719 70.9688 52.6562C70.9688 49.907 68.9266 47.6313 66.2812 47.25V40.1562C66.2812 38.8641 65.2297 37.8125 63.9375 37.8125H50.0594L43.9742 34.7695C43.7992 34.6828 43.5984 34.6625 43.4102 34.7172L38.0469 36.25H31.125V35.4688C31.125 34.1766 32.1766 33.125 33.4688 33.125ZM60.0938 51.875H45.1875C44.7563 51.875 44.4062 51.5242 44.4062 51.0938V50.3125H47.1406C48.6484 50.3125 49.875 49.0859 49.875 47.5781C49.875 47.157 49.7711 46.7625 49.6008 46.4062H64.7188V47.25C62.3289 47.5945 60.4383 49.4852 60.0938 51.875ZM44.4062 43.2812H64.7188V44.8438H44.4062V43.2812ZM65.5 48.75C67.6539 48.75 69.4062 50.5023 69.4062 52.6562C69.4062 54.8102 67.6539 56.5625 65.5 56.5625C63.3461 56.5625 61.5938 54.8102 61.5938 52.6562C61.5938 50.5023 63.3461 48.75 65.5 48.75ZM64.7188 41.7188H44.4062V40.1562C44.4062 39.7258 44.7563 39.375 45.1875 39.375H63.9375C64.3688 39.375 64.7188 39.7258 64.7188 40.1562V41.7188ZM45.1875 37.8125C43.8953 37.8125 42.8438 38.8641 42.8438 40.1562V44.8438H41.2812V46.4062H43.625H47.1406C47.7867 46.4062 48.3125 46.932 48.3125 47.5781C48.3125 48.2242 47.7867 48.75 47.1406 48.75H31.125V37.8125H38.1562C38.2289 37.8125 38.3016 37.8023 38.3703 37.782L43.5469 36.3031L46.5656 37.8125H45.1875ZM60.8125 76.875H45.1875C44.1687 76.875 43.3 76.2219 42.9773 75.3125H63.0227C62.7 76.2219 61.8312 76.875 60.8125 76.875ZM58.9812 73.75H47.0187L48.8937 67.5H57.1063L58.9812 73.75ZM72.5312 65.9375H33.4688C32.1766 65.9375 31.125 64.8859 31.125 63.5938V61.25H74.875V63.5938C74.875 64.8859 73.8234 65.9375 72.5312 65.9375Z" fill="#283C7C"/>
<path d="M64.7193 55.0001C64.9193 55.0001 65.1193 54.9235 65.2717 54.7712L68.3967 51.6462L67.292 50.5415L64.7193 53.1142L63.7092 52.104L62.6045 53.2087L64.167 54.7712C64.3193 54.9235 64.5193 55.0001 64.7193 55.0001Z" fill="#283C7C"/>
<path d="M50.6562 47.9688H52.2188V49.5312H50.6562V47.9688Z" fill="#283C7C"/>
<path d="M53.7812 47.9688H55.3438V49.5312H53.7812V47.9688Z" fill="#283C7C"/>
<path d="M56.9062 47.9688H58.4688V49.5312H56.9062V47.9688Z" fill="#283C7C"/>
</svg>
