<svg width="10" height="10" viewBox="0 0 10 10" fill="none" xmlns="http://www.w3.org/2000/svg">
<path d="M8.60907 0.686675C8.10505 0.183543 7.28886 0.183543 6.78484 0.686675L6.32819 1.14582L1.46725 6.00418L1.45692 6.01459C1.45442 6.01709 1.45442 6.01975 1.45176 6.01975C1.44659 6.0275 1.43884 6.03517 1.43376 6.04292C1.43376 6.0455 1.4311 6.0455 1.4311 6.04808C1.42593 6.05583 1.42343 6.061 1.41818 6.06874C1.41568 6.07133 1.41568 6.07383 1.4131 6.07649C1.41052 6.08424 1.40793 6.08941 1.40527 6.09715C1.40527 6.09966 1.40277 6.09966 1.40277 6.10232L0.324272 9.34548C0.292634 9.4378 0.316685 9.54006 0.386175 9.60858C0.435003 9.65676 0.50086 9.68372 0.569381 9.68348C0.597386 9.68299 0.62515 9.67864 0.651945 9.67057L3.8926 8.58949C3.8951 8.58949 3.8951 8.58949 3.89776 8.58698C3.90592 8.58456 3.91374 8.58109 3.92093 8.57657C3.92295 8.57633 3.92472 8.57544 3.92617 8.57407C3.93384 8.56891 3.94417 8.56366 3.95192 8.55849C3.95959 8.55341 3.96741 8.54566 3.97516 8.5405C3.97775 8.53783 3.98025 8.53783 3.98025 8.53533C3.98291 8.53275 3.98808 8.53025 3.99066 8.525L9.30824 3.20742C9.81137 2.7034 9.81137 1.8872 9.30824 1.38326L8.60907 0.686675ZM3.81003 7.98313L2.01429 6.18747L6.50882 1.69294L8.30456 3.4886L3.81003 7.98313ZM1.76135 6.66477L3.33015 8.23349L0.974453 9.0178L1.76135 6.66477ZM8.94449 2.84617L8.67098 3.12227L6.87515 1.32644L7.15133 1.05042C7.45342 0.748578 7.94307 0.748578 8.24524 1.05042L8.947 1.75218C9.24682 2.05564 9.24569 2.54416 8.94449 2.84617Z" fill="#283C7C"/>
</svg>
