<svg width="30" height="30" viewBox="0 0 35 35" fill="none" xmlns="http://www.w3.org/2000/svg">
<g clip-path="url(#clip0)">
<path d="M31.4916 21.3157L29.7367 20.1896L33.706 14.0036C34.376 12.9594 34.0716 11.5648 33.0274 10.8948C31.9832 10.2248 30.5886 10.5292 29.9186 11.5734L25.9493 17.7594L21.8844 15.1512L25.8537 8.96514C26.5237 7.92095 26.2193 6.52637 25.1751 5.85636C24.1309 5.18635 22.7363 5.49076 22.0663 6.53495L18.097 12.721L16.3421 11.5949C16.0632 11.416 15.692 11.497 15.5131 11.7759L10.4706 19.6344C9.32033 21.4271 9.84296 23.8213 11.6356 24.9716L12.5506 25.5587L11.4165 27.3262C11.2376 27.605 11.3186 27.9762 11.5975 28.1552L13.2387 29.2082L11.4566 31.9856C11.2776 32.2645 11.3586 32.6357 11.6375 32.8147L14.1624 34.4348C14.4413 34.6137 14.8125 34.5327 14.9914 34.2538L16.7736 31.4764L18.4148 32.5295C18.6937 32.7084 19.0648 32.6274 19.2438 32.3485L20.3779 30.5811L21.2929 31.1682C23.0855 32.3185 25.4798 31.7959 26.6301 30.0032L31.6725 22.1447C31.8515 21.8658 31.7704 21.4946 31.4916 21.3157ZM30.9285 12.2214C31.2412 11.7342 31.892 11.5921 32.3793 11.9048C32.8666 12.2174 33.0087 12.8682 32.696 13.3555L28.7267 19.5416L26.9592 18.4075L30.9285 12.2214ZM23.0763 7.183C23.389 6.69572 24.0398 6.55366 24.5271 6.86633C25.0143 7.17899 25.1564 7.82981 24.8437 8.31709L20.8744 14.5031L19.107 13.369L23.0763 7.183ZM14.3055 33.1008L12.7906 32.1287L14.2487 29.8563L15.7636 30.8284L14.3055 33.1008ZM18.5578 31.1955L12.7505 27.4692L13.5606 26.2068L19.3679 29.933L18.5578 31.1955ZM29.4721 23.3519L26.682 21.5616C26.4031 21.3826 26.0319 21.4637 25.853 21.7425C25.674 22.0214 25.7551 22.3926 26.0339 22.5716L28.8241 24.3619L25.6201 29.3551C24.8272 30.5909 23.1767 30.9512 21.941 30.1583L12.2837 23.9616C11.0479 23.1687 10.6876 21.5182 11.4806 20.2824L14.6845 15.2892L21.7543 19.8255C22.0332 20.0044 22.4044 19.9234 22.5833 19.6445C22.7623 19.3657 22.6812 18.9945 22.4024 18.8155L15.3326 14.2792L16.199 12.9289L30.3385 22.0016L29.4721 23.3519Z" fill="#283C7C"/>
<path d="M23.8628 21.1785L23.989 21.2595C24.2679 21.4384 24.6391 21.3574 24.818 21.0785C24.997 20.7996 24.916 20.4285 24.6371 20.2495L24.5108 20.1685C24.232 19.9896 23.8608 20.0706 23.6818 20.3495C23.5029 20.6283 23.5839 20.9995 23.8628 21.1785Z" fill="#283C7C"/>
</g>
<defs>
<clipPath id="clip0">
<rect x="16.4766" y="0.274902" width="30" height="30" transform="rotate(30 16.4766 0.274902)" fill="white"/>
</clipPath>
</defs>
</svg>
