<svg width="20" height="20" viewBox="0 0 20 20" fill="none" xmlns="http://www.w3.org/2000/svg">
<path fill-rule="evenodd" clip-rule="evenodd" d="M15.7143 3.69039H17.4911C18.7411 3.69039 20 4.53414 20 6.12789V12.0118C20 13.3958 18.7366 14.4047 17.4911 14.4047H15.7143V19.4047H15.3571H15H5H4.50893H4.28571V14.4047H2.50893C1.26339 14.4047 0 13.3511 0 11.6547V6.12789C0 4.44486 1.26339 3.69039 2.50893 3.69039H4.28571V0.833252H15.7143V3.69039ZM5 18.6904H15V10.8333H5V18.6904ZM5 3.69045H15V1.54759H5V3.69045ZM16.3838 6.54754H17.1427V5.83325H16.3838V6.54754ZM14.2856 12.2618H5.71416V12.9761H14.2856V12.2618ZM5.71416 14.4047H14.2856V15.119H5.71416V14.4047ZM14.2856 16.5476H5.71416V17.2619H14.2856V16.5476Z" fill="#001B36"/>
<mask id="mask0" mask-type="alpha" maskUnits="userSpaceOnUse" x="0" y="0" width="20" height="20">
<path fill-rule="evenodd" clip-rule="evenodd" d="M15.7143 3.69039H17.4911C18.7411 3.69039 20 4.53414 20 6.12789V12.0118C20 13.3958 18.7366 14.4047 17.4911 14.4047H15.7143V19.4047H15.3571H15H5H4.50893H4.28571V14.4047H2.50893C1.26339 14.4047 0 13.3511 0 11.6547V6.12789C0 4.44486 1.26339 3.69039 2.50893 3.69039H4.28571V0.833252H15.7143V3.69039ZM5 18.6904H15V10.8333H5V18.6904ZM5 3.69045H15V1.54759H5V3.69045ZM16.3838 6.54754H17.1427V5.83325H16.3838V6.54754ZM14.2856 12.2618H5.71416V12.9761H14.2856V12.2618ZM5.71416 14.4047H14.2856V15.119H5.71416V14.4047ZM14.2856 16.5476H5.71416V17.2619H14.2856V16.5476Z" fill="white"/>
</mask>
<g mask="url(#mask0)">
<rect width="20" height="20" fill="#001B36"/>
</g>
</svg>
