<svg width="26" height="26" viewBox="0 0 26 26" fill="none" xmlns="http://www.w3.org/2000/svg">
<path d="M13 0.5C19.9036 0.5 25.5 6.09644 25.5 13C25.5 19.9036 19.9036 25.5 13 25.5C6.09644 25.5 0.5 19.9036 0.5 13C0.5 6.09644 6.09644 0.5 13 0.5Z" fill="white" stroke="#3B44F0"/>
<path d="M13 3.5C18.2467 3.5 22.5 7.75329 22.5 13C22.5 18.2467 18.2467 22.5 13 22.5C7.75329 22.5 3.5 18.2467 3.5 13C3.5 7.75329 7.75329 3.5 13 3.5Z" fill="#3B44F0" stroke="#3B44F0"/>
<path d="M8.18778 10.9702C8.18407 10.9904 8.18198 11.0108 8.18131 11.0313V11.451C8.18185 11.624 8.28928 11.7787 8.45135 11.8394V12.4571C8.45209 12.6638 8.61469 12.8338 8.8212 12.8436V16.4118C8.61469 16.4216 8.45209 16.5916 8.45135 16.7983V17.4141C8.28894 17.4765 8.18158 17.6323 8.18131 17.8061V18.2167C8.18131 18.2933 8.24349 18.3554 8.32004 18.3554H17.6738C17.7503 18.3554 17.8124 18.2933 17.8124 18.2167V17.8061C17.8122 17.6322 17.7048 17.4764 17.5425 17.4141V16.7946C17.5417 16.5878 17.379 16.4179 17.1726 16.4081V12.8436C17.379 12.8338 17.5417 12.6638 17.5425 12.4571V11.8394C17.7045 11.7787 17.8119 11.624 17.8124 11.451V11.034C17.8118 11.0136 17.8097 10.9931 17.806 10.973C17.8757 11.0039 17.9572 10.9724 17.9881 10.9027C18.019 10.833 17.9876 10.7515 17.9179 10.7205L13.0607 8.16765C13.0202 8.14627 12.9717 8.14627 12.9312 8.16765L8.07407 10.7178C8.00629 10.7536 7.98033 10.8374 8.016 10.9052C8.04865 10.9671 8.12229 10.995 8.18778 10.9702ZM8.72874 12.0798V11.8662H10.3283V12.078L8.72874 12.0798ZM12.2904 12.8445V16.4118C12.0839 16.4216 11.9213 16.5916 11.9206 16.7983V17.3882H10.6038V16.7983C10.6031 16.5916 10.4405 16.4216 10.234 16.4118V12.8436C10.4405 12.8338 10.6031 12.6638 10.6038 12.4571V11.8662H11.9187V12.4562C11.919 12.6633 12.0818 12.8337 12.2886 12.8436L12.2904 12.8445ZM12.198 12.0798V11.8662H13.7976V12.078L12.198 12.0798ZM15.7598 12.8445V16.4118C15.5532 16.4216 15.3906 16.5916 15.3898 16.7983V17.3882H14.0732V16.7983C14.0724 16.5916 13.9097 16.4216 13.7033 16.4118V12.8436C13.9097 12.8338 14.0724 12.6638 14.0732 12.4571V11.8662H15.388V12.4562C15.3883 12.6633 15.551 12.8337 15.7579 12.8436L15.7598 12.8445ZM15.6673 12.0798V11.8662H17.2669V12.078L15.6673 12.0798ZM17.2669 17.1765V17.3882H15.6654V17.1765H17.2669ZM13.7976 17.1765V17.3882H12.1962V17.1765H13.7976ZM12.4273 12.5689H12.3071C12.2458 12.5689 12.1962 12.5193 12.1962 12.458V12.3572H13.7958V12.458C13.7958 12.5193 13.7461 12.5689 13.6848 12.5689H12.4273ZM13.4268 12.8463V16.4099H12.566V12.8463H13.4268ZM12.4273 16.6873H13.6848C13.7461 16.6873 13.7958 16.737 13.7958 16.7983V16.8991H12.1962V16.7983C12.1962 16.737 12.2458 16.6873 12.3071 16.6873H12.4273ZM10.3265 17.1765V17.3882H8.72685V17.1765H10.3265ZM8.72685 12.4608V12.3572H10.3265V12.458C10.3265 12.5193 10.2769 12.5689 10.2155 12.5689H8.83503C8.77446 12.5675 8.72631 12.5176 8.72685 12.4571V12.4608ZM9.95666 12.8491V16.4099H9.0967V12.8463L9.95666 12.8491ZM8.72685 16.8011C8.72685 16.7397 8.77649 16.6901 8.83779 16.6901H10.2155C10.2769 16.6901 10.3265 16.7397 10.3265 16.8011V16.9019H8.72685V16.8011ZM17.535 17.8117V18.0835H8.45688V17.8117C8.45688 17.7325 8.52101 17.6683 8.60019 17.6683H17.3917C17.4698 17.6683 17.5336 17.7309 17.535 17.8089V17.8117ZM17.2651 16.8011V16.9019H15.6654V16.8011C15.6654 16.7397 15.715 16.6901 15.7763 16.6901H17.1569C17.216 16.6916 17.2636 16.7391 17.2651 16.7983V16.8011ZM16.0353 16.4127V12.8463H16.8961V16.4099L16.0353 16.4127ZM17.2651 12.4608C17.2651 12.5221 17.2154 12.5717 17.1541 12.5717H15.7773C15.716 12.5717 15.6663 12.5221 15.6663 12.4608V12.3572H17.2659L17.2651 12.4608ZM12.996 8.44504L17.1263 10.6161H8.86558L12.996 8.44504ZM8.45688 11.034C8.45688 10.9575 8.51899 10.8954 8.59554 10.8954H17.3964C17.4729 10.8954 17.535 10.9575 17.535 11.034V11.4538C17.535 11.5304 17.4729 11.5925 17.3964 11.5925H8.59554C8.51899 11.5925 8.45688 11.5304 8.45688 11.4538V11.034Z" fill="white"/>
</svg>
