<svg width="10" height="11" viewBox="0 0 10 11" fill="none" xmlns="http://www.w3.org/2000/svg">
<path d="M0.18778 2.81861C0.184071 2.83877 0.18198 2.85921 0.181306 2.87964V3.29941C0.181845 3.4724 0.289281 3.62704 0.451346 3.68781V4.30545C0.452088 4.51222 0.614691 4.68218 0.8212 4.69196V8.26014C0.614691 8.26999 0.452088 8.43994 0.451346 8.64665V9.26247C0.288944 9.32485 0.181576 9.48065 0.181306 9.65451V10.0651C0.181306 10.1417 0.243488 10.2038 0.320035 10.2038H9.67377C9.75032 10.2038 9.81243 10.1417 9.81243 10.0651V9.65451C9.81216 9.48058 9.70479 9.32479 9.54246 9.26247V8.64301C9.54172 8.43623 9.37905 8.26628 9.17261 8.2565V4.69196C9.37905 4.68218 9.54172 4.51222 9.54246 4.30545V3.68781C9.70446 3.62704 9.81189 3.4724 9.81243 3.29941V2.88241C9.81183 2.86197 9.80967 2.84154 9.80596 2.82137C9.87569 2.85226 9.95723 2.82083 9.98812 2.7511C10.019 2.68143 9.98758 2.59989 9.91791 2.56894L5.0607 0.0160345C5.02017 -0.00534482 4.97175 -0.00534482 4.93121 0.0160345L0.0740723 2.56617C0.0062926 2.60198 -0.0196728 2.68581 0.0160043 2.75359C0.0486465 2.81551 0.122294 2.84343 0.18778 2.81861ZM0.728737 3.92817V3.71458H2.32834V3.92635L0.728737 3.92817ZM4.29044 4.6929V8.26014C4.08393 8.26999 3.92133 8.43994 3.92059 8.64665V9.23657H2.60384V8.64665C2.6031 8.43994 2.4405 8.26999 2.23399 8.26014V4.69196C2.4405 4.68218 2.6031 4.51222 2.60384 4.30545V3.71458H3.9187V4.30457C3.91904 4.51168 4.08178 4.68204 4.28862 4.69196L4.29044 4.6929ZM4.19798 3.92817V3.71458H5.79765V3.92635L4.19798 3.92817ZM7.75975 4.6929V8.26014C7.55324 8.26999 7.39057 8.43994 7.38983 8.64665V9.23657H6.07315V8.64665C6.07241 8.43994 5.90974 8.26999 5.7033 8.26014V4.69196C5.90974 4.68218 6.07241 4.51222 6.07315 4.30545V3.71458H7.38801V4.30457C7.38828 4.51168 7.55102 4.68204 7.75786 4.69196L7.75975 4.6929ZM7.66729 3.92817V3.71458H9.26689V3.92635L7.66729 3.92817ZM9.26689 9.02487V9.23657H7.6654V9.02487H9.26689ZM5.79765 9.02487V9.23657H4.19616V9.02487H5.79765ZM4.42728 4.41733H4.3071C4.2458 4.41733 4.19616 4.36769 4.19616 4.30639V4.20556H5.79576V4.30639C5.79576 4.36769 5.74612 4.41733 5.68482 4.41733H4.42728ZM5.42685 4.69472V8.25832H4.56601V4.69472H5.42685ZM4.42728 8.53571H5.68482C5.74612 8.53571 5.79576 8.58535 5.79576 8.64665V8.74748H4.19616V8.64665C4.19616 8.58535 4.2458 8.53571 4.3071 8.53571H4.42728ZM2.32652 9.02487V9.23657H0.726848V9.02487H2.32652ZM0.726848 4.30915V4.20556H2.32652V4.30639C2.32652 4.36769 2.27688 4.41733 2.21551 4.41733H0.835026C0.774463 4.41585 0.726309 4.36601 0.726848 4.30545V4.30915ZM1.95666 4.69749V8.25832H1.0967V4.69472L1.95666 4.69749ZM0.726848 8.64948C0.726848 8.58811 0.776486 8.53848 0.837791 8.53848H2.21551C2.27688 8.53848 2.32652 8.58811 2.32652 8.64948V8.75024H0.726848V8.64948ZM9.53504 9.66011V9.9319H0.456876V9.66011C0.456876 9.58093 0.521014 9.51673 0.600191 9.51673H9.39173C9.46976 9.51673 9.53356 9.57925 9.53504 9.65728V9.66011ZM9.26507 8.64948V8.75024H7.6654V8.64948C7.6654 8.58811 7.71504 8.53848 7.77634 8.53848H9.15689C9.21604 8.53996 9.26359 8.58751 9.26507 8.64665V8.64948ZM8.03526 8.26108V4.69472H8.89609V8.25832L8.03526 8.26108ZM9.26507 4.30915C9.26507 4.37046 9.21543 4.4201 9.15413 4.4201H7.77729C7.71598 4.4201 7.66635 4.37046 7.66635 4.30915V4.20556H9.26595L9.26507 4.30915ZM4.99596 0.293426L9.12634 2.46447H0.865578L4.99596 0.293426ZM0.456876 2.88241C0.456876 2.80586 0.518991 2.74375 0.595538 2.74375H9.39638C9.47293 2.74375 9.53504 2.80586 9.53504 2.88241V3.30224C9.53504 3.37879 9.47293 3.4409 9.39638 3.4409H0.595538C0.518991 3.4409 0.456876 3.37879 0.456876 3.30224V2.88241Z" fill="#686C70"/>
</svg>
