<svg width="50" height="42" viewBox="0 0 50 42" fill="none" xmlns="http://www.w3.org/2000/svg">
<path d="M47.702 39.8383H46.8688V18.1095C48.7502 16.8989 50 14.7878 50 12.389C50 12.2616 49.9667 12.1363 49.9035 12.0256L44.0917 1.85493C43.6835 1.14077 42.9189 0.697021 42.0964 0.697021H7.90361C7.08105 0.697021 6.3165 1.14067 5.9083 1.85493L0.0964844 12.0256C0.0333008 12.1363 0 12.2617 0 12.389C0 14.7878 1.2498 16.8989 3.13125 18.1095V39.8383H2.29805C1.89355 39.8383 1.56562 40.1663 1.56562 40.5708C1.56562 40.9752 1.89355 41.3032 2.29805 41.3032H47.702C48.1065 41.3032 48.4344 40.9752 48.4344 40.5708C48.4344 40.1663 48.1064 39.8383 47.702 39.8383ZM1.51533 13.1214H3.86338C4.26787 13.1214 4.5958 12.7935 4.5958 12.389C4.5958 11.9845 4.26787 11.6566 3.86338 11.6566H1.99453L7.18018 2.58169C7.32822 2.3227 7.60537 2.16187 7.90361 2.16187H42.0964C42.3946 2.16187 42.6719 2.3227 42.8198 2.58169L48.0054 11.6566H46.1361C45.7315 11.6566 45.4037 11.9845 45.4037 12.389C45.4037 12.7935 45.7315 13.1214 46.1361 13.1214H48.4846C48.1265 15.7175 45.8936 17.7235 43.2006 17.7235C40.5077 17.7235 38.2759 15.7173 37.9177 13.1214H43.0052C43.4098 13.1214 43.7376 12.7935 43.7376 12.389C43.7376 11.9845 43.4098 11.6566 43.0052 11.6566H6.99521C6.59072 11.6566 6.26279 11.9845 6.26279 12.389C6.26279 12.7935 6.59072 13.1214 6.99521 13.1214H12.0822C11.724 15.7173 9.49209 17.7235 6.79932 17.7235C4.10635 17.7235 1.87344 15.7175 1.51533 13.1214ZM36.3498 13.1214C35.9916 15.7173 33.7597 17.7235 31.0669 17.7235C28.374 17.7235 26.1422 15.7173 25.784 13.1214H36.3498ZM24.216 13.1214C23.8578 15.7173 21.6259 17.7235 18.9331 17.7235C16.2403 17.7235 14.0084 15.7173 13.6502 13.1214H24.216ZM41.4896 39.8384H33.5606V37.3891H41.4896V39.8384ZM41.4896 35.9243H33.5606V22.5154H41.4896V35.9243ZM45.4039 39.8384H42.9546V21.783C42.9546 21.3785 42.6268 21.0505 42.2222 21.0505H32.8283C32.4237 21.0505 32.0959 21.3785 32.0959 21.783V39.8383H4.59609V18.8199C5.2876 19.0575 6.02822 19.1883 6.79932 19.1883C9.44531 19.1883 11.7431 17.6692 12.8662 15.4572C13.9894 17.6691 16.2871 19.1883 18.9331 19.1883C21.5791 19.1883 23.8769 17.6692 25 15.4572C26.1231 17.6691 28.4209 19.1883 31.0669 19.1883C33.7129 19.1883 36.0106 17.6692 37.1338 15.4572C38.2569 17.6691 40.5547 19.1883 43.2007 19.1883C43.9718 19.1883 44.7124 19.0575 45.4039 18.82V39.8384Z" fill="#283C7C"/>
</svg>
