<svg width="80" height="80" viewBox="0 0 80 80" fill="none" xmlns="http://www.w3.org/2000/svg">
<path d="M76.9848 36.9848C75.3195 36.9848 73.9698 38.3345 73.9698 40C73.9698 58.7317 58.7317 73.9698 40 73.9698C21.2694 73.9698 6.03016 58.7317 6.03016 40C6.03016 21.2694 21.2694 6.03016 40 6.03016C41.6653 6.03016 43.0152 4.68047 43.0152 3.01516C43.0152 1.34969 41.6653 0 40 0C17.9437 0 0 17.9437 0 40C0 62.0553 17.9437 80 40 80C62.0553 80 80 62.0553 80 40C80 38.3347 78.6503 36.9848 76.9848 36.9848Z" fill="#5CBD7C"/>
</svg>
