<svg width="15" height="15" viewBox="0 0 15 15" fill="none" xmlns="http://www.w3.org/2000/svg">
<path d="M14.6537 0H1.98245C1.91519 0 1.84903 0.0266309 1.80585 0.0781641C1.71145 0.190811 1.75347 0.351562 1.86948 0.414023L4.82495 2.00543C4.82524 2.00558 4.82545 2.00587 4.82551 2.00622L5.51363 6.59355C5.53827 6.75249 5.727 6.83396 5.85887 6.74036L8.74522 4.68952C8.74555 4.68929 8.74599 4.68926 8.74637 4.68946L10.7918 5.81443C10.8893 5.86805 11.0151 5.83857 11.0786 5.74723L13.2293 2.65564C13.2987 2.55583 13.2741 2.4186 13.1743 2.34917C13.0744 2.27971 12.9373 2.30437 12.8678 2.40419L10.8309 5.33232C10.8305 5.33276 10.83 5.33291 10.8295 5.33265L6.75037 3.08915C6.74955 3.08871 6.74967 3.08751 6.75055 3.08719L14.0929 0.639727C14.0939 0.639404 14.0947 0.640518 14.0941 0.641338L13.4854 1.51635C13.4162 1.61584 13.4323 1.75629 13.53 1.82795C13.6302 1.90143 13.7705 1.87752 13.8411 1.77621L14.8361 0.345879C14.8423 0.336885 14.8479 0.327129 14.8528 0.317256C14.9243 0.172178 14.8141 0 14.6537 0ZM8.31576 4.45263C8.31644 4.45301 8.31649 4.454 8.31585 4.45444L6.01845 6.08678C6.01769 6.0873 6.01666 6.08669 6.01678 6.08575L6.37651 3.38771C6.3766 3.38698 6.37742 3.38657 6.3781 3.38692L8.31576 4.45263ZM11.8411 0.926162L6.13139 2.8294C6.05267 2.85577 5.99375 2.92679 5.98276 3.00917L5.71947 4.98375C5.7193 4.98498 5.71754 4.98498 5.71736 4.98378L5.27668 2.0458C5.27659 2.04521 5.27697 2.04469 5.27756 2.0446L11.8406 0.924082C11.8419 0.923848 11.8424 0.925723 11.8411 0.926162ZM12.0451 0.442441L5.0648 1.63421C5.06457 1.63424 5.06434 1.63421 5.06413 1.63409L2.85084 0.442353C2.84987 0.441826 2.85022 0.440332 2.85134 0.440332H12.045C12.0463 0.440332 12.0464 0.442236 12.0451 0.442441Z" fill="#4D4D4D"/>
<path d="M4.07649 8.81255C4.01473 8.81345 3.95183 8.81597 3.88958 8.82002C3.76823 8.82787 3.67624 8.93258 3.68406 9.05392C3.69156 9.17044 3.78844 9.25991 3.90355 9.25991C3.90833 9.25991 3.91313 9.25976 3.91797 9.25944C3.97301 9.2559 4.02856 9.25367 4.08308 9.25285C4.20467 9.25103 4.30176 9.15098 4.29994 9.02943C4.29812 8.90788 4.19749 8.81006 4.07649 8.81255Z" fill="#4D4D4D"/>
<path d="M5.15798 8.96528C5.04381 8.92822 4.9239 8.89728 4.80162 8.87332C4.68238 8.84985 4.56663 8.92766 4.54322 9.04702C4.51981 9.16632 4.5976 9.28204 4.71692 9.30545C4.82195 9.32605 4.92464 9.35253 5.02208 9.38414C5.13627 9.42115 5.2624 9.35681 5.29946 9.2427C5.33696 9.127 5.27359 9.00281 5.15798 8.96528Z" fill="#4D4D4D"/>
<path d="M2.86437 11.0033C2.84717 10.9029 2.83721 10.7993 2.8348 10.6955C2.83199 10.5739 2.73086 10.4779 2.6096 10.4805C2.48805 10.4833 2.39178 10.5842 2.39459 10.7057C2.39749 10.831 2.40953 10.9561 2.43036 11.0776C2.45061 11.1958 2.56627 11.2778 2.68454 11.2574C2.80442 11.2369 2.8849 11.1231 2.86437 11.0033Z" fill="#4D4D4D"/>
<path d="M3.93828 12.3632C3.84523 12.3302 3.7547 12.2875 3.66924 12.2364C3.56489 12.1739 3.42971 12.2079 3.36722 12.3122C3.30479 12.4165 3.33872 12.5517 3.44304 12.6142C3.55352 12.6803 3.67056 12.7355 3.79109 12.7782C3.91027 12.8205 4.0438 12.7504 4.07708 12.6286C4.10708 12.5189 4.04539 12.4012 3.93828 12.3632Z" fill="#4D4D4D"/>
<path d="M4.22586 7.96025C4.15027 7.86501 4.01175 7.8491 3.91654 7.92466C3.82311 7.99878 3.7315 8.07755 3.64431 8.15885C3.55534 8.24173 3.55042 8.38104 3.63327 8.47001C3.71498 8.55775 3.85663 8.56279 3.9444 8.48102C4.02315 8.40767 4.10589 8.33651 4.19026 8.26959C4.2855 8.19398 4.30144 8.05552 4.22586 7.96025Z" fill="#4D4D4D"/>
<path d="M3.22353 11.8374C3.16236 11.7583 3.1071 11.6724 3.05932 11.5821C3.00245 11.4746 2.86918 11.4336 2.76175 11.4904C2.65429 11.5473 2.61327 11.6805 2.67014 11.788C2.72967 11.9005 2.79869 12.0078 2.87522 12.1067C2.95438 12.2091 3.10954 12.2202 3.20264 12.1302C3.28218 12.0532 3.29121 11.9249 3.22353 11.8374Z" fill="#4D4D4D"/>
<path d="M2.89352 9.5001C2.78167 9.45243 2.65235 9.50449 2.60469 9.61635C2.55213 9.73963 2.50918 9.86097 2.48038 9.96717C2.44857 10.0845 2.51791 10.2054 2.63524 10.2373C2.65449 10.2425 2.67389 10.245 2.69296 10.245C2.78993 10.245 2.87876 10.1804 2.9053 10.0824C2.92177 10.0217 2.95323 9.92156 3.00974 9.7889C3.05744 9.67705 3.00541 9.54773 2.89352 9.5001Z" fill="#4D4D4D"/>
<path d="M3.4688 8.65008C3.37286 8.57529 3.23454 8.59242 3.15981 8.68834C3.08616 8.7828 3.01564 8.88112 2.95031 8.98055C2.88348 9.08215 2.91169 9.21868 3.01329 9.28548C3.11361 9.35145 3.2523 9.32268 3.31822 9.22249C3.3771 9.13293 3.44065 9.0443 3.50706 8.95914C3.58183 8.86322 3.56469 8.72485 3.4688 8.65008Z" fill="#4D4D4D"/>
<path d="M6.12292 9.54462C6.03646 9.45488 5.93829 9.37121 5.83112 9.29592C5.73166 9.22598 5.59434 9.24998 5.52441 9.3495C5.45451 9.44899 5.4785 9.58631 5.57799 9.65621C5.66219 9.71536 5.73883 9.7806 5.80578 9.85012C5.88904 9.93652 6.03066 9.93916 6.11709 9.85593C6.20465 9.77155 6.20726 9.63218 6.12292 9.54462Z" fill="#4D4D4D"/>
<path d="M5.09018 12.5783C5.06469 12.4594 4.94774 12.3838 4.82877 12.4092C4.73701 12.4289 4.64088 12.4419 4.54277 12.4479L4.52566 12.4489C4.40422 12.4549 4.31065 12.5583 4.31668 12.6797C4.32251 12.7975 4.41981 12.889 4.53638 12.889C4.54004 12.889 4.54379 12.8889 4.54748 12.8887L4.56993 12.8874C4.68969 12.8801 4.80782 12.8641 4.92108 12.8398C5.03997 12.8143 5.11567 12.6973 5.09018 12.5783Z" fill="#4D4D4D"/>
<path d="M6.59284 10.5949C6.58238 10.4614 6.55798 10.3324 6.52027 10.2114C6.48409 10.0953 6.3606 10.0305 6.24456 10.0667C6.12846 10.1028 6.06371 10.2263 6.09986 10.3424C6.12781 10.432 6.14595 10.5285 6.15383 10.6292C6.16317 10.7488 6.27087 10.8409 6.39049 10.8315C6.51008 10.8222 6.60219 10.7145 6.59284 10.5949Z" fill="#4D4D4D"/>
<path d="M6.35989 11.0774C6.24323 11.043 6.12082 11.1096 6.08634 11.2262C6.05766 11.3233 6.02045 11.4186 5.9758 11.5094C5.9221 11.6185 5.96704 11.7505 6.07617 11.8041C6.18387 11.8572 6.31796 11.8114 6.3709 11.7038C6.42657 11.5906 6.47291 11.4719 6.50866 11.3509C6.54311 11.2343 6.47649 11.1118 6.35989 11.0774Z" fill="#4D4D4D"/>
<path d="M5.12519 7.46647C5.07348 7.35637 4.94234 7.30909 4.83231 7.3608C4.72423 7.41154 4.61712 7.46685 4.51403 7.52518C4.4317 7.57173 4.38761 7.66879 4.4068 7.76143C4.42772 7.86256 4.51939 7.93703 4.62263 7.93703C4.65937 7.93703 4.69657 7.92783 4.73082 7.90847C4.82431 7.85559 4.92146 7.8054 5.01951 7.75935C5.12958 7.70764 5.17689 7.57651 5.12519 7.46647Z" fill="#4D4D4D"/>
<path d="M5.9292 12.0041C5.84544 11.916 5.70613 11.9123 5.61795 11.9961C5.54517 12.0652 5.46581 12.1276 5.38202 12.1817C5.27986 12.2477 5.25053 12.3839 5.31648 12.4861C5.38149 12.5869 5.52003 12.6168 5.62087 12.5516C5.72757 12.4827 5.82862 12.4033 5.92117 12.3154C6.00932 12.2316 6.01293 12.0923 5.9292 12.0041Z" fill="#4D4D4D"/>
<path d="M5.94581 7.20826C5.91443 7.09084 5.79372 7.02111 5.67627 7.0524C5.61689 7.06828 5.55741 7.08527 5.49952 7.10288C5.38922 7.13651 5.32254 7.25376 5.34988 7.36576C5.37947 7.48696 5.50855 7.5604 5.62793 7.52408C5.68096 7.5079 5.73542 7.49235 5.78992 7.47779C5.90734 7.44641 5.97715 7.32574 5.94581 7.20826Z" fill="#4D4D4D"/>
<path d="M0.9974 14.6797C0.971853 14.6302 0.947068 14.5797 0.92366 14.5295C0.872302 14.4193 0.741287 14.3716 0.631101 14.423C0.520916 14.4744 0.473191 14.6053 0.524578 14.7156C0.550476 14.7711 0.577898 14.827 0.606111 14.8816C0.66113 14.9882 0.795984 15.0313 0.902712 14.9763C1.01076 14.9206 1.05315 14.7878 0.9974 14.6797Z" fill="#4D4D4D"/>
<path d="M0.704041 13.9455C0.675682 13.8456 0.651277 13.7438 0.63159 13.6428C0.608299 13.5235 0.492752 13.4457 0.373308 13.469C0.253982 13.4922 0.176141 13.6079 0.199432 13.7272C0.221463 13.8402 0.248738 13.9541 0.280467 14.0658C0.313221 14.1812 0.436971 14.2503 0.5524 14.2174C0.669412 14.1842 0.737293 14.0624 0.704041 13.9455Z" fill="#4D4D4D"/>
<path d="M0.363173 12.4809C0.242059 12.4734 0.137206 12.5653 0.129442 12.6866C0.123934 12.7729 0.121122 12.8604 0.121122 12.9467C0.121122 13.0259 0.118251 13.1029 0.170458 13.1679C0.21285 13.2207 0.279032 13.2521 0.346913 13.2503C0.414237 13.2488 0.478222 13.2158 0.518534 13.1619C0.567372 13.0966 0.561454 13.024 0.561454 12.9467C0.561454 12.8697 0.563944 12.7917 0.568866 12.7146C0.57663 12.5933 0.48452 12.4887 0.363173 12.4809Z" fill="#4D4D4D"/>
<path d="M0.606773 11.5224C0.490933 11.485 0.366978 11.5486 0.329625 11.6643C0.294088 11.7745 0.262681 11.8871 0.236373 11.9991C0.208512 12.1175 0.281929 12.236 0.400289 12.2638C0.517096 12.2913 0.637535 12.2166 0.664986 12.0999C0.688629 11.9995 0.716783 11.8984 0.748658 11.7996C0.785982 11.6839 0.722496 11.5598 0.606773 11.5224Z" fill="#4D4D4D"/>
<path d="M1.7286 9.91389C1.6446 9.82592 1.50532 9.82263 1.41729 9.90657C1.39476 9.92805 1.37243 9.9499 1.3502 9.97208C1.29072 10.0316 1.23195 10.0945 1.1755 10.1591C1.09549 10.2506 1.10481 10.3897 1.19633 10.4697C1.28662 10.5487 1.42807 10.5392 1.50699 10.4489C1.557 10.3917 1.60903 10.336 1.66156 10.2835C1.68128 10.2638 1.7012 10.2443 1.72124 10.2252C1.80925 10.1412 1.8125 10.0019 1.7286 9.91389Z" fill="#4D4D4D"/>
<path d="M1.06722 10.6479C0.963655 10.5842 0.828069 10.6165 0.764349 10.7201C0.704056 10.8181 0.646898 10.92 0.594398 11.0229C0.539144 11.1312 0.582181 11.2638 0.690521 11.319C0.797513 11.3736 0.93219 11.3298 0.986653 11.2229C1.03382 11.1304 1.08521 11.0388 1.13941 10.9507C1.20313 10.8471 1.17078 10.7116 1.06722 10.6479Z" fill="#4D4D4D"/>
<path d="M2.42141 9.44711C2.35907 9.34275 2.22389 9.30868 2.11951 9.37102C2.06642 9.40272 2.01337 9.43615 1.96175 9.4704C1.86044 9.53767 1.83278 9.67428 1.90002 9.77559C1.96632 9.87552 2.10515 9.90368 2.2052 9.83732C2.25105 9.80691 2.29816 9.7772 2.34533 9.74905C2.44972 9.68667 2.48379 9.5515 2.42141 9.44711Z" fill="#4D4D4D"/>
</svg>
