<svg width="24" height="16" viewBox="0 0 24 16" fill="none" xmlns="http://www.w3.org/2000/svg">
<path d="M23.6211 3.43741C23.8304 3.43741 24 3.27576 24 3.07623V1.6707C24 0.749476 23.2137 0 22.2472 0H1.7528C0.786284 4.46784e-05 0 0.749476 0 1.67074V14.3292C0 15.2505 0.786284 16 1.7528 16H22.2473C23.2138 16 24.0001 15.2505 24 14.3292V4.24816C24 4.0486 23.8304 3.88696 23.6211 3.88696C23.4117 3.88696 23.2421 4.0486 23.2421 4.24816V14.3292C23.2421 14.8522 22.7958 15.2776 22.2472 15.2776H1.7528C1.20422 15.2776 0.757876 14.8522 0.757876 14.3292V1.67074C0.757876 1.14783 1.20422 0.722404 1.7528 0.722404H22.2472C22.7958 0.722404 23.2421 1.14783 23.2421 1.67074V3.07628C23.2421 3.27576 23.4117 3.43741 23.6211 3.43741Z" fill="#0D0B0B"/>
<path d="M8.74603 6.66138H7.97559V7.46954H8.74603V7.46962C9.05103 7.46962 9.26303 7.36618 9.26303 7.07538C9.26303 6.7649 9.03555 6.66138 8.74603 6.66138Z" fill="#0D0B0B"/>
<path d="M8.72023 5.39502H7.97559V6.0701H8.72023C8.88567 6.0701 9.11311 5.9863 9.11311 5.73502C9.11311 5.47882 8.92175 5.39502 8.72023 5.39502Z" fill="#0D0B0B"/>
<path d="M12.2411 5.66113H12.2308L11.812 6.89317H12.6496L12.2411 5.66113Z" fill="#0D0B0B"/>
<path d="M6.07717 9.44312H5.55029V9.98948H6.10557C6.30501 9.98948 6.41181 9.88772 6.41181 9.70452C6.41181 9.52468 6.26229 9.44312 6.07717 9.44312Z" fill="#0D0B0B"/>
<path d="M8.48733 9.60938H8.48026L8.19189 10.4578H8.76869L8.48733 9.60938Z" fill="#0D0B0B"/>
<path d="M20.7818 9.44312H20.2549V9.98948H20.8104C21.0097 9.98948 21.1164 9.88772 21.1164 9.70452C21.1164 9.52468 20.967 9.44312 20.7818 9.44312Z" fill="#0D0B0B"/>
<path d="M22.5283 11.0239C22.5218 10.9795 22.5157 10.9098 22.5101 10.8159C22.509 10.7959 22.508 10.7787 22.5069 10.7652C22.5067 10.7604 22.5063 10.7557 22.5058 10.751C22.4877 10.5539 22.4459 10.3882 22.3889 10.2487C22.4847 10.0597 22.5372 9.84552 22.5372 9.61956C22.5372 9.28784 22.428 8.99644 22.2349 8.7662C22.3139 8.70544 22.3808 8.62912 22.4297 8.54044C22.5609 8.3032 22.5433 8.01628 22.3842 7.7952L21.1937 6.14088L22.1351 5.18568C22.2661 5.05584 22.3466 4.87952 22.3466 4.68516C22.3466 4.28624 22.0074 3.9628 21.5888 3.9628H21.5886H20.3943C20.1731 3.9628 19.963 4.05488 19.819 4.21488L19.7857 4.25192C19.6474 4.07632 19.4272 3.9628 19.1793 3.9628H18.2175C18.0999 3.9628 17.9888 3.98916 17.8894 4.0348C17.7901 3.98912 17.6791 3.9628 17.5613 3.9628H16.6564C16.3831 3.9628 16.1434 4.10076 16.0101 4.30772C15.8727 4.094 15.6282 3.9628 15.3639 3.9628H14.3763C13.9578 3.9628 13.6184 4.28624 13.6184 4.68516V4.89408L13.4372 4.43216C13.3264 4.14988 13.0435 3.9628 12.7273 3.9628H11.7502C11.434 3.9628 11.1511 4.14992 11.0402 4.43216L10.7715 5.11712C10.6633 4.73908 10.4144 4.43208 10.0432 4.23072C9.71499 4.05268 9.29527 3.9624 8.79571 3.9624H8.79559C8.77559 3.9624 8.75551 3.96253 8.73555 3.96285H7.01443C6.91019 3.96285 6.81095 3.98291 6.72059 4.0192C6.62987 3.98269 6.53015 3.96245 6.42559 3.96245H2.41706C1.99846 3.96245 1.65918 4.28588 1.65918 4.6848V5.44984C1.65918 5.55932 1.68543 5.66276 1.73123 5.75584C1.68552 5.84884 1.65918 5.95228 1.65918 6.06184V6.82688C1.65918 6.93636 1.68543 7.0398 1.73123 7.13288C1.68552 7.22592 1.65918 7.32932 1.65918 7.43888V8.20384C1.65918 8.33792 1.69813 8.46308 1.76498 8.57064C1.69818 8.67824 1.65918 8.8034 1.65918 8.93748V9.48044C1.65918 9.87936 1.99846 10.2028 2.41706 10.2028H2.41757V11.3605C2.41757 11.7594 2.75695 12.0828 3.17545 12.0828H3.83761C4.04171 12.0828 4.22659 12.0056 4.36283 11.8806C4.49911 12.0056 4.68395 12.0828 4.88807 12.0828H5.55043C5.72955 12.0828 5.89415 12.0236 6.02391 11.9246C6.15651 12.0258 6.32303 12.0828 6.49739 12.0828H7.15267C7.16223 12.0828 7.17175 12.0822 7.18131 12.0818C7.18719 12.0819 7.19291 12.0828 7.19883 12.0828H7.87899C8.11919 12.0828 8.33983 11.9749 8.48071 11.7998C8.62143 11.9749 8.84195 12.0828 9.08223 12.0828H9.77303C9.80483 12.0828 9.83619 12.0809 9.86727 12.0772C9.89715 12.0806 9.92735 12.0828 9.95823 12.0828H10.5813C10.7477 12.0828 10.9015 12.0318 11.0265 11.9452C11.1538 12.0332 11.3088 12.0828 11.4715 12.0828H12.1516C12.3207 12.0828 12.4765 12.0294 12.6025 11.9401C12.8748 12.0652 13.1986 12.1338 13.5615 12.1338C13.9268 12.1338 14.2584 12.0686 14.5359 11.9459C14.6605 12.0317 14.8131 12.0828 14.9786 12.0828H15.6409C16.0508 12.0828 16.384 11.7723 16.3975 11.3847C16.4111 11.7723 16.7441 12.0828 17.1541 12.0828H19.2157C19.281 12.0828 19.3439 12.0741 19.4044 12.0593C19.4648 12.0742 19.5277 12.0828 19.5931 12.0828H20.2553C20.4345 12.0828 20.5992 12.0236 20.7289 11.9245C20.8615 12.0257 21.0281 12.0828 21.2024 12.0828H21.8576C22.1613 12.0828 22.4357 11.9099 22.5549 11.6434C22.6457 11.4405 22.6328 11.213 22.5283 11.0239ZM2.41706 5.33948V4.68484H6.25647H6.42555V5.44988H2.41706V5.33948ZM2.41706 6.71644V6.17228V6.06184H6.42555V6.82688H2.41706V6.71644ZM2.41706 7.54916V7.43872H6.42555V8.20372H6.25647H2.41706V7.54916ZM4.59611 9.48044H4.13011H3.83761V11.3605H3.17545V9.48044H2.41706V8.93748H4.13011H4.59611V9.48044ZM6.49735 11.3606V11.3606C6.47791 11.3328 6.46403 11.2868 6.45367 11.2356C6.45367 11.2355 6.45367 11.2353 6.45359 11.2351C6.43599 11.1477 6.42903 11.0455 6.42439 10.9921C6.42375 10.9851 6.42315 10.9788 6.42267 10.9736C6.40479 10.7293 6.36223 10.4782 6.05243 10.4782H5.55039V11.3605H4.88799V10.1471V8.9374H5.35399H6.18403C6.21207 8.9374 6.23995 8.93816 6.26779 8.93972C6.28667 8.9408 6.30531 8.94268 6.32395 8.94448C6.33287 8.94528 6.34191 8.94568 6.35079 8.94672C6.37351 8.94932 6.39603 8.9528 6.41839 8.95648C6.42295 8.95724 6.42767 8.95772 6.43215 8.95844C6.78239 9.0202 7.07411 9.22236 7.07411 9.61956C7.07411 9.7994 7.01175 9.97276 6.88591 10.0955L6.88587 10.0956C6.88547 10.0959 6.88511 10.0962 6.88479 10.0966C6.87203 10.1089 6.85859 10.1206 6.84459 10.1318C6.84007 10.1354 6.83531 10.1388 6.83067 10.1423C6.82039 10.1502 6.80975 10.1577 6.79867 10.165C6.79319 10.1686 6.78751 10.1722 6.78179 10.1756C6.77039 10.1825 6.75867 10.189 6.74667 10.1952C6.74131 10.1981 6.73591 10.201 6.73039 10.2037C6.71267 10.2122 6.69451 10.2202 6.67543 10.2272V10.2339C6.69063 10.2374 6.70503 10.2418 6.71899 10.2465C6.72347 10.2482 6.72783 10.2498 6.73223 10.2515C6.74175 10.2552 6.75099 10.2591 6.75999 10.2634C6.76447 10.2655 6.76891 10.2676 6.77323 10.2698C6.78347 10.2753 6.79331 10.2811 6.80295 10.2872C6.80495 10.2885 6.80711 10.2897 6.80907 10.291L6.80911 10.291C6.97351 10.4021 7.02831 10.627 7.04571 10.8142C7.05283 10.916 7.06359 11.2722 7.15259 11.3606H6.49735ZM9.20031 11.3606H9.08219L8.92567 10.9261H8.03907L7.90559 11.2883L7.87895 11.3606H7.19879L8.14939 8.93748H8.82227L9.77295 11.3606H9.20031ZM9.62735 8.06312C9.62727 8.06316 9.62715 8.06316 9.62707 8.0632C9.56847 8.08804 9.50655 8.10912 9.44195 8.12692C9.44087 8.12716 9.43979 8.12752 9.43871 8.12784C9.37515 8.14512 9.30899 8.1592 9.24035 8.17032C9.23795 8.17072 9.23563 8.17112 9.23315 8.17148C9.19979 8.17672 9.16599 8.1814 9.13155 8.18532C9.12835 8.18572 9.12515 8.18596 9.12199 8.18632C9.08979 8.18988 9.05727 8.19288 9.02427 8.19528C9.02107 8.19548 9.01783 8.1958 9.01463 8.19604C8.98115 8.1984 8.94723 8.20008 8.91303 8.20136C8.90591 8.20156 8.89883 8.20184 8.89171 8.202C8.85727 8.20304 8.82275 8.20376 8.78771 8.20376H7.18343H7.01435V4.68524H7.18343H8.74127C8.75923 4.685 8.77743 4.6848 8.79547 4.6848C8.79651 4.6848 8.79739 4.68484 8.79831 4.68484C8.80639 4.68484 8.81455 4.68492 8.82271 4.68504C8.83427 4.68512 8.84591 4.68516 8.85751 4.68544C8.86595 4.68556 8.87439 4.68592 8.88283 4.68612C8.89415 4.68644 8.90543 4.68668 8.91671 4.68712C8.92539 4.6874 8.93411 4.68788 8.94279 4.68828C8.95387 4.68884 8.96491 4.68932 8.97591 4.68996C8.98459 4.69048 8.99331 4.69112 9.00199 4.69168C9.01307 4.69244 9.02411 4.69312 9.03503 4.69404C9.04387 4.69476 9.05247 4.69556 9.06119 4.69644C9.07207 4.69744 9.08295 4.69836 9.09379 4.69948C9.10259 4.70044 9.11135 4.70144 9.12011 4.70244C9.13087 4.70364 9.14151 4.70492 9.15215 4.70624C9.16091 4.70736 9.16963 4.70872 9.17827 4.70992C9.18883 4.71136 9.19939 4.71292 9.20983 4.71452C9.21855 4.71584 9.22727 4.71736 9.23595 4.71884C9.24627 4.7206 9.25659 4.72236 9.26683 4.72432C9.27551 4.72592 9.28407 4.72756 9.29263 4.72936C9.30287 4.7314 9.31299 4.73352 9.32315 4.73568C9.33163 4.73752 9.33999 4.73948 9.34839 4.74144C9.35835 4.74384 9.36843 4.74624 9.37831 4.74868C9.38671 4.7508 9.39499 4.75308 9.40323 4.75536C9.41299 4.758 9.42271 4.76072 9.43235 4.76352C9.44055 4.76596 9.44863 4.76844 9.45671 4.77096C9.46631 4.77388 9.47579 4.77696 9.48523 4.78012C9.49319 4.7828 9.50107 4.7856 9.50903 4.78844C9.51831 4.79172 9.52747 4.79516 9.53671 4.7986C9.54447 4.80164 9.55223 4.80472 9.55991 4.8078C9.56891 4.81148 9.57787 4.81524 9.58663 4.81908C9.59423 4.82232 9.60171 4.82576 9.60911 4.82916C9.61779 4.83312 9.62643 4.83728 9.63499 4.84152C9.64231 4.84516 9.64947 4.8488 9.65659 4.85256C9.66499 4.857 9.67331 4.8616 9.68143 4.86616C9.68847 4.87008 9.69547 4.87412 9.70231 4.87816C9.71031 4.883 9.71823 4.88792 9.72607 4.89292C9.73279 4.8972 9.73951 4.90152 9.74603 4.90596C9.75371 4.91116 9.76123 4.91656 9.76867 4.92196C9.77507 4.92664 9.78147 4.93124 9.78767 4.93608C9.79495 4.94168 9.80195 4.94748 9.80903 4.95332C9.81507 4.95832 9.82115 4.96332 9.82699 4.96852C9.83387 4.9746 9.84051 4.98084 9.84711 4.98708C9.85279 4.99244 9.85839 4.99784 9.86395 5.00336C9.87035 5.00988 9.87655 5.0166 9.88267 5.02332C9.88799 5.02904 9.89331 5.0348 9.89839 5.04072C9.90439 5.04768 9.91003 5.05492 9.91579 5.06212C9.92059 5.06824 9.92551 5.07432 9.93015 5.08064C9.93567 5.08808 9.94095 5.09584 9.94615 5.1036C9.95051 5.11016 9.95507 5.11652 9.95923 5.12324C9.96423 5.1312 9.96883 5.13948 9.97359 5.14776C9.97751 5.15464 9.98155 5.16144 9.98531 5.1686C9.98983 5.17716 9.99391 5.186 9.99815 5.19488C10.0015 5.20212 10.0051 5.20924 10.0084 5.2166C10.0123 5.22576 10.0159 5.23532 10.0195 5.2448C10.0225 5.25236 10.0255 5.2598 10.0282 5.2676C10.0317 5.27736 10.0345 5.28756 10.0377 5.29764C10.0401 5.3056 10.0427 5.31332 10.0449 5.32152C10.0477 5.33212 10.0501 5.34312 10.0525 5.35408C10.0543 5.36216 10.0564 5.37008 10.0579 5.37836C10.0602 5.39 10.0619 5.4022 10.0637 5.41428C10.0649 5.42228 10.0665 5.43008 10.0675 5.43824C10.0692 5.45196 10.0703 5.46632 10.0714 5.48056C10.0721 5.48748 10.0729 5.49416 10.0733 5.5012C10.0746 5.52276 10.0753 5.5448 10.0753 5.56748C10.0753 5.88284 9.87879 6.13908 9.58931 6.27704C9.61831 6.28504 9.64631 6.2946 9.67367 6.30496C9.68163 6.30796 9.68931 6.31128 9.69715 6.31444C9.71723 6.32268 9.73687 6.33152 9.75599 6.34088C9.76319 6.34448 9.77035 6.34792 9.77739 6.35168C9.80131 6.36428 9.82455 6.3776 9.84679 6.39208C9.84767 6.39268 9.84855 6.39312 9.84943 6.39376C9.87423 6.41 9.89787 6.42756 9.92051 6.44608C9.92239 6.4476 9.92411 6.44924 9.92595 6.45088C9.94643 6.46796 9.96587 6.48596 9.98439 6.50468C9.98667 6.50696 9.98895 6.50924 9.99111 6.51156C10.0521 6.57464 10.1021 6.64676 10.1401 6.72608C10.1401 6.72612 10.1401 6.7262 10.1402 6.72624C10.1952 6.84128 10.2253 6.97096 10.2253 7.10996C10.2251 7.6162 9.98879 7.90988 9.62735 8.06312ZM12.1515 11.3606H11.9258H11.4715L10.5884 9.85036H10.5813V11.3606H10.5306H9.95815V9.77016V8.9374H10.6381L11.5211 10.4306H11.5284V8.9374H11.9648H12.1515V11.3606ZM11.5896 7.57304L11.3569 8.20376H10.6315H10.3695L11.75 4.6852H12.7271L13.6183 6.95648L14.1076 8.20376H13.1264H13.1045L12.8771 7.57304H11.5896ZM13.9914 11.3662C13.9905 11.3664 13.9897 11.3666 13.9889 11.3668C13.9625 11.3728 13.9357 11.3782 13.9085 11.383C13.9075 11.3832 13.9065 11.3833 13.9055 11.3835C13.8523 11.3927 13.7981 11.3994 13.7431 11.404C13.7393 11.4043 13.7355 11.4046 13.7317 11.405C13.706 11.4069 13.6803 11.4085 13.6543 11.4095C13.65 11.4097 13.6455 11.4099 13.6412 11.41C13.6147 11.4109 13.5881 11.4115 13.5615 11.4115C13.5347 11.4115 13.5081 11.4108 13.4817 11.4097C13.4765 11.4096 13.4714 11.4093 13.4662 11.4091C13.4405 11.4079 13.415 11.4062 13.3897 11.404C13.3854 11.4036 13.3811 11.4032 13.3768 11.4028C13.3519 11.4004 13.3271 11.3976 13.3026 11.3941C13.3011 11.394 13.2995 11.3937 13.2981 11.3936C13.2725 11.3899 13.2472 11.3856 13.2223 11.3807C13.2181 11.3799 13.2139 11.3791 13.2098 11.3783C13.185 11.3734 13.1604 11.3678 13.1363 11.3617C13.1343 11.3611 13.1323 11.3606 13.1302 11.36C13.1064 11.3538 13.0829 11.347 13.06 11.3396C13.0581 11.339 13.0563 11.3386 13.0546 11.338C13.0311 11.3303 13.0082 11.322 12.9857 11.313C12.9825 11.3118 12.9794 11.3105 12.9762 11.3092C12.9535 11.3 12.9312 11.2902 12.9096 11.2797C12.9096 11.2797 12.9095 11.2797 12.9095 11.2796C12.6411 11.1484 12.4599 10.913 12.4578 10.546H12.9095H13.12C13.1343 10.831 13.3194 10.9226 13.6007 10.9226C13.8 10.9226 14.0066 10.8548 14.0066 10.6749C14.0066 10.4611 13.6434 10.4204 13.2767 10.3219C13.248 10.3141 13.2191 10.3058 13.1905 10.2972C13.185 10.2955 13.1795 10.2938 13.1741 10.2922C13.0825 10.2641 12.9925 10.2308 12.9099 10.1889C12.9098 10.1888 12.9097 10.1888 12.9096 10.1888C12.6955 10.0802 12.5326 9.91328 12.5326 9.62288C12.5326 9.31436 12.7226 9.11552 12.9755 9.00312C12.9781 9.00204 12.9806 9.0008 12.9831 8.99968C13.0049 8.99028 13.0271 8.98152 13.0497 8.97328C13.0529 8.97212 13.056 8.97092 13.0592 8.9698C13.0819 8.96172 13.1051 8.95424 13.1285 8.94744C13.131 8.94668 13.1335 8.94604 13.1359 8.94532C13.2761 8.9052 13.4261 8.88648 13.5688 8.88648C13.687 8.88648 13.8054 8.89944 13.9175 8.92608H13.9175C14.2847 9.01328 14.5843 9.24832 14.5871 9.66696H14.2208H13.9249C13.9355 9.4464 13.7183 9.37512 13.5153 9.37512C13.373 9.37512 13.1949 9.42264 13.1949 9.58216C13.1949 9.7688 13.5616 9.80272 13.9319 9.90116C13.9563 9.90772 13.9807 9.9146 14.005 9.92176C14.0064 9.9222 14.0078 9.9226 14.0091 9.923C14.3489 10.0239 14.6689 10.1932 14.6689 10.6001C14.6688 11.0527 14.3713 11.2785 13.9914 11.3662ZM16.8516 9.44308H16.3963H15.641V9.9386H16.3963H16.6877V10.4272H16.3963H15.641V11.3606H15.2228H14.9787V8.93748H15.1447H16.3963H16.8516V9.44308ZM16.5736 8.20384V8.2038L15.2914 6.01092H15.2811V8.2038H14.8653H14.3761V6.82584V4.68524H15.3638L16.646 6.85356H16.6563V4.68524H17.4595H17.5612V8.20384H17.4595H16.5736ZM19.2157 11.3606H18.8354H17.1542V10.9958V8.93752H17.6095H18.8354H19.1802V9.44312H18.8354H17.8164V9.86736H18.8354H19.0626V10.356H18.8354H17.8164V10.8176H18.8354H19.2157V11.3606ZM19.5721 6.72548L19.1791 7.11972V8.2038H18.319H18.2174V4.68524H18.319H19.1791V6.03556L20.3941 4.68524H21.5885L20.2235 6.07004L21.7591 8.20384H20.5649L19.5721 6.72548ZM21.2026 11.3606C21.1455 11.279 21.135 11.0415 21.1278 10.9736C21.11 10.7293 21.0673 10.4782 20.7575 10.4782H20.2555V11.3605H19.9737H19.5933V8.9374H19.9381H20.8893C21.3379 8.9374 21.7793 9.13092 21.7793 9.61948C21.7793 9.88084 21.6477 10.1285 21.3806 10.227V10.2338C21.6511 10.2949 21.7295 10.5833 21.7509 10.8141C21.7581 10.9159 21.7686 11.2722 21.8577 11.3606H21.2026Z" fill="#0D0B0B"/>
</svg>
