<svg width="75" height="35" viewBox="0 0 75 35" fill="none" xmlns="http://www.w3.org/2000/svg">
<path fill-rule="evenodd" clip-rule="evenodd" d="M68.993 33.1188L69.0195 33.0924V34.0197C68.6751 34.3376 68.4896 34.4436 68.1717 34.4436C67.8008 34.4436 67.5358 34.3111 67.5358 33.8872C67.5358 33.2513 68.2247 33.0924 68.5956 33.0924C68.6486 33.0924 68.8606 33.1188 68.993 33.1188ZM30.1513 33.1188C30.1778 33.1453 30.2043 33.1453 30.2308 33.0924V33.9932C29.9393 34.3376 29.6214 34.4436 29.3565 34.4436C29.012 34.4436 28.7471 34.3376 28.7471 33.9137C28.7471 33.2778 29.3829 33.0924 29.7804 33.0924C29.8334 33.0924 30.0188 33.0924 30.1513 33.1188H30.1513ZM26.7599 33.3573C26.7599 34.2316 26.0975 34.3376 25.5147 34.3376C25.4617 34.3376 25.1967 34.3376 25.0642 34.3111V32.43C25.2232 32.4565 25.4882 32.43 25.5676 32.43C26.23 32.43 26.7599 32.5625 26.7599 33.3573L26.7599 33.3573ZM20.5866 32.112V34.1257C20.4011 34.3376 20.0831 34.4171 19.9242 34.4171C19.0233 34.4171 18.7849 33.7812 18.7849 33.1188C18.7849 32.5094 19.1028 31.7676 19.8977 31.7676C20.1097 31.7676 20.4011 31.8206 20.5866 32.112ZM16.2944 31.7941C16.5063 31.8206 16.9302 32.271 16.9302 32.5094V32.6419H14.9696V32.5624C15.1286 32.0061 15.4995 31.7676 15.9764 31.7676C16.0294 31.7676 16.1884 31.7676 16.2944 31.7941V31.7941ZM46.3397 33.0658C46.3397 33.5958 46.1808 34.4171 45.3594 34.4171C44.5116 34.4171 44.4321 33.5693 44.4321 33.0924C44.4321 32.6154 44.5645 31.7411 45.3859 31.7411C46.2073 31.7411 46.3397 32.5624 46.3397 33.0658ZM62.5547 31.2642V34.9205H61.9188V31.7941H61.4154V31.2642H62.5547H62.5547ZM10.6775 31.2642V34.9205H10.0152V31.7941H9.51173V31.2642H10.6775H10.6775ZM54.4739 33.3308H53.0696L53.8115 31.2377L54.4739 33.3308ZM69.1256 31.3702C69.47 31.5026 69.7085 32.165 69.7085 32.4565V34.1786C69.735 34.3376 69.788 34.5231 69.9999 34.6555V34.9735H69.682C69.47 34.9205 69.1521 34.735 69.0991 34.5231C68.9136 34.841 68.2248 35 67.9333 35C67.271 35 66.8735 34.4436 66.8735 33.8872C66.8735 32.9069 67.9333 32.5625 68.5692 32.5625C68.6222 32.5625 68.8607 32.6154 69.0196 32.6419C69.0461 32.6154 69.0461 32.5625 69.0461 32.5094C69.0461 31.9266 68.5957 31.7676 68.2248 31.7676C67.9598 31.7676 67.5624 31.8471 67.3504 32.0855C67.2444 31.9266 67.059 31.6351 67.059 31.5556C67.059 31.5026 67.2974 31.3702 67.4034 31.3437C67.5094 31.2907 67.6684 31.2377 67.8538 31.2112C67.9333 31.1847 68.1453 31.1847 68.1983 31.1847C68.4897 31.1847 68.8607 31.2642 69.1256 31.3702L69.1256 31.3702ZM66.3436 31.5556C66.2641 31.6881 66.1582 31.8471 66.0522 32.0061C65.6813 31.7941 65.4958 31.7411 65.1778 31.7411C64.2505 31.7411 64.0385 32.5359 64.0385 33.1188C64.0385 33.8872 64.4095 34.4436 65.2043 34.4436C65.4693 34.4436 65.8667 34.2846 66.1052 34.0991L66.3701 34.6291C66.1582 34.8145 65.4163 35 65.0718 35C64.383 35 63.6146 34.5761 63.3762 33.5958C63.3762 33.5428 63.3497 33.4368 63.3497 33.3838V32.8804C63.4557 31.6351 64.3565 31.1847 65.2043 31.1847C65.5488 31.1847 66.0257 31.3437 66.3436 31.5556V31.5556ZM61.1241 31.2377L60.8856 31.8736C60.7532 31.8206 60.4882 31.7411 60.4352 31.7411C60.0113 31.7411 59.5874 32.218 59.5874 32.5889V34.9205H58.925V31.2642H59.5874C59.5874 31.4232 59.5874 31.6086 59.6139 31.7676C59.8258 31.3172 60.3027 31.1847 60.6207 31.1847C60.7002 31.1847 60.9651 31.2112 61.1241 31.2377H61.1241ZM49.9696 31.2907C49.8902 31.5026 49.8107 31.6881 49.7312 31.8736C49.5987 31.8206 49.3338 31.7411 49.2808 31.7411C48.8569 31.7411 48.4329 32.218 48.4329 32.5889V34.9205H47.7706V31.2642H48.4329C48.4329 31.4232 48.4329 31.6086 48.4594 31.7676C48.6714 31.3172 49.1483 31.1847 49.4663 31.1847C49.6252 31.1847 49.9696 31.2907 49.9696 31.2907H49.9696ZM47.0287 33.0658C47.0287 33.9932 46.6313 35 45.386 35C44.1672 35 43.7168 33.9932 43.7168 33.0658C43.7168 32.0855 44.2732 31.1847 45.386 31.1847C46.6578 31.1847 47.0287 32.165 47.0287 33.0658ZM33.9402 31.2112C34.3906 31.2112 34.8145 31.8736 34.8145 32.271V34.9205H34.1786V32.5094C34.1521 31.953 33.8342 31.7411 33.4368 31.7411C33.3573 31.7411 33.3043 31.7146 33.2778 31.7411C33.1188 31.7676 32.5624 32.0061 32.5624 32.218V34.9205H31.9266V31.2642H32.377C32.43 31.3967 32.5095 31.5556 32.5624 31.6881C32.8274 31.3172 33.2513 31.1847 33.6223 31.1847C33.6752 31.1847 33.8342 31.2112 33.9402 31.2112H33.9402ZM30.7608 31.9001C30.7872 32.0325 30.8933 32.2445 30.8933 32.324V34.0462C30.9462 34.2051 30.9197 34.4966 31.1847 34.6555V34.9735H30.8933C30.7078 34.947 30.3633 34.788 30.3103 34.5231C30.1514 34.841 29.383 35 29.1181 35C28.4822 35 28.0583 34.4436 28.0583 33.8872C28.0583 32.9069 29.1181 32.5625 29.7539 32.5625C29.807 32.5625 30.0719 32.6154 30.2309 32.6419C30.2574 32.6154 30.2574 32.6154 30.2574 32.5359C30.2574 32.0061 29.8864 31.7676 29.436 31.7676C29.1181 31.7676 28.8531 31.8206 28.5617 32.0855C28.4292 32.0061 28.2967 31.6881 28.2437 31.5556C28.5087 31.3437 29.0386 31.1847 29.4095 31.1847C29.7804 31.1847 30.5753 31.2907 30.7608 31.9001L30.7608 31.9001ZM17.5927 32.7479C17.5927 32.8009 17.5927 33.0129 17.5662 33.1453H14.9167V33.3573C14.9697 34.0992 15.5261 34.4436 16.0825 34.4436C16.374 34.4436 16.6389 34.3641 16.9833 34.1257C17.0893 34.2581 17.1688 34.4171 17.2748 34.5761C17.0893 34.8145 16.268 35 15.95 35C14.7843 35 14.2279 34.0462 14.2279 33.1188C14.2279 32.1385 14.8372 31.1847 15.95 31.1847C16.9304 31.1847 17.5927 31.7411 17.5927 32.7479V32.7479ZM8.16049 31.2907C8.23997 31.3172 8.45193 31.5292 8.53141 31.6351C8.55792 31.6351 8.76988 32.165 8.76988 32.271V34.9205H8.13398V32.5094C8.02803 31.9001 7.81604 31.7411 7.39214 31.7411C7.10068 31.7411 6.80924 31.8471 6.5178 32.218V34.9205H5.88193V31.2642H6.33233C6.3853 31.3967 6.46479 31.5556 6.5178 31.6881C6.78273 31.3172 7.20667 31.1847 7.57759 31.1847C7.6306 31.1847 7.97502 31.2112 8.16049 31.2907L8.16049 31.2907ZM26.4951 31.1317C26.4951 31.8206 25.9122 31.9001 25.4617 31.9001H25.0643V30.4693H25.4882C25.8857 30.4693 26.4951 30.4693 26.4951 31.1317ZM12.5852 31.2642H13.592V31.7676H12.5852V33.8342C12.7176 34.3111 12.9031 34.4436 13.221 34.4436C13.3005 34.4436 13.592 34.3641 13.751 34.3111C13.7774 34.4966 13.8305 34.7086 13.8569 34.894C13.5655 34.947 13.0356 35 12.9561 35C12.3997 35 11.9228 34.4701 11.9228 33.9667V31.7676H11.4989V31.2642H11.9228V30.4959C12.1347 30.4164 12.3732 30.3104 12.5851 30.2574V31.2642L12.5852 31.2642ZM2.06662 29.9129V33.3043C2.17259 34.0992 2.59651 34.3906 3.12641 34.3906C3.57685 34.3906 4.00075 34.1786 4.21272 33.5693V29.9129H4.90159V33.6488C4.74261 34.7615 3.8153 35 3.12641 35C2.57002 35 1.82818 34.841 1.51023 34.1257C1.45721 33.9667 1.40424 33.7017 1.40424 33.6487V29.9129H2.06662H2.06662ZM62.6607 30.2574C62.6607 30.5223 62.5018 30.6813 62.2633 30.6813C61.9983 30.6813 61.8659 30.4428 61.8659 30.2839C61.8659 30.0189 61.9983 29.8864 62.2633 29.8864C62.5018 29.8864 62.6607 30.0189 62.6607 30.2574ZM10.7835 30.2574C10.7835 30.5223 10.5451 30.6813 10.3596 30.6813C10.0947 30.6813 9.96218 30.4428 9.96218 30.2839C9.96218 30.0189 10.1742 29.8864 10.3596 29.8864C10.5981 29.8864 10.7835 30.0189 10.7835 30.2574ZM27.2105 31.0787C27.2105 31.4497 27.025 31.8206 26.4951 32.0855L26.4686 32.1385C27.237 32.2975 27.5284 32.8804 27.5284 33.4633C27.5284 33.5163 27.4754 33.7547 27.4489 33.8872C27.3694 34.4701 26.4421 34.9205 25.9917 34.9205H24.349V29.86H25.5943C26.3097 29.86 27.2105 30.0719 27.2105 31.0787L27.2105 31.0787ZM53.9175 29.8335L55.8251 34.9205H55.0568C54.9508 34.5761 54.8183 34.2051 54.6858 33.8607H52.8842C52.7252 34.2051 52.5927 34.5761 52.4868 34.9205H51.7184C52.3808 33.2248 53.0696 31.5292 53.732 29.8335H53.9175H53.9175ZM58.4481 29.86C58.4216 29.9129 58.2627 30.3369 58.2362 30.3369C58.1567 30.3369 57.9712 30.2839 57.8917 30.2839C57.4148 30.2839 57.2029 30.7078 57.2029 31.0787C57.2029 31.1317 57.2294 31.1847 57.2294 31.2642H57.9712V31.7941H57.2294V34.9205H56.5935V31.7941H56.0636V31.2642H56.5935C56.567 30.3898 57.0174 29.754 57.8387 29.754C57.8917 29.754 58.2362 29.8069 58.4481 29.86ZM43.5314 29.86L43.3724 30.3369C43.2665 30.3104 43.081 30.2839 43.0015 30.2839C42.7101 30.2839 42.3127 30.5753 42.3127 30.8933V31.2642H43.081V31.7941H42.3127V34.9205H41.6768V31.7941H41.1468V31.2642H41.6768C41.6768 30.3634 42.1272 29.754 42.922 29.754C43.0015 29.754 43.346 29.8069 43.5314 29.86L43.5314 29.86ZM36.4042 29.754V32.9069L37.782 31.2642H38.5503L37.411 32.6419L38.8153 34.9205H38.0999L36.9606 33.0924C36.8017 33.2778 36.5897 33.4898 36.4042 33.6753V34.9205H35.7419V29.754H36.4042V29.754ZM21.249 29.754V34.9205H20.6132C20.6132 34.841 20.6132 34.7615 20.5867 34.6821C20.2687 34.9205 19.9508 34.9735 19.6329 34.9735C18.4671 34.9735 18.0696 33.9932 18.0696 33.1718C18.0696 32.3505 18.626 31.1847 19.7653 31.1847C19.9508 31.1847 20.4012 31.2642 20.6132 31.4232V29.754H21.249V29.754ZM24.5609 17.2483C26.1242 17.5927 26.813 18.4671 26.813 19.6858C26.813 19.7388 26.7865 20.2422 26.7071 20.5072C26.6276 20.7721 26.4818 21.0062 26.2301 21.3285C25.4474 22.3309 23.9515 23.1302 23.0242 23.1302H20.3747C20.7986 21.196 21.1696 19.2089 21.5935 17.3013C21.5935 17.2483 21.62 17.2218 21.673 17.1953L23.6866 17.1424C23.7396 17.1424 24.2695 17.1953 24.561 17.2483L24.5609 17.2483ZM42.1271 19.4739H37.3315L40.8289 14.1219L42.1271 19.4739ZM27.2634 12.5057C27.2634 12.5587 27.1575 13.0621 27.1309 13.3271C27.078 13.8835 26.5746 14.7048 25.8327 15.1552C25.5677 15.3142 24.4815 15.9501 24.3225 15.9501H21.9644C22.0439 15.5261 22.1234 15.0757 22.2029 14.6518C22.2559 14.3868 22.3354 14.0954 22.3618 13.8305C22.4148 13.5655 22.4943 13.274 22.5208 13.0091C22.5738 12.7442 22.6533 12.4527 22.6798 12.1878C22.7328 11.9228 22.7549 11.7771 22.8123 11.3664C22.8697 10.8939 22.8343 10.8763 23.1037 10.8895L25.0908 10.8365C25.9387 10.8365 27.2634 11.2869 27.2634 12.5057V12.5057ZM43.0015 8.7434L46.9758 25.0908H43.3989L42.7631 21.8849H35.8479L33.7282 25.0908H30.7608L41.8357 8.7434H43.0015H43.0015ZM27.1839 8.7434C29.5685 9.00837 30.6813 10.1212 30.6813 11.9758C30.6813 13.963 29.3035 15.4467 26.8925 16.2415C26.919 16.268 26.972 16.268 26.9985 16.268C28.7737 16.533 30.0454 17.5662 30.0454 19.1824C30.0454 21.7525 28.4557 24.137 25.0113 24.9054C24.8524 24.9319 23.7926 25.1438 23.4216 25.1438H16.6654L20.0832 8.74338H27.1839L27.1839 8.7434ZM5.64343 8.7434C5.37848 10.1477 5.08704 11.4724 4.82207 12.7971C4.61013 13.7775 4.39815 14.8108 4.2127 15.8176C3.94775 17.3013 3.52382 18.732 3.52382 20.2157C3.52382 21.832 4.05374 23.2892 6.14683 23.2892C8.16046 23.2892 10.1476 21.9644 10.7835 19.2619C11.6048 15.7646 12.2937 12.2407 13.0356 8.74339H16.056V8.82287C15.2081 12.6647 14.4133 16.5064 13.5389 20.3217C13.0753 21.5273 12.87 21.7193 12.5056 22.2029C10.9159 24.402 8.79636 25.1173 6.9682 25.3293C6.75626 25.3558 6.3853 25.4088 6.30582 25.4088H4.68964C4.37169 25.3823 4.02726 25.3293 3.73582 25.2763C3.44436 25.2233 3.12641 25.1438 2.83497 25.0643C0.794855 24.5609 0 22.6003 0 21.1431V20.5072C0.0264871 20.3217 0.0264871 20.1098 0.0529942 19.8978C0.821342 16.1885 1.58971 12.4527 2.35806 8.74342H5.64346L5.64343 8.7434ZM60.5675 24.9849C60.1436 25.0378 59.3223 25.1438 59.2428 25.1438H52.6455L57.0967 4.23923C59.4282 8.79639 61.7598 13.4065 64.0649 18.0166C64.4623 19.0234 64.8333 20.1097 64.8333 21.143C64.8333 23.4481 63.2171 24.5609 60.5676 24.9848L60.5675 24.9849ZM70.0528 20.9046C68.7015 18.2816 67.3503 15.6321 66.0255 13.0091C65.2837 11.5519 64.5418 10.0417 63.7999 8.61095C63.5615 8.10753 63.2966 7.65713 63.0846 7.1802C62.8461 6.65031 62.3162 5.03412 62.3162 4.26576V3.70935C62.3427 3.4444 62.3692 3.12645 62.4487 2.88801C63.2435 0.370987 66.1845 0.13252 67.9332 2.55613e-05L74.5304 0L70.0528 20.9046Z" fill="url(#paint0_linear)"/>
<defs>
<linearGradient id="paint0_linear" x1="37.2652" y1="0" x2="37.2652" y2="35" gradientUnits="userSpaceOnUse">
<stop stop-color="#ED1500"/>
<stop offset="1" stop-color="#D70900"/>
</linearGradient>
</defs>
</svg>
