<svg width="26" height="27" viewBox="0 0 26 27" fill="none" xmlns="http://www.w3.org/2000/svg">
<path d="M13 1.49316C19.9036 1.49316 25.5 7.0896 25.5 13.9932C25.5 20.8967 19.9036 26.4932 13 26.4932C6.09644 26.4932 0.5 20.8967 0.5 13.9932C0.5 7.0896 6.09644 1.49316 13 1.49316Z" fill="white" stroke="#3B44F0"/>
<path d="M13 4.5C18.2467 4.5 22.5 8.75329 22.5 14C22.5 19.2467 18.2467 23.5 13 23.5C7.75329 23.5 3.5 19.2467 3.5 14C3.5 8.75329 7.75329 4.5 13 4.5Z" fill="#3B44F0" stroke="#3B44F0"/>
<g clip-path="url(#clip0)">
<path d="M17.2859 10.8571H15.1431C14.9064 10.8571 14.7145 11.049 14.7145 11.2857C14.7145 11.5224 14.9064 11.7142 15.1431 11.7142H17.2859C17.5226 11.7142 17.7145 11.9061 17.7145 12.1428V17.7143C17.7145 17.951 17.5226 18.1429 17.2859 18.1429H8.71443C8.47773 18.1429 8.28585 17.951 8.28585 17.7143V12.1428C8.28585 11.9061 8.47773 11.7142 8.71443 11.7142H10.8573C11.094 11.7142 11.2859 11.5223 11.2859 11.2856C11.2859 11.0489 11.094 10.8571 10.8573 10.8571H8.71443C8.00435 10.8571 7.42871 11.4327 7.42871 12.1428V17.7143C7.42871 18.4243 8.00435 19 8.71443 19H17.2859C17.996 19 18.5716 18.4243 18.5716 17.7143V12.1428C18.5716 11.4327 17.996 10.8571 17.2859 10.8571Z" fill="white"/>
<path d="M15.4459 9.26836L13.303 7.12549C13.1357 6.95817 12.8644 6.95817 12.697 7.12549L10.5541 9.26836C10.3897 9.43861 10.3944 9.70992 10.5647 9.87435C10.7308 10.0348 10.9941 10.0348 11.1602 9.87435L12.5715 8.46305V15.5714C12.5715 15.8081 12.7633 16 13.0001 16C13.2368 16 13.4286 15.8081 13.4286 15.5714V8.46307L14.8399 9.87438C15.0102 10.0388 15.2815 10.0341 15.4459 9.86383C15.6063 9.69774 15.6063 9.43444 15.4459 9.26836Z" fill="white"/>
</g>
<defs>
<clipPath id="clip0">
<rect width="12" height="12" fill="white" transform="translate(7 7)"/>
</clipPath>
</defs>
</svg>
