<svg width="50" height="50" viewBox="0 0 50 50" fill="none" xmlns="http://www.w3.org/2000/svg">
    <g clip-path="url(#clip0)">
        <path d="M36.3594 50C36.0094 50 35.6511 49.9562 35.2969 49.8625L3.08235 41.2354C0.874015 40.6271 -0.442652 38.3396 0.136514 36.1312L4.2011 20.9812C4.3511 20.425 4.92193 20.1021 5.4761 20.2437C6.03235 20.3916 6.36152 20.9646 6.2136 21.5187L2.1511 36.6646C1.86151 37.7687 2.52401 38.9187 3.63026 39.225L35.8324 47.8479C36.9386 48.1396 38.0803 47.4812 38.3678 46.3812L39.9949 40.3521C40.1449 39.7958 40.7157 39.4646 41.2719 39.6166C41.8282 39.7666 42.1553 40.3396 42.0074 40.8937L40.3824 46.9146C39.8928 48.7687 38.2053 50 36.3594 50Z" fill="#D2DAE1"/>
        <path d="M45.832 37.4998H12.4987C10.2008 37.4998 8.33203 35.6311 8.33203 33.3332V8.33317C8.33203 6.03525 10.2008 4.1665 12.4987 4.1665H45.832C48.1299 4.1665 49.9987 6.03525 49.9987 8.33317V33.3332C49.9987 35.6311 48.1299 37.4998 45.832 37.4998ZM12.4987 6.24984C11.3508 6.24984 10.4154 7.18525 10.4154 8.33317V33.3332C10.4154 34.4811 11.3508 35.4165 12.4987 35.4165H45.832C46.9799 35.4165 47.9154 34.4811 47.9154 33.3332V8.33317C47.9154 7.18525 46.9799 6.24984 45.832 6.24984H12.4987Z" fill="#D2DAE1"/>
        <path d="M18.7487 18.7498C16.4508 18.7498 14.582 16.8811 14.582 14.5832C14.582 12.2853 16.4508 10.4165 18.7487 10.4165C21.0466 10.4165 22.9154 12.2853 22.9154 14.5832C22.9154 16.8811 21.0466 18.7498 18.7487 18.7498ZM18.7487 12.4998C17.6008 12.4998 16.6654 13.4353 16.6654 14.5832C16.6654 15.7311 17.6008 16.6665 18.7487 16.6665C19.8966 16.6665 20.832 15.7311 20.832 14.5832C20.832 13.4353 19.8966 12.4998 18.7487 12.4998Z" fill="#D2DAE1"/>
        <path d="M9.52266 35.2707C9.25599 35.2707 8.98932 35.1686 8.78516 34.9665C8.37891 34.5602 8.37891 33.8998 8.78516 33.4936L18.6247 23.654C19.8039 22.4748 21.8643 22.4748 23.0435 23.654L25.9727 26.5832L34.081 16.854C34.6706 16.1478 35.5372 15.7373 36.4602 15.729H36.4831C37.3956 15.729 38.2602 16.1248 38.856 16.8186L49.7518 29.5311C50.1268 29.9665 50.0768 30.6248 49.6393 30.9998C49.2039 31.3748 48.5477 31.3269 48.1706 30.8873L37.2747 18.1748C37.0727 17.9415 36.7935 17.8123 36.4831 17.8123C36.2664 17.7936 35.8852 17.9436 35.6831 18.1873L26.8435 28.7936C26.656 29.0186 26.3831 29.154 26.0893 29.1665C25.7935 29.1873 25.5122 29.0707 25.306 28.8623L21.5706 25.1269C21.1768 24.7352 20.4914 24.7352 20.0977 25.1269L10.2581 34.9665C10.056 35.1686 9.78932 35.2707 9.52266 35.2707Z" fill="#D2DAE1"/>
    </g>
    <defs>
        <clipPath id="clip0">
            <rect width="50" height="50" fill="white"/>
        </clipPath>
    </defs>
</svg>
