<svg width="32" height="32" viewBox="0 0 32 32" fill="none" xmlns="http://www.w3.org/2000/svg">
<path d="M29.0324 25.68C28.2652 22.8417 26.5975 20.3292 24.28 18.52C22.5012 17.1304 20.4002 16.2127 18.172 15.852C19.0899 15.4339 19.8682 14.7608 20.4143 13.9128C20.9603 13.0649 21.2511 12.0778 21.252 11.0692C21.252 8.17238 18.8956 5.81558 15.9988 5.81558C13.102 5.81558 10.7468 8.17238 10.7468 11.0692C10.7476 12.0778 11.0384 13.0649 11.5845 13.9128C12.1306 14.7608 12.9089 15.4339 13.8268 15.852C11.599 16.2129 9.49843 17.1306 7.71998 18.52C5.40243 20.3292 3.73474 22.8417 2.96758 25.68C2.94021 25.7825 2.95469 25.8917 3.00784 25.9836C3.06099 26.0754 3.14845 26.1424 3.25098 26.1698C3.35351 26.1971 3.46272 26.1827 3.55457 26.1295C3.64643 26.0764 3.71341 25.9889 3.74078 25.8864C4.46175 23.2163 6.0301 20.8525 8.20998 19.1504C10.4372 17.4181 13.1784 16.4775 16 16.4775C18.8216 16.4775 21.5627 17.4181 23.79 19.1504C25.9701 20.8528 27.5384 23.2171 28.2592 25.8876C28.2867 25.9901 28.3538 26.0775 28.4458 26.1305C28.5378 26.1836 28.647 26.1979 28.7496 26.1704C28.8521 26.1429 28.9395 26.0757 28.9925 25.9837C29.0456 25.8918 29.0599 25.7825 29.0324 25.68ZM11.5468 11.0692C11.5468 10.1884 11.808 9.32744 12.2973 8.59512C12.7866 7.86279 13.4821 7.29201 14.2958 6.95496C15.1095 6.61791 16.0049 6.52972 16.8688 6.70155C17.7326 6.87338 18.5261 7.2975 19.1489 7.92029C19.7717 8.54309 20.1958 9.33657 20.3676 10.2004C20.5394 11.0642 20.4513 11.9596 20.1142 12.7733C19.7771 13.5871 19.2064 14.2826 18.474 14.7719C17.7417 15.2612 16.8807 15.5224 16 15.5224C14.8193 15.521 13.6874 15.0514 12.8526 14.2165C12.0178 13.3817 11.5482 12.2498 11.5468 11.0692Z" fill="#283C7C"/>
</svg>
