<svg width="106" height="104" viewBox="0 0 106 104" fill="none" xmlns="http://www.w3.org/2000/svg">
<path d="M3.84014 71.6119C6.41561 77.9364 10.2116 83.6916 15.0112 88.549C19.8109 93.4065 25.5204 97.271 31.8136 99.9219C38.1067 102.573 44.8605 103.958 51.6891 103.999C58.5177 104.04 65.2875 102.735 71.6119 100.16C77.9364 97.5844 83.6916 93.7884 88.549 88.9888C93.4065 84.1891 97.271 78.4796 99.9219 72.1864C102.573 65.8932 103.958 59.1395 103.999 52.3109C104.04 45.4823 102.735 38.7125 100.16 32.3881L52 52L3.84014 71.6119Z" fill="#0DB450"/>
<circle cx="52" cy="52" r="50" fill="#E7F3FF"/>
<path d="M69.6777 55.3223C66.9548 52.5994 63.7138 50.5837 60.1776 49.3635C63.9649 46.755 66.4531 42.3895 66.4531 37.4531C66.4531 29.4837 59.9694 23 52 23C44.0306 23 37.5469 29.4837 37.5469 37.4531C37.5469 42.3895 40.0351 46.755 43.8225 49.3635C40.2863 50.5837 37.0453 52.5994 34.3224 55.3223C29.6005 60.0442 27 66.3223 27 73H30.9062C30.9062 61.3688 40.3688 51.9062 52 51.9062C63.6312 51.9062 73.0938 61.3688 73.0938 73H77C77 66.3223 74.3995 60.0442 69.6777 55.3223ZM52 48C46.1845 48 41.4531 43.2687 41.4531 37.4531C41.4531 31.6375 46.1845 26.9062 52 26.9062C57.8155 26.9062 62.5469 31.6375 62.5469 37.4531C62.5469 43.2687 57.8155 48 52 48Z" fill="#283C7C"/>
<circle cx="98.5" cy="27.5" r="7" fill="#0DB450" stroke="white"/>
<path d="M96 26.8646L97.8333 29.4751L101 25" stroke="white" stroke-width="2" stroke-linecap="round" stroke-linejoin="round"/>
</svg>
