<svg width="32" height="32" viewBox="0 0 32 32" fill="none" xmlns="http://www.w3.org/2000/svg">
<path d="M10.145 14.28C10.247 14.3075 10.3558 14.2934 10.4475 14.241C10.5392 14.1885 10.6065 14.1019 10.6346 14C10.9507 12.8186 11.648 11.7745 12.6181 11.0298C13.5883 10.2851 14.7771 9.88146 16.0002 9.88146C17.2232 9.88146 18.412 10.2851 19.3822 11.0298C20.3523 11.7745 21.0496 12.8186 21.3658 14C21.3931 14.1025 21.4601 14.19 21.552 14.2431C21.6438 14.2963 21.753 14.3108 21.8556 14.2834C21.9581 14.256 22.0455 14.189 22.0987 14.0972C22.1518 14.0053 22.1663 13.8961 22.139 13.7936C21.8472 12.7037 21.2708 11.7111 20.4688 10.9175C19.6669 10.1239 18.6682 9.55791 17.5754 9.2776C18.0106 8.94768 18.3313 8.48943 18.4921 7.9675C18.6529 7.44557 18.6459 6.88632 18.4718 6.36863C18.2978 5.85095 17.9656 5.40098 17.5221 5.08221C17.0787 4.76343 16.5463 4.59195 16.0002 4.59195C15.454 4.59195 14.9216 4.76343 14.4782 5.08221C14.0347 5.40098 13.7025 5.85095 13.5285 6.36863C13.3545 6.88632 13.3474 7.44557 13.5082 7.9675C13.669 8.48943 13.9897 8.94768 14.425 9.2776C13.3323 9.55773 12.3338 10.1234 11.5319 10.9166C10.73 11.7099 10.1534 12.7021 9.86135 13.7916C9.83437 13.894 9.84908 14.0029 9.90223 14.0944C9.95539 14.1859 10.0427 14.2527 10.145 14.28ZM16.0002 5.39361C16.3577 5.39361 16.7072 5.49965 17.0045 5.69832C17.3018 5.897 17.5335 6.17938 17.6703 6.50974C17.8071 6.84011 17.8428 7.20362 17.7729 7.55429C17.7031 7.90496 17.5308 8.22704 17.2779 8.47979C17.025 8.73254 16.7028 8.90461 16.3521 8.97422C16.0013 9.04383 15.6379 9.00786 15.3076 8.87086C14.9773 8.73387 14.6951 8.50199 14.4966 8.20458C14.2981 7.90716 14.1923 7.55756 14.1926 7.2C14.1934 6.72097 14.3842 6.26182 14.723 5.9232C15.0618 5.58458 15.5211 5.39413 16.0002 5.39361Z" fill="#283C7C"/>
<path d="M9.61548 22.354C10.0509 22.0241 10.3717 21.5658 10.5327 21.0438C10.6937 20.5218 10.6866 19.9624 10.5126 19.4445C10.3386 18.9267 10.0064 18.4766 9.56281 18.1577C9.11925 17.8388 8.58676 17.6673 8.04048 17.6673C7.49419 17.6673 6.9617 17.8388 6.51814 18.1577C6.07459 18.4766 5.74236 18.9267 5.56834 19.4445C5.39432 19.9624 5.3873 20.5218 5.54827 21.0438C5.70923 21.5658 6.03006 22.0241 6.46548 22.354C5.37277 22.6341 4.37422 23.1998 3.5722 23.993C2.77018 24.7862 2.19357 25.7785 1.90148 26.8681C1.88792 26.9189 1.8845 26.9718 1.89141 27.0239C1.89832 27.076 1.91542 27.1262 1.94174 27.1717C1.96805 27.2172 2.00307 27.257 2.04479 27.289C2.08651 27.3209 2.13411 27.3443 2.18488 27.3579C2.23565 27.3714 2.28859 27.3749 2.34068 27.3679C2.39277 27.361 2.44299 27.3439 2.48847 27.3176C2.53395 27.2913 2.57381 27.2563 2.60576 27.2146C2.6377 27.1729 2.66112 27.1253 2.67468 27.0745C2.99098 25.8931 3.68832 24.8491 4.65851 24.1045C5.62869 23.3599 6.81749 22.9563 8.04048 22.9563C9.26346 22.9563 10.4523 23.3599 11.4224 24.1045C12.3926 24.8491 13.09 25.8931 13.4063 27.0745C13.435 27.1754 13.5023 27.261 13.5936 27.3127C13.6848 27.3645 13.7928 27.3783 13.8942 27.3513C13.9955 27.3242 14.0822 27.2584 14.1355 27.168C14.1888 27.0776 14.2045 26.9699 14.1791 26.8681C13.8868 25.7787 13.3102 24.7865 12.5083 23.9933C11.7064 23.2001 10.708 22.6344 9.61548 22.354ZM8.04028 18.47C8.39779 18.47 8.74727 18.576 9.04453 18.7747C9.34178 18.9733 9.57347 19.2556 9.71028 19.5859C9.8471 19.9162 9.88289 20.2796 9.81314 20.6303C9.7434 20.9809 9.57124 21.303 9.31844 21.5558C9.06565 21.8086 8.74356 21.9808 8.39292 22.0505C8.04228 22.1203 7.67883 22.0845 7.34854 21.9476C7.01824 21.8108 6.73593 21.5791 6.53731 21.2819C6.33869 20.9846 6.23268 20.6351 6.23268 20.2776C6.23321 19.7984 6.42382 19.3389 6.7627 19C7.10157 18.6612 7.56103 18.4705 8.04028 18.47Z" fill="#283C7C"/>
<path d="M30.0993 26.9032C29.8071 25.8138 29.2305 24.8216 28.4285 24.0284C27.6264 23.2353 26.6279 22.6697 25.5353 22.3897C25.9705 22.0598 26.2913 21.6015 26.4522 21.0796C26.613 20.5576 26.606 19.9984 26.432 19.4807C26.258 18.9629 25.9258 18.5129 25.4823 18.1942C25.0388 17.8754 24.5064 17.7039 23.9602 17.7039C23.4141 17.7039 22.8817 17.8754 22.4382 18.1942C21.9947 18.5129 21.6625 18.9629 21.4885 19.4807C21.3145 19.9984 21.3075 20.5576 21.4683 21.0796C21.6292 21.6015 21.95 22.0598 22.3852 22.3897C21.2927 22.6698 20.2942 23.2354 19.4923 24.0285C18.6903 24.8217 18.1137 25.8138 17.8216 26.9032C17.7963 27.0051 17.8119 27.1128 17.8652 27.2031C17.9185 27.2935 18.0052 27.3594 18.1065 27.3864C18.2079 27.4135 18.3159 27.3997 18.4071 27.3479C18.4984 27.2961 18.5657 27.2106 18.5944 27.1096C18.9107 25.9283 19.6081 24.8843 20.5783 24.1397C21.5485 23.3951 22.7373 22.9915 23.9602 22.9915C25.1832 22.9915 26.372 23.3951 27.3422 24.1397C28.3124 24.8843 29.0098 25.9283 29.3261 27.1096C29.3534 27.2122 29.4204 27.2996 29.5123 27.3528C29.6041 27.4059 29.7133 27.4204 29.8159 27.393C29.9184 27.3657 30.0059 27.2987 30.059 27.2068C30.1122 27.115 30.1266 27.0058 30.0993 26.9032ZM23.9604 18.5053C24.318 18.5053 24.6674 18.6113 24.9647 18.8099C25.262 19.0085 25.4936 19.2908 25.6305 19.6211C25.7673 19.9514 25.8031 20.3149 25.7333 20.6655C25.6636 21.0161 25.4914 21.3382 25.2386 21.591C24.9858 21.8438 24.6637 22.016 24.3131 22.0857C23.9625 22.1555 23.599 22.1197 23.2687 21.9829C22.9384 21.846 22.6561 21.6144 22.4575 21.3171C22.2589 21.0198 22.1528 20.6704 22.1528 20.3129C22.1534 19.8336 22.344 19.3742 22.6829 19.0353C23.0217 18.6964 23.4812 18.5058 23.9604 18.5053Z" fill="#283C7C"/>
<path d="M15.9677 14.1248C15.8616 14.1248 15.7598 14.167 15.6848 14.242C15.6098 14.317 15.5677 14.4187 15.5677 14.5248V21.0048H13.8877C13.7816 21.0048 13.6798 21.047 13.6048 21.122C13.5298 21.197 13.4877 21.2987 13.4877 21.4048C13.4877 21.5109 13.5298 21.6126 13.6048 21.6877C13.6798 21.7627 13.7816 21.8048 13.8877 21.8048H17.9329C18.039 21.8048 18.1407 21.7627 18.2157 21.6877C18.2907 21.6126 18.3329 21.5109 18.3329 21.4048C18.3329 21.2987 18.2907 21.197 18.2157 21.122C18.1407 21.047 18.039 21.0048 17.9329 21.0048H16.3677V14.5248C16.3677 14.4187 16.3255 14.317 16.2505 14.242C16.1755 14.167 16.0738 14.1248 15.9677 14.1248Z" fill="#283C7C"/>
</svg>
