<svg width="24" height="16" viewBox="0 0 24 16" fill="none" xmlns="http://www.w3.org/2000/svg">
<path d="M24 0H0V16H24V0Z" fill="#29327F"/>
<path d="M21.1157 10.8172H19.7681C19.722 10.6123 19.6676 10.4139 19.6352 10.212C19.6364 10.1426 19.6062 10.0763 19.553 10.0316C19.4998 9.98698 19.4293 9.96873 19.3611 9.98198C18.8612 9.99303 18.3604 9.97559 17.861 9.99504C17.7475 10.0181 17.6498 10.0901 17.5941 10.1917C17.4999 10.3969 17.4182 10.6075 17.3493 10.8225H15.8237C15.8657 10.7085 15.8973 10.6098 15.9378 10.5148C16.6174 8.91778 17.3041 7.32369 17.9744 5.7229C18.0853 5.36873 18.4305 5.14186 18.7997 5.18055C19.1678 5.19356 19.5369 5.18327 19.9217 5.18327C20.3215 7.07004 20.7164 8.93334 21.1157 10.8172" fill="white"/>
<path d="M2.73438 5.22312C2.81807 5.20201 2.90336 5.18782 2.98938 5.18069C3.71989 5.17751 4.45043 5.17733 5.18101 5.18016C5.37225 5.15164 5.56668 5.20469 5.71693 5.32639C5.86717 5.44808 5.95945 5.62726 5.97127 5.82025C6.16625 6.80547 6.35128 7.7927 6.54074 8.779C6.54944 8.82438 6.56211 8.869 6.5895 8.9827C6.65361 8.85476 6.69483 8.78514 6.7248 8.71103C7.16425 7.6228 7.60659 6.53563 8.03633 5.44363C8.11091 5.25416 8.19396 5.16191 8.41955 5.17396C8.82629 5.19577 9.23507 5.18017 9.69187 5.18017C9.46416 5.72192 9.25355 6.2281 9.03887 6.73262C8.49414 8.01245 7.94143 9.28903 7.40799 10.5733C7.35892 10.7573 7.17658 10.8725 6.98936 10.8379C6.58053 10.82 6.17032 10.8328 5.72774 10.8328C5.56055 10.2032 5.39343 9.57902 5.22907 8.95417C5.00616 8.1063 4.77291 7.26072 4.56952 6.40829C4.51292 6.07913 4.27625 5.80965 3.95716 5.71103C3.55289 5.57428 3.1464 5.44389 2.74087 5.31076L2.73438 5.22312Z" fill="white"/>
<path d="M16.1272 5.34969C16.0459 5.72757 15.9677 6.09107 15.8876 6.46315C15.5589 6.3754 15.2245 6.31011 14.8869 6.26772C14.6102 6.24692 14.3322 6.28468 14.0711 6.37853C13.7048 6.52024 13.6809 6.85647 13.9959 7.0901C14.1859 7.21742 14.3831 7.33351 14.5867 7.43777C14.7336 7.52187 14.8823 7.60284 15.0297 7.6861C15.5414 7.96535 15.8598 8.50177 15.8598 9.08474C15.8599 9.66772 15.5415 10.2042 15.0298 10.4835C14.2939 10.8818 13.4442 11.0179 12.6207 10.8692C12.3533 10.8352 12.0897 10.7757 11.8336 10.6914C11.7433 10.6438 11.684 10.5529 11.6768 10.4511C11.7297 10.1124 11.8169 9.77889 11.8857 9.47063C12.3446 9.56507 12.7835 9.68356 13.2305 9.73592C13.4785 9.75808 13.7282 9.72287 13.9605 9.63303C14.1491 9.5945 14.2927 9.44067 14.318 9.2498C14.3434 9.05893 14.2451 8.87293 14.0731 8.78643C13.9243 8.68698 13.7699 8.59624 13.6106 8.51464C13.355 8.38147 13.1072 8.2337 12.8685 8.07206C12.5088 7.82327 12.2805 7.42539 12.2473 6.98923C12.2141 6.55307 12.3795 6.12522 12.6975 5.82484C13.0449 5.47631 13.492 5.24417 13.9769 5.16045C14.6969 5.01388 15.4439 5.07962 16.1272 5.34969" fill="white"/>
<path d="M10.5988 10.8186H9.12354C9.53321 8.93599 9.93886 7.07185 10.3468 5.19727H11.819C11.4098 7.08208 11.0054 8.94504 10.5988 10.8186" fill="white"/>
<path d="M18.9103 6.81232C19.0498 7.47435 19.1894 8.13641 19.3341 8.82284H18.0903C18.3454 8.13027 18.5912 7.46293 18.837 6.79565L18.9103 6.81232Z" fill="#29327F"/>
</svg>
