<svg width="32" height="32" viewBox="0 0 32 32" fill="none" xmlns="http://www.w3.org/2000/svg">
<path d="M19.1355 11.728C19.09 11.7542 19.0501 11.7892 19.0181 11.8308C18.9861 11.8725 18.9626 11.92 18.9489 11.9708C18.9353 12.0215 18.9318 12.0744 18.9386 12.1265C18.9455 12.1786 18.9625 12.2289 18.9887 12.2744L22.9408 19.1228C22.9668 19.1687 23.0017 19.2089 23.0434 19.2412C23.0851 19.2736 23.1328 19.2973 23.1837 19.3111C23.2346 19.325 23.2877 19.3286 23.3401 19.3218C23.3924 19.315 23.4428 19.2979 23.4885 19.2715C23.5342 19.2451 23.5742 19.21 23.6062 19.1681C23.6383 19.1262 23.6617 19.0783 23.6752 19.0273C23.6887 18.9763 23.692 18.9232 23.6848 18.8709C23.6777 18.8186 23.6603 18.7683 23.6336 18.7228L19.6819 11.8748C19.6557 11.8293 19.6208 11.7894 19.5791 11.7573C19.5374 11.7253 19.4899 11.7018 19.4391 11.6882C19.3884 11.6746 19.3355 11.6711 19.2834 11.6779C19.2313 11.6847 19.181 11.7017 19.1355 11.728Z" fill="#283C7C"/>
<path d="M8.62324 19.2696C8.66875 19.2958 8.71899 19.3129 8.77109 19.3197C8.82318 19.3265 8.87611 19.323 8.92685 19.3094C8.97759 19.2957 9.02515 19.2723 9.06681 19.2402C9.10847 19.2082 9.14341 19.1683 9.16964 19.1228L13.1201 12.2744C13.1467 12.2289 13.1642 12.1785 13.1713 12.1263C13.1785 12.074 13.1752 12.0208 13.1617 11.9698C13.1482 11.9188 13.1248 11.871 13.0927 11.8291C13.0607 11.7872 13.0207 11.752 12.975 11.7257C12.9293 11.6993 12.8789 11.6822 12.8266 11.6754C12.7742 11.6686 12.7211 11.6722 12.6702 11.686C12.6193 11.6999 12.5716 11.7236 12.5299 11.7559C12.4882 11.7883 12.4533 11.8285 12.4273 11.8744L8.47524 18.7228C8.44898 18.7684 8.43198 18.8187 8.4252 18.8709C8.41843 18.9231 8.42202 18.9761 8.43577 19.0269C8.44952 19.0777 8.47315 19.1253 8.50532 19.1669C8.53749 19.2086 8.57756 19.2435 8.62324 19.2696Z" fill="#283C7C"/>
<path d="M19.6886 24.148L12.3154 24.1304C12.2093 24.1304 12.1076 24.1725 12.0326 24.2475C11.9575 24.3226 11.9154 24.4243 11.9154 24.5304C11.9154 24.6365 11.9575 24.7382 12.0326 24.8132C12.1076 24.8882 12.2093 24.9304 12.3154 24.9304L19.689 24.948C19.7951 24.948 19.8968 24.9058 19.9718 24.8308C20.0469 24.7558 20.089 24.6541 20.089 24.548C20.089 24.4419 20.0469 24.3402 19.9718 24.2651C19.8968 24.1901 19.7951 24.148 19.689 24.148H19.6886Z" fill="#283C7C"/>
<path d="M10.7149 22.4496C10.664 22.4626 10.6162 22.4856 10.5741 22.5171C10.5321 22.5486 10.4967 22.5881 10.4699 22.6333C10.4431 22.6785 10.4255 22.7285 10.418 22.7805C10.4106 22.8325 10.4135 22.8855 10.4265 22.9364C10.619 23.6882 10.529 24.4845 10.1736 25.1744C9.81825 25.8642 9.22215 26.3998 8.49829 26.6795C7.77443 26.9593 6.97309 26.9638 6.24614 26.6922C5.51918 26.4206 4.9171 25.8917 4.554 25.2059C4.19089 24.5201 4.09198 23.7248 4.276 22.9709C4.46003 22.217 4.91421 21.5568 5.55248 21.1154C6.19075 20.674 6.96876 20.482 7.7391 20.5759C8.50944 20.6698 9.21857 21.043 9.73213 21.6248C9.80304 21.7015 9.90111 21.7474 10.0054 21.7527C10.1097 21.758 10.2119 21.7223 10.2902 21.6533C10.3686 21.5842 10.4168 21.4873 10.4246 21.3832C10.4325 21.279 10.3993 21.176 10.3321 21.096C9.90565 20.6127 9.36771 20.2406 8.76496 20.0121C8.1622 19.7837 7.51281 19.7057 6.87309 19.7849C6.23337 19.8641 5.62262 20.0981 5.09378 20.4667C4.56494 20.8352 4.13397 21.3272 3.83824 21.9C3.5425 22.4728 3.39092 23.109 3.39664 23.7536C3.40236 24.3982 3.5652 25.0316 3.87104 25.5991C4.17689 26.1665 4.61652 26.6508 5.15181 27.0099C5.6871 27.369 6.30191 27.5922 6.94293 27.66C7.08419 27.6748 7.22611 27.6823 7.36813 27.6824C7.97161 27.6815 8.56691 27.5428 9.10863 27.2769C9.65035 27.011 10.1242 26.6248 10.494 26.1479C10.8638 25.671 11.1198 25.116 11.2424 24.5251C11.3651 23.9342 11.3512 23.3231 11.2017 22.7384C11.1888 22.6875 11.1659 22.6396 11.1344 22.5975C11.1029 22.5554 11.0634 22.5199 11.0182 22.4931C10.973 22.4663 10.9229 22.4486 10.8709 22.4412C10.8189 22.4337 10.7659 22.4366 10.7149 22.4496Z" fill="#283C7C"/>
<path d="M28.5927 23.4288C28.5381 22.6769 28.2702 21.9562 27.8203 21.3513C27.3705 20.7463 26.7575 20.2822 26.0531 20.0135C25.3488 19.7447 24.5824 19.6824 23.844 19.8339C23.1055 19.9854 22.4255 20.3444 21.8839 20.8688C21.8134 20.9436 21.7744 21.0428 21.7751 21.1457C21.7757 21.2486 21.816 21.3472 21.8875 21.4212C21.9591 21.4951 22.0563 21.5387 22.1591 21.5428C22.2619 21.5469 22.3623 21.5112 22.4395 21.4432C22.9955 20.9076 23.7285 20.5944 24.4999 20.5629C25.2712 20.5314 26.0273 20.7838 26.6251 21.2723C27.2229 21.7608 27.6208 22.4515 27.7436 23.2137C27.8664 23.9759 27.7055 24.7566 27.2914 25.4081C26.8772 26.0596 26.2386 26.5367 25.4964 26.749C24.7542 26.9614 23.9599 26.8942 23.2639 26.5603C22.5678 26.2264 22.0183 25.6489 21.7194 24.9372C21.4205 24.2254 21.393 23.4287 21.6419 22.698C21.6707 22.5991 21.6603 22.493 21.6129 22.4016C21.5654 22.3102 21.4845 22.2407 21.387 22.2074C21.2896 22.1742 21.1831 22.1798 21.0896 22.2231C20.9962 22.2664 20.9231 22.3441 20.8855 22.44C20.6826 23.0365 20.6247 23.6728 20.7167 24.2961C20.8087 24.9194 21.0479 25.5119 21.4145 26.0243C21.7811 26.5367 22.2645 26.9545 22.8248 27.2428C23.385 27.5312 24.0059 27.6819 24.6359 27.6824C24.7325 27.6824 24.8297 27.6789 24.9275 27.672C25.9758 27.5941 26.9503 27.1036 27.6374 26.3082C28.3245 25.5127 28.6681 24.4772 28.5927 23.4288Z" fill="#283C7C"/>
<path d="M15.1325 12.1496C15.1612 12.1562 15.1906 12.1596 15.2201 12.1596C15.3189 12.16 15.4143 12.1238 15.488 12.058C15.5617 11.9922 15.6084 11.9014 15.6192 11.8032C15.63 11.705 15.604 11.6063 15.5464 11.5261C15.4887 11.4459 15.4034 11.3898 15.3069 11.3688C14.6118 11.2119 13.9897 10.8259 13.5405 10.2728C13.0816 9.7111 12.8323 9.00731 12.8353 8.28199C12.8352 7.69014 13.0011 7.11013 13.3142 6.60785C13.6273 6.10558 14.0749 5.70117 14.6063 5.44057C15.1377 5.17997 15.7316 5.07362 16.3204 5.1336C16.9092 5.19359 17.4694 5.4175 17.9373 5.77991C18.4052 6.14232 18.7621 6.62869 18.9675 7.18378C19.1728 7.73887 19.2184 8.34042 19.099 8.92011C18.9796 9.49979 18.7 10.0344 18.292 10.4631C17.884 10.8919 17.3639 11.1976 16.7909 11.3456C16.74 11.3587 16.6922 11.3817 16.6502 11.4133C16.6082 11.4449 16.5729 11.4845 16.5462 11.5298C16.5195 11.575 16.502 11.6251 16.4947 11.6771C16.4873 11.7291 16.4903 11.7821 16.5035 11.833C16.5166 11.8839 16.5396 11.9316 16.5712 11.9736C16.6028 12.0156 16.6424 12.0509 16.6876 12.0776C16.7329 12.1043 16.783 12.1218 16.835 12.1292C16.887 12.1365 16.94 12.1335 16.9909 12.1204C17.931 11.8782 18.7497 11.2995 19.2917 10.4941C19.8338 9.68867 20.0616 8.71238 19.9319 7.75023C19.8023 6.78807 19.3242 5.90688 18.5884 5.27362C17.8525 4.64036 16.9099 4.29903 15.9391 4.31429C14.9684 4.32955 14.037 4.70034 13.3214 5.35642C12.6057 6.01249 12.1556 6.90827 12.0563 7.87403C11.957 8.83978 12.2153 9.80843 12.7824 10.5964C13.3495 11.3844 14.186 11.9371 15.1333 12.1496H15.1325Z" fill="#283C7C"/>
</svg>
