<?xml version="1.0" standalone="no"?>
<!DOCTYPE svg PUBLIC "-//W3C//DTD SVG 20010904//EN"
 "http://www.w3.org/TR/2001/REC-SVG-20010904/DTD/svg10.dtd">
<svg version="1.0" xmlns="http://www.w3.org/2000/svg"
 width="100.000000pt" height="25.000000pt" viewBox="0 0 100.000000 25.000000"
 preserveAspectRatio="xMidYMid meet">

<g transform="translate(0.000000,25.000000) scale(0.100000,-0.100000)"
fill="#000000" stroke="none">
<path d="M16 214 c-18 -18 -22 -104 -6 -135 9 -16 22 -19 86 -19 41 0 84 -5
95 -10 13 -7 19 -7 19 0 0 6 24 10 54 10 30 0 58 5 61 10 12 20 7 143 -7 151
-7 5 -75 9 -150 9 -111 0 -140 -3 -152 -16z m30 -46 l7 -42 15 32 c18 37 30
40 41 10 7 -20 8 -19 14 10 4 20 12 32 23 32 13 0 15 -6 10 -27 l-7 -28 16 23
c19 26 50 29 64 5 9 -16 11 -16 31 2 16 15 25 17 38 9 21 -13 28 -70 11 -90
-18 -21 -57 -18 -64 7 l-7 21 -15 -21 c-19 -27 -48 -27 -67 1 -16 22 -16 22
-16 -10 0 -39 -12 -41 -37 -6 l-19 25 -14 -25 c-7 -15 -18 -25 -24 -23 -13 4
-38 106 -31 125 9 25 25 11 31 -30z"/>
<path d="M185 149 c-4 -11 -4 -23 -2 -26 9 -8 27 7 27 22 0 23 -18 27 -25 4z"/>
<path d="M277 163 c-11 -10 -8 -43 3 -43 6 0 10 11 10 25 0 26 -2 29 -13 18z"/>
<path d="M372 178 c-19 -19 -14 -55 10 -72 28 -20 38 -20 38 -1 0 8 -7 15 -15
15 -8 0 -15 9 -15 20 0 11 7 23 15 26 8 4 15 10 15 15 0 13 -34 11 -48 -3z"/>
<path d="M436 174 c-20 -52 12 -96 54 -74 38 20 23 90 -20 90 -16 0 -30 -7
-34 -16z m44 -29 c0 -14 -4 -25 -10 -25 -5 0 -10 11 -10 25 0 14 5 25 10 25 6
0 10 -11 10 -25z"/>
<path d="M518 145 c-2 -31 1 -45 9 -45 7 0 13 12 14 28 l1 27 10 -27 c5 -16
13 -28 17 -28 4 0 12 12 18 28 l11 27 1 -27 c1 -37 21 -36 21 1 0 58 -20 77
-46 44 -13 -17 -13 -17 -14 0 0 10 -8 17 -19 17 -15 0 -20 -9 -23 -45z"/>
<path d="M640 176 c0 -7 -3 -28 -6 -45 -8 -36 8 -42 24 -8 l11 22 0 -22 c1
-33 29 -29 34 5 l4 27 2 -27 c0 -19 7 -28 17 -28 13 0 15 7 10 31 -3 17 -6 38
-6 45 0 8 -9 14 -20 14 -14 0 -20 -7 -21 -22 l0 -23 -9 23 c-10 24 -40 31 -40
8z"/>
<path d="M750 145 c0 -41 2 -45 25 -45 14 0 25 5 25 10 0 6 -8 10 -17 10 -17
1 -17 1 0 11 18 10 18 11 0 25 -17 12 -17 13 0 14 27 0 20 20 -8 20 -23 0 -25
-4 -25 -45z"/>
<path d="M810 145 c0 -25 5 -45 10 -45 6 0 10 8 10 18 1 16 1 16 11 0 15 -26
43 -24 29 1 -7 13 -7 22 0 26 5 3 10 -3 10 -14 0 -19 26 -41 49 -41 6 0 11 7
11 15 0 8 -6 15 -14 15 -8 0 -17 4 -20 9 -9 14 4 41 20 41 8 0 14 5 14 10 0
14 -33 13 -48 -2 -9 -9 -15 -9 -24 0 -7 7 -22 12 -35 12 -21 0 -23 -5 -23 -45z
m40 15 c0 -5 -4 -10 -10 -10 -5 0 -10 5 -10 10 0 6 5 10 10 10 6 0 10 -4 10
-10z"/>
<path d="M950 145 c0 -41 2 -45 25 -45 14 0 25 5 25 10 0 6 -8 10 -17 10 -15
0 -14 2 3 15 17 13 17 14 2 15 -22 0 -24 20 -3 20 8 0 15 5 15 10 0 6 -11 10
-25 10 -23 0 -25 -4 -25 -45z"/>
</g>
</svg>
